<?xml version="1.0" encoding="UTF-8" standalone="no"?>
<svg
   xmlns:dc="http://purl.org/dc/elements/1.1/"
   xmlns:cc="http://creativecommons.org/ns#"
   xmlns:rdf="http://www.w3.org/1999/02/22-rdf-syntax-ns#"
   xmlns:svg="http://www.w3.org/2000/svg"
   xmlns="http://www.w3.org/2000/svg"
   xmlns:sodipodi="http://sodipodi.sourceforge.net/DTD/sodipodi-0.dtd"
   xmlns:inkscape="http://www.inkscape.org/namespaces/inkscape"
   width="260mm"
   height="350mm"
   viewBox="0 0 260 350"
   version="1.1"
   id="svg8"
   inkscape:version="1.0.2 (e86c870879, 2021-01-15)"
   sodipodi:docname="pick.svg">
  <defs
     id="defs2" />
  <sodipodi:namedview
     id="base"
     pagecolor="#ffffff"
     bordercolor="#666666"
     borderopacity="1.0"
     inkscape:pageopacity="0.0"
     inkscape:pageshadow="2"
     inkscape:zoom="0.35"
     inkscape:cx="400"
     inkscape:cy="560"
     inkscape:document-units="mm"
     inkscape:current-layer="g18"
     inkscape:document-rotation="0"
     showgrid="false"
     inkscape:window-width="1920"
     inkscape:window-height="1017"
     inkscape:window-x="1016"
     inkscape:window-y="192"
     inkscape:window-maximized="1" />
  <metadata
     id="metadata5">
    <rdf:RDF>
      <cc:Work
         rdf:about="">
        <dc:format>image/svg+xml</dc:format>
        <dc:type
           rdf:resource="http://purl.org/dc/dcmitype/StillImage" />
        <dc:title></dc:title>
      </cc:Work>
    </rdf:RDF>
  </metadata>
  <g
     inkscape:label="Layer 1"
     inkscape:groupmode="layer"
     id="layer1">
    <g
       id="g18"
       inkscape:label="pick"
       transform="matrix(0.35277777,0,0,-0.35277777,-109.08134,285.95233)">
      <g
         id="g20"
         transform="translate(907.21429,742.84285)">
        <path
           d="m 0,0 -2.9,-24.4 -4.4,-22.6 -6,-20.6 -7.5,-18.8 -9.2,-16.9 -10.7,-15 -12.2,-13.1 -12.6,-10.3 -14,-8.8 -15.2,-7.2 -16.5,-5.6 -17.9,-4 -19.2,-2.5 M 26.4,-2.2 22,4.6 17.8,9.4 14.7,11.6 11.7,12.5 9.6,12.3 7.5,11.4 5.5,9.7 2.7,5.7 0,0 m 41.3,-129 3.5,18 1.7,17.8 -0.1,17.9 -2,17.7 -4,18.5 -6,18.5 -8,18.4 m -51.7,-385.1 -1.6,17.9 0.2,17.3 1.8,16.9 3.1,16.5 4.2,16.2 6.9,20.9 8,20.5 8.6,20.4 7.7,18.1 7.5,18.2 6.9,18.4 5.8,18.6 4.6,19 2.9,19.4 m -5.8,-429.6 -15.8,30.5 -13.7,31.2 -11.7,31.8 -7.8,25.5 -6.5,26 -5.3,26.3 m 129,-361.8 -9.6,36.8 -11.1,36.2 -12.4,35.6 -16.6,41.3 -18.5,40.6 m 70.1,-230.1 0.7,11.1 -0.3,11.1 -2.3,17.4 m -64.5,-62.4 9.4,-4.5 9,-2.7 8.4,-1 8,0.9 7.4,2.6 6.8,4.3 6.3,6 5.8,7.7 5.3,9.5 m -178.8,66.1 63.6,-48.9 48.8,-40 m -253.3,115 20,-0.6 20.4,-0.6 20.5,-1.1 20.4,-2.3 15.7,-3.1 15.2,-4.3 14.7,-6.1 14,-8 m -140.9,57.2 v -31.1 m -13,44.1 2.6,-0.3 2.4,-0.7 2.2,-1.2 2,-1.6 1.6,-2 1.2,-2.2 0.7,-2.4 0.3,-2.6 m -208.2,13 h 195.2 m -208.1,-13 0.2,2.6 0.8,2.4 1.2,2.2 1.6,2 1.9,1.6 2.3,1.2 2.4,0.7 2.5,0.3 m -12.9,-44.1 v 31.1 m -25.9,-31.1 h 14.5 11.4 m -105.8,94.3 2.8,-13.8 4.6,-13.9 6.2,-13.7 7.8,-13.1 9.3,-11.9 8.3,-8.4 9.1,-7.1 9.9,-5.8 10.6,-4.2 11.3,-2.4 m -60.6,243.3 -8.1,-20.2 -6.3,-20.4 -4.6,-20.6 -2.8,-20.9 -1.1,-22.1 0.8,-22.3 2.8,-22.5 m 70,301.5 -11.5,-43.6 -13.6,-42.9 -12.2,-33.2 -13.4,-32.8 m 43,335.7 6.8,-33.9 4.4,-34.1 1.9,-34.2 -0.3,-26.9 -1.8,-27 -3.3,-27.1 m 9.9,247.3 -8.4,-3.1 -6.7,-4.6 -4.9,-5.9 -3.1,-7.4 -1.3,-8.7 0.5,-10.1 2.2,-11.4 4.1,-12.9 m 29.8,63.3 -6.8,0.5 -5.4,0.3 m 54.3,-18.6 -42.1,17.8 m 42.1,-85.7 V -72 m 23.8,-91.6 -4.7,0.4 -4.4,1.4 -4.1,2.2 -3.6,2.9 -3,3.6 -2.2,4.1 -1.3,4.5 -0.5,4.6 m 135.5,-23.7 H -383 m 138.1,15.5 -2.2,-3.3 -2.6,-3.1 -3,-2.7 -3.3,-2.3 -3.6,-1.8 -3.8,-1.3 -3.9,-0.8 -4,-0.2 m 30,22 -3.6,-6.5 m 96.6,-21.7 -27,4.8 -26.2,7.1 -20.1,7.4 -19.7,8.9"
           style="fill:none;stroke:#000000;stroke-width:0.709;stroke-linecap:round;stroke-linejoin:round;stroke-miterlimit:10;stroke-dasharray:none;stroke-opacity:1"
           id="path22" />
      </g>
    </g>
  </g>
</svg>
