%TF.GenerationSoftware,Altium Limited,Altium Designer,21.0.9 (235)*%
G04 Layer_Physical_Order=1*
G04 Layer_Color=255*
%FSLAX45Y45*%
%MOMM*%
%TF.SameCoordinates,18F7FDDE-D618-47A9-A2A8-584233897502*%
%TF.FilePolarity,Positive*%
%TF.FileFunction,Copper,L1,Top,Signal*%
%TF.Part,Single*%
G01*
G75*
%TA.AperFunction,SMDPad,CuDef*%
%ADD10R,0.70000X1.52500*%
%ADD11R,1.27000X3.68000*%
%ADD12R,1.40000X1.75000*%
%ADD13R,1.75000X1.40000*%
%ADD14R,1.40000X2.10000*%
%ADD15R,1.50000X1.50000*%
%TA.AperFunction,ConnectorPad*%
%ADD16R,3.68000X1.27000*%
%TA.AperFunction,SMDPad,CuDef*%
G04:AMPARAMS|DCode=17|XSize=0.65mm|YSize=1.2mm|CornerRadius=0.04875mm|HoleSize=0mm|Usage=FLASHONLY|Rotation=90.000|XOffset=0mm|YOffset=0mm|HoleType=Round|Shape=RoundedRectangle|*
%AMROUNDEDRECTD17*
21,1,0.65000,1.10250,0,0,90.0*
21,1,0.55250,1.20000,0,0,90.0*
1,1,0.09750,0.55125,0.27625*
1,1,0.09750,0.55125,-0.27625*
1,1,0.09750,-0.55125,-0.27625*
1,1,0.09750,-0.55125,0.27625*
%
%ADD17ROUNDEDRECTD17*%
%ADD18R,1.70000X1.10000*%
%ADD19R,1.90000X1.90000*%
%ADD20R,1.90000X1.80000*%
%ADD21R,1.60000X2.10000*%
%ADD22R,1.35000X0.22860*%
%TA.AperFunction,Conductor*%
%ADD23C,0.20320*%
%ADD24C,0.63500*%
%ADD25C,0.50800*%
%ADD26C,0.25400*%
%ADD27C,1.27000*%
%ADD28C,0.30480*%
%ADD29C,0.76200*%
G36*
X7419340Y2585720D02*
X2545080D01*
X2529760Y7219845D01*
X2538726Y7228840D01*
X7419340D01*
Y2585720D01*
D02*
G37*
%LPC*%
G36*
X4966820Y6969760D02*
X4762500D01*
Y6885940D01*
X4966820D01*
Y6969760D01*
D02*
G37*
G36*
X4721860D02*
X4517540D01*
Y6885940D01*
X4721860D01*
Y6969760D01*
D02*
G37*
G36*
X4966820Y6845300D02*
X4762500D01*
Y6761480D01*
X4966820D01*
Y6845300D01*
D02*
G37*
G36*
X4721860D02*
X4517540D01*
Y6761480D01*
X4721860D01*
Y6845300D01*
D02*
G37*
G36*
X6500220Y6874440D02*
X6409900D01*
Y6749121D01*
X6500220D01*
Y6874440D01*
D02*
G37*
G36*
X6369260D02*
X6278940D01*
Y6749121D01*
X6369260D01*
Y6874440D01*
D02*
G37*
G36*
X4471620Y6715760D02*
X4267300D01*
Y6631940D01*
X4471620D01*
Y6715760D01*
D02*
G37*
G36*
X6500220Y6708481D02*
X6409900D01*
Y6583160D01*
X6500220D01*
Y6708481D01*
D02*
G37*
G36*
X6369260D02*
X6278940D01*
Y6583160D01*
X6369260D01*
Y6708481D01*
D02*
G37*
G36*
X4966820Y6715760D02*
X4517540D01*
Y6507480D01*
X4966820D01*
Y6715760D01*
D02*
G37*
G36*
X4471620Y6591300D02*
X4267300D01*
Y6507480D01*
X4471620D01*
Y6591300D01*
D02*
G37*
G36*
X4226660D02*
X4022340D01*
Y6507480D01*
X4226660D01*
Y6591300D01*
D02*
G37*
G36*
X4471620Y6461760D02*
X4267300D01*
Y6377940D01*
X4471620D01*
Y6461760D01*
D02*
G37*
G36*
X4226660D02*
X4022340D01*
Y6377940D01*
X4226660D01*
Y6461760D01*
D02*
G37*
G36*
X4471620Y6337300D02*
X4267300D01*
Y6253480D01*
X4471620D01*
Y6337300D01*
D02*
G37*
G36*
X4226660D02*
X4022340D01*
Y6253480D01*
X4226660D01*
Y6337300D01*
D02*
G37*
G36*
X3196660Y6104700D02*
X3101340D01*
Y6009380D01*
X3196660D01*
Y6104700D01*
D02*
G37*
G36*
X3060700D02*
X2965380D01*
Y6009380D01*
X3060700D01*
Y6104700D01*
D02*
G37*
G36*
X4966820Y6207760D02*
X4517540D01*
Y5999480D01*
X4966820D01*
Y6207760D01*
D02*
G37*
G36*
X6500220Y5964440D02*
X6409901D01*
Y5839120D01*
X6500220D01*
Y5964440D01*
D02*
G37*
G36*
X6369261D02*
X6278940D01*
Y5839120D01*
X6369261D01*
Y5964440D01*
D02*
G37*
G36*
X6500220Y5798480D02*
X6409901D01*
Y5673160D01*
X6500220D01*
Y5798480D01*
D02*
G37*
G36*
X6369261D02*
X6278940D01*
Y5673160D01*
X6369261D01*
Y5798480D01*
D02*
G37*
G36*
X6112142Y7126595D02*
X5773980D01*
X5755083Y7124107D01*
X5737473Y7116813D01*
X5722351Y7105209D01*
X5047777Y6430635D01*
X4966820D01*
Y6461760D01*
X4517540D01*
Y6253480D01*
X4966820D01*
Y6284605D01*
X5078020D01*
X5096918Y6287093D01*
X5114528Y6294387D01*
X5129649Y6305991D01*
X5804224Y6980565D01*
X6076325D01*
Y6550660D01*
X6078813Y6531762D01*
X6086107Y6514153D01*
X6097711Y6499031D01*
X6561465Y6035276D01*
Y5279844D01*
X6548765Y5275533D01*
X6541049Y5285589D01*
X6050220Y5776418D01*
Y5964440D01*
X6012595D01*
Y6583160D01*
X6050220D01*
Y6874440D01*
X5828940D01*
Y6583160D01*
X5866565D01*
Y5964440D01*
X5828940D01*
Y5922635D01*
X4966820D01*
Y5953760D01*
X4517540D01*
Y5745480D01*
X4966820D01*
Y5776605D01*
X5828940D01*
Y5673160D01*
X5946962D01*
X6416406Y5203716D01*
Y4977000D01*
X6378780D01*
Y4720720D01*
X6561465D01*
Y4533726D01*
X6549732Y4528866D01*
X5569843Y5508755D01*
X5554721Y5520358D01*
X5537112Y5527652D01*
X5518214Y5530140D01*
X4959178D01*
X4930969Y5558349D01*
X4915847Y5569953D01*
X4898238Y5577247D01*
X4879340Y5579735D01*
X3979683D01*
Y5828940D01*
X4010607Y5859864D01*
X4022340Y5855003D01*
Y5745480D01*
X4471620D01*
Y5953760D01*
X4121097D01*
X4116237Y5965493D01*
X4146359Y5995616D01*
X4149324Y5999480D01*
X4471620D01*
Y6207760D01*
X4022340D01*
Y6078113D01*
X3855039Y5910812D01*
X3843436Y5895690D01*
X3836141Y5878081D01*
X3833654Y5859183D01*
Y5543918D01*
X3836141Y5525020D01*
X3843436Y5507410D01*
X3855039Y5492288D01*
X3892237Y5455091D01*
X3907358Y5443487D01*
X3924968Y5436193D01*
X3943866Y5433705D01*
X4849096D01*
X4877305Y5405497D01*
X4892427Y5393893D01*
X4910036Y5386599D01*
X4928934Y5384111D01*
X5487971D01*
X6817103Y4054979D01*
Y3955826D01*
X6804403Y3951515D01*
X6804182Y3951803D01*
X6804181Y3951803D01*
X5948925Y4807060D01*
X5935129Y4817646D01*
X5919064Y4824300D01*
X5901824Y4826570D01*
X5901822Y4826570D01*
X4548511D01*
X4502020Y4873061D01*
Y5000140D01*
X4245740D01*
Y4778860D01*
X4407819D01*
X4473819Y4712861D01*
X4473819Y4712860D01*
X4487615Y4702274D01*
X4503680Y4695620D01*
X4520920Y4693350D01*
X4520922Y4693350D01*
X5874233D01*
X6558870Y4008713D01*
X6554010Y3996980D01*
X6452941D01*
X5833360Y4616560D01*
X5819565Y4627146D01*
X5803500Y4633800D01*
X5786260Y4636070D01*
X5786258Y4636070D01*
X3825134D01*
X3825132Y4636070D01*
X3825130Y4636070D01*
X3475340D01*
X3458100Y4633800D01*
X3442035Y4627146D01*
X3428240Y4616560D01*
X3428239Y4616559D01*
X3381324Y4569645D01*
X3378978Y4569798D01*
X3305219Y4643557D01*
Y4722740D01*
X3351440D01*
Y4914020D01*
X3272325D01*
X3249246Y4923580D01*
X3222060Y4927159D01*
X2998340D01*
Y4936500D01*
X2845318D01*
X2783325Y4998494D01*
Y5015220D01*
X2998340D01*
Y5095153D01*
X3087639Y5184452D01*
X3100160Y5179012D01*
X3100160Y5173394D01*
Y5108700D01*
X3205480D01*
Y5184020D01*
X3111638D01*
X3105168Y5184020D01*
X3099728Y5196541D01*
X3155293Y5252106D01*
X3155294Y5252106D01*
X3171986Y5273861D01*
X3182480Y5299194D01*
X3186059Y5326380D01*
X3186059Y5326382D01*
Y5523420D01*
X3196660D01*
Y5754700D01*
X3078052D01*
X3071264Y5767400D01*
X3072103Y5768655D01*
X3186005D01*
X3204902Y5771143D01*
X3222512Y5778438D01*
X3237634Y5790041D01*
X3664386Y6216794D01*
X3675990Y6231915D01*
X3683284Y6249525D01*
X3685772Y6268423D01*
Y6321654D01*
X4010607Y6646489D01*
X4022340Y6641629D01*
Y6631940D01*
X4226660D01*
Y6715760D01*
X4096472D01*
X4091611Y6727493D01*
X4125598Y6761480D01*
X4471620D01*
Y6969760D01*
X4022340D01*
Y6864738D01*
X3561128Y6403526D01*
X3549525Y6388405D01*
X3542230Y6370795D01*
X3539743Y6351897D01*
Y6298666D01*
X3208393Y5967316D01*
X3204957Y5968740D01*
X3081020D01*
X2965380D01*
Y5879053D01*
X2658681Y5572354D01*
X2647078Y5557232D01*
X2639783Y5539623D01*
X2637295Y5520725D01*
Y4968250D01*
X2639783Y4949353D01*
X2647078Y4931743D01*
X2658681Y4916621D01*
X2742060Y4833242D01*
Y4715220D01*
X2998340D01*
Y4717081D01*
X3146381D01*
Y4610662D01*
X3146380Y4610660D01*
X3149087Y4590105D01*
X3157021Y4570950D01*
X3169642Y4554502D01*
X3255888Y4468256D01*
Y4451415D01*
X3259421Y4433656D01*
X3269481Y4418601D01*
X3284536Y4408541D01*
X3302295Y4405008D01*
X3412545D01*
X3430304Y4408541D01*
X3445359Y4418601D01*
X3455419Y4433656D01*
X3458952Y4451415D01*
Y4458871D01*
X3502931Y4502850D01*
X3797541D01*
X3861022Y4439369D01*
X3745671Y4324017D01*
X3734067Y4308895D01*
X3726773Y4291286D01*
X3724285Y4272388D01*
Y4147290D01*
X3467660D01*
Y3918525D01*
X3226611D01*
X3221750Y3930259D01*
X3394045Y4102553D01*
X3405273Y4119357D01*
X3409215Y4139178D01*
Y4215008D01*
X3412545D01*
X3430304Y4218541D01*
X3445359Y4228601D01*
X3455419Y4243656D01*
X3458952Y4261415D01*
Y4316665D01*
X3455419Y4334424D01*
X3445359Y4349480D01*
X3430304Y4359539D01*
X3412545Y4363072D01*
X3302295D01*
X3284536Y4359539D01*
X3269481Y4349480D01*
X3259421Y4334424D01*
X3255888Y4316665D01*
Y4261415D01*
X3259421Y4243656D01*
X3269481Y4228601D01*
X3284536Y4218541D01*
X3302295Y4215008D01*
X3305625D01*
Y4160632D01*
X3206773Y4061781D01*
X3195040Y4066641D01*
Y4258640D01*
X2955040D01*
Y4313640D01*
X2683760D01*
Y4052360D01*
Y3787360D01*
Y3547360D01*
Y3292360D01*
X2955040D01*
Y3347360D01*
X3195040D01*
Y3620930D01*
X3195040D01*
Y3652680D01*
X3086900D01*
Y3685925D01*
X3195040D01*
Y3685930D01*
Y3753975D01*
X3394198D01*
X3399458Y3741275D01*
X3370855Y3712672D01*
X3359251Y3697550D01*
X3351957Y3679940D01*
X3349469Y3661042D01*
Y3354639D01*
X3351957Y3335741D01*
X3359251Y3318132D01*
X3370855Y3303010D01*
X3895934Y2777931D01*
X3911055Y2766327D01*
X3928665Y2759033D01*
X3947563Y2756545D01*
X6499816D01*
X6518714Y2759033D01*
X6536324Y2766327D01*
X6551445Y2777931D01*
X6610570Y2837056D01*
X6617647Y2839987D01*
X6632769Y2851591D01*
X7150027Y3368848D01*
X7161630Y3383970D01*
X7168924Y3401580D01*
X7171412Y3420478D01*
Y4171495D01*
X7168924Y4190392D01*
X7161630Y4208002D01*
X7150027Y4223124D01*
X6862435Y4510716D01*
Y4720720D01*
X6900060D01*
Y4977000D01*
X6707495D01*
Y6065520D01*
X6705007Y6084418D01*
X6697713Y6102027D01*
X6686109Y6117149D01*
X6222355Y6580904D01*
Y7016382D01*
X6219867Y7035280D01*
X6212573Y7052890D01*
X6200969Y7068012D01*
X6163772Y7105209D01*
X6148650Y7116813D01*
X6131040Y7124107D01*
X6112142Y7126595D01*
D02*
G37*
G36*
X3246120Y5184020D02*
Y5108700D01*
X3351440D01*
Y5184020D01*
X3246120D01*
D02*
G37*
G36*
X3740220Y5335340D02*
X3508940D01*
Y5104060D01*
X3595059D01*
X3602261Y5098534D01*
X3627594Y5088040D01*
X3654780Y5084461D01*
X3654782Y5084461D01*
X4245740D01*
Y5078860D01*
X4502020D01*
Y5300140D01*
X4245740D01*
Y5294539D01*
X3740220D01*
Y5335340D01*
D02*
G37*
G36*
X3351440Y5068060D02*
X3246120D01*
Y4992740D01*
X3351440D01*
Y5068060D01*
D02*
G37*
G36*
X3205480D02*
X3100160D01*
Y4992740D01*
X3205480D01*
Y5068060D01*
D02*
G37*
G36*
X3740220Y4985340D02*
X3644900D01*
Y4890020D01*
X3740220D01*
Y4985340D01*
D02*
G37*
G36*
X3604260D02*
X3508940D01*
Y4890020D01*
X3604260D01*
Y4985340D01*
D02*
G37*
G36*
X3740220Y4849380D02*
X3644900D01*
Y4754060D01*
X3740220D01*
Y4849380D01*
D02*
G37*
G36*
X3604260D02*
X3508940D01*
Y4754060D01*
X3604260D01*
Y4849380D01*
D02*
G37*
G36*
X3672545Y4458072D02*
X3637740D01*
Y4404360D01*
X3718952D01*
Y4411665D01*
X3715419Y4429424D01*
X3705359Y4444480D01*
X3690304Y4454539D01*
X3672545Y4458072D01*
D02*
G37*
G36*
X3597100D02*
X3562295D01*
X3544536Y4454539D01*
X3529481Y4444480D01*
X3519421Y4429424D01*
X3515888Y4411665D01*
Y4404360D01*
X3597100D01*
Y4458072D01*
D02*
G37*
G36*
X3718952Y4363720D02*
X3637740D01*
Y4310008D01*
X3672545D01*
X3690304Y4313541D01*
X3705359Y4323600D01*
X3715419Y4338656D01*
X3718952Y4356415D01*
Y4363720D01*
D02*
G37*
G36*
X3597100D02*
X3515888D01*
Y4356415D01*
X3519421Y4338656D01*
X3529481Y4323600D01*
X3544536Y4313541D01*
X3562295Y4310008D01*
X3597100D01*
Y4363720D01*
D02*
G37*
%LPD*%
G36*
X2965380Y5655943D02*
Y5523420D01*
X2975981D01*
Y5369888D01*
X2842592Y5236500D01*
X2783325D01*
Y5490482D01*
X2953647Y5660804D01*
X2965380Y5655943D01*
D02*
G37*
G36*
X4945785Y4063343D02*
Y3884802D01*
X4819520D01*
Y4100980D01*
X4563240D01*
Y4063355D01*
X4380940D01*
Y4147290D01*
X4147054D01*
X4140735Y4159990D01*
X4144225Y4164605D01*
X4844523D01*
X4945785Y4063343D01*
D02*
G37*
G36*
X4563240Y3879700D02*
X4563240D01*
X4565449Y3867000D01*
X4556014Y3857565D01*
X4193788D01*
X4188928Y3869299D01*
X4212385Y3892755D01*
X4223613Y3909559D01*
X4224398Y3913510D01*
X4380940D01*
Y3917325D01*
X4563240D01*
Y3879700D01*
D02*
G37*
G36*
X6341240Y3920279D02*
Y3883834D01*
X6329507Y3878974D01*
X5820521Y4387960D01*
X5806725Y4398546D01*
X5790660Y4405200D01*
X5773420Y4407470D01*
X5773418Y4407470D01*
X5501642D01*
X5501640Y4407470D01*
X5484400Y4405200D01*
X5468335Y4398546D01*
X5454540Y4387960D01*
X5454539Y4387959D01*
X5393580Y4327000D01*
X5382994Y4313205D01*
X5376340Y4297140D01*
X5374070Y4279900D01*
X5365797Y4270760D01*
X5336540D01*
Y3847775D01*
X5172403D01*
X5150600Y3843438D01*
X5132116Y3831087D01*
X5094963Y3793935D01*
X5027802D01*
X5022541Y3806635D01*
X5034205Y3818298D01*
X5045433Y3835102D01*
X5049375Y3854923D01*
Y4084797D01*
X5045433Y4104618D01*
X5034205Y4121422D01*
X4902602Y4253025D01*
X4885798Y4264253D01*
X4865977Y4268195D01*
X4117341D01*
X4117340Y4268195D01*
X4097519Y4264253D01*
X4080715Y4253025D01*
X4080715Y4253024D01*
X4014675Y4186985D01*
X4003447Y4170181D01*
X3999505Y4150360D01*
Y4147290D01*
X3944620D01*
Y4030400D01*
X3903980D01*
Y4147290D01*
X3870315D01*
Y4242145D01*
X4011381Y4383211D01*
X4022984Y4398333D01*
X4030278Y4415942D01*
X4032766Y4434840D01*
X4030278Y4453737D01*
X4022984Y4471347D01*
X4011381Y4486469D01*
X4006584Y4490150D01*
X4010895Y4502850D01*
X5758669D01*
X6341240Y3920279D01*
D02*
G37*
G36*
X6690472Y3877111D02*
Y3650738D01*
X6609253Y3569520D01*
X6597520Y3574380D01*
Y3696980D01*
X6486189D01*
X6473890Y3697546D01*
X6471620Y3714785D01*
X6464966Y3730850D01*
X6454381Y3744646D01*
X6454380Y3744647D01*
X6435060Y3763967D01*
X6439920Y3775700D01*
X6597520D01*
Y3953470D01*
X6609253Y3958330D01*
X6690472Y3877111D01*
D02*
G37*
G36*
X4563240Y3579700D02*
X4819520D01*
Y3679985D01*
X5118563D01*
X5140366Y3684322D01*
X5158850Y3696673D01*
X5196003Y3733825D01*
X5336540D01*
Y3554610D01*
X4380940D01*
Y3604890D01*
X4248064D01*
Y3661042D01*
X4245576Y3679940D01*
X4238282Y3697550D01*
X4226679Y3712672D01*
X4198075Y3741275D01*
X4203336Y3753975D01*
X4563240D01*
Y3579700D01*
D02*
G37*
G36*
X5590540Y4270760D02*
Y4066440D01*
X5798820D01*
Y4204666D01*
X5810553Y4209526D01*
X6253738Y3766341D01*
X6258154Y3755680D01*
X6268740Y3741885D01*
X6340670Y3669955D01*
Y3610342D01*
X6340670Y3610340D01*
X6341240Y3606009D01*
Y3569901D01*
X6073909Y3302570D01*
X4254510D01*
Y3371110D01*
X4380940D01*
Y3421390D01*
X5336540D01*
Y3326280D01*
X5544820D01*
Y3495594D01*
X5557520Y3502383D01*
X5563657Y3498282D01*
X5585460Y3493945D01*
X5590540D01*
Y3326280D01*
X5798820D01*
Y3775560D01*
X5613555D01*
X5612698Y3779870D01*
X5600347Y3798353D01*
X5589483Y3809218D01*
X5595181Y3821480D01*
X5674360D01*
Y4025800D01*
X5590540D01*
Y3826121D01*
X5578278Y3820423D01*
X5567613Y3831087D01*
X5549129Y3843438D01*
X5544820Y3844295D01*
Y4270760D01*
X5556074Y4274250D01*
X5579286D01*
X5590540Y4270760D01*
D02*
G37*
G36*
X6503700Y3463967D02*
X6241974Y3202240D01*
X6178575D01*
X6173714Y3213973D01*
X6435441Y3475700D01*
X6498840D01*
X6503700Y3463967D01*
D02*
G37*
%LPC*%
G36*
X5798820Y4025800D02*
X5715000D01*
Y3821480D01*
X5798820D01*
Y4025800D01*
D02*
G37*
%LPD*%
D10*
X3797300Y4030400D02*
D03*
X3924300D02*
D03*
X3543300Y3488000D02*
D03*
X3670300D02*
D03*
X3797300D02*
D03*
X3924300D02*
D03*
X4051300D02*
D03*
X4178300D02*
D03*
X4305300D02*
D03*
Y4030400D02*
D03*
X4178300D02*
D03*
X4051300D02*
D03*
X3670300D02*
D03*
X3543300D02*
D03*
D11*
X5440680Y3550920D02*
D03*
Y4046120D02*
D03*
X5694680Y3550920D02*
D03*
Y4046120D02*
D03*
D12*
X6789420Y4848860D02*
D03*
X6489420D02*
D03*
D13*
X4691380Y3990340D02*
D03*
Y3690340D02*
D03*
X4373880Y4889500D02*
D03*
Y5189500D02*
D03*
X2870200Y5125860D02*
D03*
Y4825860D02*
D03*
X6469380Y3586340D02*
D03*
Y3886340D02*
D03*
D14*
X6389580Y5818800D02*
D03*
Y6728800D02*
D03*
X5939580D02*
D03*
Y5818800D02*
D03*
D15*
X3624580Y5219700D02*
D03*
Y4869700D02*
D03*
X3081020Y5639060D02*
D03*
Y5989060D02*
D03*
D16*
X4742180Y5849620D02*
D03*
X4246980Y6865620D02*
D03*
X4742180D02*
D03*
X4246980Y6611620D02*
D03*
X4742180D02*
D03*
X4246980Y6357620D02*
D03*
X4742180D02*
D03*
X4246980Y6103620D02*
D03*
X4742180D02*
D03*
X4246980Y5849620D02*
D03*
D17*
X3617420Y4384040D02*
D03*
X3357420Y4289040D02*
D03*
Y4479040D02*
D03*
D18*
X3225800Y4818380D02*
D03*
Y5088380D02*
D03*
D19*
X2819400Y3683000D02*
D03*
Y3923000D02*
D03*
D20*
Y3423000D02*
D03*
Y4183000D02*
D03*
D21*
X3074400Y3493000D02*
D03*
Y4113000D02*
D03*
D22*
X3086900Y3933000D02*
D03*
Y3738000D02*
D03*
Y3868000D02*
D03*
Y3803000D02*
D03*
Y3673000D02*
D03*
D23*
X4113110Y3866730D02*
X4175760Y3929380D01*
X3088170Y3866730D02*
X4113110D01*
X4175760Y4027860D02*
X4178300Y4030400D01*
X4175760Y3929380D02*
Y4027860D01*
X4051300Y4030400D02*
Y4150360D01*
X4117340Y4216400D02*
X4865977D01*
X4051300Y4150360D02*
X4117340Y4216400D01*
X4865977D02*
X4997580Y4084797D01*
Y3854923D02*
Y4084797D01*
X3086900Y3868000D02*
X3088170Y3866730D01*
X3152732Y3804270D02*
X3154232Y3805770D01*
X3086900Y3803000D02*
X3088170Y3804270D01*
X4577468Y3805770D02*
X4604705Y3833007D01*
X3154232Y3805770D02*
X4577468D01*
X3088170Y3804270D02*
X3152732D01*
X4975664Y3833007D02*
X4997580Y3854923D01*
X4604705Y3833007D02*
X4975664D01*
X3166705Y3948463D02*
X3357420Y4139178D01*
X3150903Y3948463D02*
X3166705D01*
X3136900Y3934460D02*
X3150903Y3948463D01*
X3357420Y4139178D02*
Y4289040D01*
D24*
X3459681Y3698240D02*
X4137852D01*
X4175050Y3491250D02*
Y3661042D01*
X3422484D02*
X3459681Y3698240D01*
X4137852D02*
X4175050Y3661042D01*
X3422484Y3354639D02*
Y3661042D01*
X3943866Y5506720D02*
X4879340D01*
X3906668Y5543918D02*
X3943866Y5506720D01*
X4879340D02*
X4928934Y5457126D01*
X3906668Y5543918D02*
Y5859183D01*
X4094730Y6071870D02*
X4126480Y6103620D01*
X4094730Y6047245D02*
Y6071870D01*
X4126480Y6103620D02*
X4246980D01*
X3906668Y5859183D02*
X4094730Y6047245D01*
X6634480Y4488136D02*
Y6065520D01*
X6149340Y6550660D02*
Y7016382D01*
Y6550660D02*
X6634480Y6065520D01*
X6112142Y7053580D02*
X6149340Y7016382D01*
X5773980Y7053580D02*
X6112142D01*
X4308550Y3990340D02*
X4691380D01*
X4305300Y3993590D02*
X4308550Y3990340D01*
X4305300Y3993590D02*
Y4030400D01*
X3797300Y4272388D02*
X3959752Y4434840D01*
X3797300Y4030400D02*
Y4272388D01*
X4928934Y5457126D02*
X5518214D01*
X6890118Y4085222D01*
X7098398Y3420478D02*
Y4171495D01*
X6994258Y3471277D02*
Y4128359D01*
X6890118Y3534778D02*
Y4085222D01*
X6634480Y4488136D02*
X6994258Y4128359D01*
X6789420Y4480472D02*
X7098398Y4171495D01*
X6789420Y4480472D02*
Y4848860D01*
X5078020Y6357620D02*
X5773980Y7053580D01*
X4175050Y3491250D02*
X4178300Y3488000D01*
X3422484Y3354639D02*
X3947563Y2829560D01*
X6499816D02*
X6573476Y2903220D01*
X3947563Y2829560D02*
X6499816D01*
X6573476Y2903220D02*
X6581140D01*
X7098398Y3420478D01*
X5939580Y5818800D02*
Y5818990D01*
Y5783800D02*
Y5818800D01*
X6489420Y4848860D02*
Y5233960D01*
X5939580Y5783800D02*
X6489420Y5233960D01*
X4884420Y5849620D02*
X5908950D01*
X5939580Y5818990D01*
X4876800Y5842000D02*
X4884420Y5849620D01*
X4742180D02*
X4869180D01*
X4876800Y5842000D01*
X3673550Y3398125D02*
X4033835Y3037840D01*
X6393180D01*
X6890118Y3534778D01*
X3670300Y3488000D02*
X3673550Y3484750D01*
Y3398125D02*
Y3484750D01*
X3546550Y3377849D02*
Y3484750D01*
Y3377849D02*
X3990699Y2933700D01*
X6456680D01*
X3543300Y3488000D02*
X3546550Y3484750D01*
X6456680Y2933700D02*
X6994258Y3471277D01*
X4808220Y6357620D02*
X5078020D01*
X4800600Y6350000D02*
X4808220Y6357620D01*
X4742180D02*
X4792980D01*
X4800600Y6350000D01*
X4123940Y6863080D02*
X4274820D01*
X2852700Y4825860D02*
X2870200D01*
X2710310Y4968250D02*
X2852700Y4825860D01*
X2710310Y4968250D02*
Y5520725D01*
X3031255Y5841670D01*
X3186005D01*
X3612757Y6268423D01*
Y6351897D01*
X4123940Y6863080D01*
X5939580Y5818990D02*
Y6728800D01*
X2870200Y5125860D02*
X2880500D01*
X2890520Y5135880D01*
X2870200Y4825860D02*
X2873940Y4822120D01*
X3222060D02*
X3225800Y4818380D01*
D25*
X5440680Y4046120D02*
Y4279900D01*
X5501640Y4340860D02*
X5773420D01*
X5440680Y4279900D02*
X5501640Y4340860D01*
X5773420D02*
X6315840Y3798440D01*
X6407280Y3610340D02*
Y3697545D01*
X6315840Y3788985D02*
Y3798440D01*
Y3788985D02*
X6407280Y3697545D01*
X6101500Y3235960D02*
X6451880Y3586340D01*
X6407280Y3610340D02*
X6431280Y3586340D01*
X5786260Y4569460D02*
X6407280Y3948440D01*
Y3930940D02*
Y3948440D01*
X3825132Y4569460D02*
X5786260D01*
X3825132D02*
X3959752Y4434840D01*
X5901824Y4759960D02*
X6757082Y3904702D01*
X4391380Y4889500D02*
X4520920Y4759960D01*
X5901824D01*
X4187900Y3265718D02*
Y3478400D01*
X4178300Y3488000D02*
X4187900Y3478400D01*
Y3265718D02*
X4217658Y3235960D01*
X3933900Y3390403D02*
Y3478400D01*
Y3390403D02*
X4188673Y3135630D01*
X6269565D02*
X6757082Y3623147D01*
X4188673Y3135630D02*
X6269565D01*
X4217658Y3235960D02*
X6101500D01*
X5402580Y3488000D02*
X5440680Y3526100D01*
X4305300Y3488000D02*
X5402580D01*
X5440680Y3526100D02*
Y3550920D01*
X6757082Y3623147D02*
Y3904702D01*
X3924300Y3488000D02*
X3933900Y3478400D01*
X6407280Y3930940D02*
X6451880Y3886340D01*
X6469380D01*
X4272280Y6865620D02*
X4274820Y6863080D01*
X4246980Y6865620D02*
X4272280D01*
X3384920Y4479040D02*
X3475340Y4569460D01*
X3825132D01*
X4373880Y4889500D02*
X4391380D01*
X3329920Y4479040D02*
X3357420D01*
X3322820Y4486140D02*
X3329920Y4479040D01*
X3322820Y4486140D02*
Y4513640D01*
X3357420Y4479040D02*
X3384920D01*
D26*
X6431280Y3586340D02*
X6451880D01*
X6469380D01*
D27*
X3654780Y5189500D02*
X4373880D01*
X3624580Y5219700D02*
X3654780Y5189500D01*
X3081020Y5326380D02*
Y5639060D01*
X2890520Y5135880D02*
X3081020Y5326380D01*
X2873940Y4822120D02*
X3222060D01*
D28*
X5172403Y3790800D02*
X5527326D01*
X5560060Y3758066D01*
Y3576320D02*
Y3758066D01*
X4738000Y3736960D02*
X5118563D01*
X5172403Y3790800D01*
X4691380Y3690340D02*
X4738000Y3736960D01*
X5585460Y3550920D02*
X5694680D01*
X5560060Y3576320D02*
X5585460Y3550920D01*
D29*
X3225800Y4610660D02*
X3322820Y4513640D01*
X3225800Y4610660D02*
Y4818380D01*
%TF.MD5,f8e9b06910e70ab1adc3d6013d480330*%
M02*
