<?xml version="1.0" encoding="UTF-8" standalone="no"?>
<svg
   xmlns:dc="http://purl.org/dc/elements/1.1/"
   xmlns:cc="http://creativecommons.org/ns#"
   xmlns:rdf="http://www.w3.org/1999/02/22-rdf-syntax-ns#"
   xmlns:svg="http://www.w3.org/2000/svg"
   xmlns="http://www.w3.org/2000/svg"
   xmlns:sodipodi="http://sodipodi.sourceforge.net/DTD/sodipodi-0.dtd"
   xmlns:inkscape="http://www.inkscape.org/namespaces/inkscape"
   width="78.739998mm"
   height="76.199997mm"
   viewBox="0 0 78.739998 76.199997"
   version="1.1"
   id="svg8"
   inkscape:version="1.0.2 (e86c870879, 2021-01-15)"
   sodipodi:docname="printout.svg">
  <defs
     id="defs2" />
  <sodipodi:namedview
     id="base"
     pagecolor="#ffffff"
     bordercolor="#666666"
     borderopacity="1.0"
     inkscape:pageopacity="0.0"
     inkscape:pageshadow="2"
     inkscape:zoom="0.49497475"
     inkscape:cx="370.2986"
     inkscape:cy="584.69429"
     inkscape:document-units="mm"
     inkscape:current-layer="layer1"
     inkscape:document-rotation="0"
     showgrid="false"
     inkscape:window-width="1920"
     inkscape:window-height="1017"
     inkscape:window-x="1016"
     inkscape:window-y="192"
     inkscape:window-maximized="1" />
  <metadata
     id="metadata5">
    <rdf:RDF>
      <cc:Work
         rdf:about="">
        <dc:format>image/svg+xml</dc:format>
        <dc:type
           rdf:resource="http://purl.org/dc/dcmitype/StillImage" />
        <dc:title></dc:title>
      </cc:Work>
    </rdf:RDF>
  </metadata>
  <g
     inkscape:label="Layer 1"
     inkscape:groupmode="layer"
     id="layer1">
    <path
       style="fill:#000000;stroke-width:0.115231"
       d="m 49.501654,76.189997 c -21.712648,0.0252 -23.217606,0.0143 -23.513326,-0.1703 -0.173762,-0.10846 -0.398758,-0.37207 -0.499983,-0.58578 -0.124259,-0.26235 -0.158977,-0.5225 -0.106864,-0.8008 0.04462,-0.23828 0.223905,-0.54952 0.424936,-0.73766 l 0.34775,-0.32545 23.387561,-0.0296 23.387558,-0.0297 0.653343,-0.30685 c 0.359338,-0.16876 0.88307,-0.51899 1.163848,-0.77829 0.280778,-0.25929 0.68615,-0.79595 0.900822,-1.19256 l 0.390322,-0.72111 V 38.101637 5.6913995 l -0.390322,-0.72111 c -0.214672,-0.396611 -0.620044,-0.933262 -0.900822,-1.192558 -0.280778,-0.259296 -0.80451,-0.609529 -1.163848,-0.778296 L 72.929286,2.6925875 H 39.370787 5.8122857 l -0.653343,0.306848 c -0.359338,0.168767 -0.88307,0.519 -1.163848,0.778296 -0.280778,0.259296 -0.68615,0.795947 -0.900826,1.192558 l -0.390318,0.72111 -0.03141,30.8531595 c -0.02846,27.976908 -0.01431,30.898448 0.151754,31.338968 0.111385,0.29544 0.424174,0.7065 0.798253,1.04903 0.385127,0.35263 0.801865,0.61438 1.114606,0.70006 0.38108,0.1044 8.0732293,0.12914 32.4462713,0.10436 l 31.946774,-0.0325 0.653343,-0.30685 c 0.359338,-0.16876 0.890349,-0.52572 1.180021,-0.79323 0.305427,-0.28206 0.683856,-0.80625 0.900825,-1.2478 l 0.374145,-0.76142 V 38.101637 9.6080725 l -0.37415,-0.761417 C 71.647414,8.4051065 71.268985,7.8809135 70.963558,7.5988545 70.673886,7.3313425 70.142875,6.9743865 69.783537,6.8056205 L 69.130194,6.4987715 H 39.37077 9.6113437 l -0.653343,0.306849 c -0.359342,0.168766 -0.890349,0.525722 -1.180025,0.793234 -0.305427,0.282059 -0.683858,0.806252 -0.900822,1.247801 l -0.374144,0.761417 V 36.198542 62.789017 l 0.374144,0.76141 c 0.216964,0.44155 0.595395,0.96574 0.900822,1.24781 0.289676,0.26751 0.820683,0.62446 1.180025,0.79323 l 0.653343,0.30685 H 37.47123 65.331119 l 0.653343,-0.30685 c 0.359337,-0.16877 0.890348,-0.52572 1.18002,-0.79323 0.305427,-0.28207 0.683858,-0.80626 0.900827,-1.24781 l 0.374144,-0.76141 V 38.101637 13.414256 L 68.065309,12.652839 C 67.84834,12.21129 67.469909,11.687096 67.164482,11.405038 66.87481,11.137526 66.343799,10.780571 65.984462,10.611804 L 65.331119,10.304955 H 39.370787 13.410437 l -0.653343,0.306849 c -0.359342,0.168767 -0.890349,0.525722 -1.180025,0.793234 -0.305427,0.282058 -0.683858,0.806252 -0.900826,1.247801 l -0.37414,0.761417 v 22.781863 22.781858 l 0.306275,0.65457 c 0.16845,0.36001 0.524737,0.89201 0.791753,1.18223 0.28153,0.306 0.804744,0.68513 1.24547,0.90251 l 0.759993,0.37484 H 37.468828 61.53206 l 0.660323,-0.31005 c 0.363179,-0.17052 0.923291,-0.57351 1.244695,-0.89551 0.321405,-0.32201 0.723636,-0.88317 0.893843,-1.24703 l 0.309474,-0.66156 V 38.101637 17.225292 L 64.330921,16.56373 C 64.160714,16.199873 63.758483,15.638711 63.437078,15.316706 63.115674,14.9947 62.555562,14.591718 62.192383,14.42119 L 61.53206,14.11114 H 39.370787 17.209513 l -0.660327,0.31005 c -0.363175,0.170528 -0.923291,0.57351 -1.244696,0.895516 -0.321404,0.322005 -0.723631,0.883167 -0.893843,1.247024 l -0.309469,0.661562 v 18.97325 18.973255 l 0.309469,0.66156 c 0.170212,0.36386 0.572439,0.92502 0.893843,1.24702 0.321405,0.32201 0.881521,0.72499 1.244696,0.89552 l 0.660327,0.31005 h 20.261734 20.261738 l 0.660322,-0.31005 c 0.36318,-0.17053 0.923291,-0.57351 1.244696,-0.89552 0.321404,-0.322 0.723635,-0.88316 0.893843,-1.24702 l 0.309473,-0.66156 V 38.101637 21.031473 L 60.531846,20.369915 C 60.361638,20.006055 59.959407,19.444896 59.638003,19.12289 59.316598,18.800884 58.756487,18.3979 58.393307,18.227374 L 57.732985,17.917322 H 39.370787 21.008588 l -0.660326,0.310052 c -0.363176,0.170526 -0.923292,0.57351 -1.244696,0.895516 -0.321405,0.322006 -0.723631,0.883165 -0.893843,1.247025 l -0.309469,0.661558 v 15.167069 15.167069 l 0.309469,0.661558 c 0.170212,0.36386 0.572438,0.925019 0.893843,1.247025 0.321404,0.322006 0.88152,0.72499 1.244696,0.895516 l 0.660326,0.310057 h 16.462659 16.462662 l 0.660323,-0.310057 c 0.363179,-0.170526 0.923291,-0.57351 1.244695,-0.895516 0.321405,-0.322006 0.723636,-0.883165 0.893843,-1.247025 l 0.309474,-0.661558 V 38.101637 24.837658 L 56.73277,24.1761 C 56.562563,23.812241 56.160332,23.25108 55.838927,22.929074 55.517523,22.607068 54.957411,22.204085 54.594232,22.033559 L 53.933909,21.723506 H 39.082977 24.232045 l -0.50866,0.27177 c -0.279764,0.149466 -0.75502,0.525161 -1.056126,0.834873 -0.342269,0.35205 -0.637049,0.802995 -0.786475,1.203133 -0.236083,0.632167 -0.239016,0.781485 -0.239016,12.16526 0,11.459583 0.0013,11.529044 0.244294,12.192764 0.181503,0.495936 0.427085,0.848466 0.955385,1.371416 0.510722,0.505549 0.876665,0.758988 1.298702,0.89943 0.525316,0.174807 1.263023,0.194668 6.958688,0.187335 l 6.371079,-0.0082 0.644954,-0.639417 0.644954,-0.639422 0.08226,-4.451225 0.08225,-4.451225 -0.665378,-0.67365 -0.665378,-0.673655 h -2.252116 -2.252117 l -0.652316,0.663197 -0.652312,0.663201 -0.03481,2.166102 -0.03481,2.166102 -1.619828,1.611246 c -1.485774,1.477905 -1.654441,1.61125 -2.038027,1.61125 -0.23001,0 -0.554034,-0.06201 -0.720055,-0.137796 -0.166026,-0.07579 -0.375685,-0.28082 -0.465914,-0.455626 -0.09023,-0.174811 -0.164051,-0.452745 -0.164051,-0.617639 0,-0.164889 0.07402,-0.439954 0.16449,-0.611256 0.09047,-0.171302 0.660331,-0.803504 1.26636,-1.404896 l 1.10187,-1.093443 v -2.253348 -2.253353 l 1.239457,-1.237927 1.239457,-1.237927 h 2.937371 2.937375 l 0.658356,-0.666545 0.658355,-0.66654 v -0.983372 -0.983372 l -0.627306,-0.595694 c -0.4241,-0.402722 -0.650132,-0.718254 -0.697768,-0.974043 -0.03877,-0.208094 -0.05435,-1.883526 -0.03468,-3.723184 0.03176,-2.968534 0.05866,-3.37851 0.238894,-3.644233 0.111693,-0.164672 0.334305,-0.359309 0.494692,-0.432518 0.160383,-0.07321 0.475669,-0.133119 0.700636,-0.133119 0.311671,0 0.502193,0.09334 0.80045,0.392155 l 0.391418,0.392151 v 3.20856 3.208564 l 0.604398,0.612856 0.604401,0.61286 0.03607,2.146555 0.03607,2.146555 -0.429417,0.440583 c -0.333688,0.342368 -0.429412,0.532484 -0.429412,0.852842 0,0.319465 0.0955,0.510239 0.424282,0.847572 l 0.424287,0.435321 -0.03094,5.673389 -0.03094,5.673385 0.437427,-3.1e-5 c 0.240587,-1.3e-5 0.579157,0.0734 0.752375,0.163141 0.173218,0.08975 0.388229,0.300363 0.477801,0.468042 0.08957,0.167679 0.162858,0.480513 0.162858,0.695189 0,0.214672 -0.06622,0.514294 -0.147168,0.665817 -0.08094,0.151528 -0.29357,0.362146 -0.472501,0.468042 -0.23939,0.141676 -0.600886,0.19254 -1.368455,0.19254 -1.003056,0 -1.058785,-0.01378 -1.450887,-0.358694 l -0.407765,-0.358689 -0.466363,0.422121 -0.466362,0.422116 -6.987058,-0.04124 c -6.054912,-0.03575 -7.069511,-0.06637 -7.605109,-0.229603 -0.339927,-0.103602 -0.892324,-0.327398 -1.227543,-0.497322 -0.335224,-0.169925 -0.860087,-0.516281 -1.166367,-0.769681 -0.30628,-0.2534 -0.758823,-0.7273 -1.005663,-1.053107 -0.246834,-0.325812 -0.591056,-0.903803 -0.764932,-1.284419 -0.173879,-0.380621 -0.39932,-1.13725 -0.500975,-1.681404 -0.161335,-0.863566 -0.184836,-2.359492 -0.184818,-11.76457 1.7e-5,-8.973994 0.02815,-10.922486 0.168305,-11.656295 0.09256,-0.484597 0.265937,-1.138562 0.385284,-1.453249 0.119351,-0.314687 0.411903,-0.866343 0.650123,-1.225909 0.23822,-0.359561 0.699452,-0.889229 1.02496,-1.177036 0.325512,-0.287808 0.954475,-0.697614 1.397698,-0.910677 0.443228,-0.213068 1.22237,-0.470923 1.731426,-0.573017 0.826274,-0.165709 2.450205,-0.182113 15.138738,-0.152897 13.152192,0.0303 14.264748,0.04783 14.903924,0.23506 0.37991,0.111284 1.076881,0.391271 1.548835,0.622194 0.613065,0.299974 1.090061,0.653528 1.670457,1.238162 0.556557,0.56062 0.949181,1.090693 1.246837,1.68334 0.268895,0.535366 0.520151,1.282628 0.659282,1.960759 0.214702,1.046469 0.22481,1.645288 0.22481,13.321648 0,11.676356 -0.01009,12.275176 -0.22481,13.321644 -0.139131,0.678131 -0.390387,1.425392 -0.659282,1.960763 -0.297656,0.592642 -0.69028,1.122721 -1.246837,1.683341 -0.580396,0.58463 -1.057392,0.93818 -1.670457,1.23816 -0.471954,0.23092 -1.168925,0.51103 -1.548835,0.62246 -0.641573,0.18818 -1.817213,0.2049 -16.515881,0.23481 -14.022117,0.0285 -15.937126,0.0115 -16.808029,-0.15002 -0.603754,-0.11194 -1.338149,-0.3543 -1.903883,-0.62833 -0.50654,-0.24536 -1.215116,-0.71022 -1.574606,-1.03301 -0.35949,-0.3228 -0.861153,-0.89826 -1.114806,-1.278826 -0.253653,-0.380555 -0.570785,-0.985399 -0.704739,-1.344093 -0.133954,-0.358693 -0.318702,-1.045652 -0.410559,-1.526571 -0.140254,-0.734318 -0.166987,-3.128754 -0.16687,-14.945753 1.13e-4,-11.611399 0.02859,-14.232657 0.162837,-14.99406 0.08948,-0.507492 0.274173,-1.220398 0.410419,-1.58424 0.136251,-0.363846 0.455259,-0.972897 0.708912,-1.353456 0.253653,-0.38056 0.755316,-0.955303 1.114806,-1.277213 0.35949,-0.321906 1.016257,-0.76335 1.459484,-0.980981 0.443228,-0.217632 1.142601,-0.487053 1.55417,-0.598713 0.69936,-0.189742 1.926647,-0.20302 18.76513,-0.20302 16.838482,0 18.065769,0.01328 18.765129,0.20302 0.411569,0.11166 1.110943,0.381081 1.55417,0.598713 0.443223,0.217631 1.09999,0.659075 1.45948,0.980981 0.359494,0.32191 0.861157,0.896653 1.114806,1.277213 0.253653,0.380559 0.570785,0.985399 0.704739,1.344092 0.133953,0.358694 0.318706,1.045653 0.410563,1.526576 0.140929,0.737854 0.166987,3.368955 0.16687,16.84884 -1.13e-4,13.251128 -0.02789,16.131744 -0.162836,16.897151 -0.08949,0.5075 -0.274178,1.2204 -0.410425,1.58425 -0.136246,0.36384 -0.455258,0.97289 -0.708911,1.35345 -0.253649,0.38056 -0.755312,0.9553 -1.114806,1.27721 -0.35949,0.32191 -1.016257,0.7631 -1.45948,0.98043 -0.443227,0.21732 -1.116699,0.48651 -1.496609,0.59821 -0.645624,0.1898 -1.972643,0.20511 -20.317319,0.23436 -17.463204,0.0278 -19.734656,0.0112 -20.607105,-0.15049 -0.601403,-0.1115 -1.336635,-0.35427 -1.901519,-0.62789 -0.506541,-0.24536 -1.215117,-0.71021 -1.574607,-1.03301 -0.35949,-0.32279 -0.861153,-0.89826 -1.114806,-1.27882 -0.253653,-0.38056 -0.570785,-0.9854 -0.704738,-1.34409 -0.133954,-0.3587 -0.318703,-1.04565 -0.41056,-1.52657 -0.141472,-0.740706 -0.167009,-3.616863 -0.167009,-18.809612 0,-15.192751 0.02554,-18.068907 0.167009,-18.809603 0.09186,-0.480923 0.276606,-1.167881 0.41056,-1.526575 0.133953,-0.358693 0.451085,-0.963535 0.704738,-1.344092 0.253653,-0.380559 0.755316,-0.956029 1.114806,-1.278823 0.35949,-0.322795 1.068066,-0.787648 1.574607,-1.033008 0.564567,-0.273464 1.300116,-0.516392 1.900641,-0.62772 0.873009,-0.161844 3.322897,-0.178244 22.506644,-0.150664 20.16704,0.02899 21.57063,0.04379 22.217734,0.234195 0.37991,0.111785 1.053381,0.381057 1.496608,0.598383 0.443223,0.217325 1.099991,0.658516 1.459481,0.980424 0.359494,0.321909 0.861157,0.896654 1.114806,1.277213 0.253653,0.380557 0.570784,0.985399 0.704738,1.344092 0.133954,0.358694 0.318707,1.045652 0.410564,1.526575 0.141898,0.742936 0.167009,3.857057 0.167009,20.712697 0,16.855638 -0.02511,19.969758 -0.167009,20.712698 -0.09186,0.48092 -0.27661,1.16788 -0.410564,1.52657 -0.133954,0.3587 -0.451085,0.96354 -0.704738,1.34409 -0.253649,0.38056 -0.755312,0.95603 -1.114806,1.27883 -0.35949,0.32279 -1.068062,0.78745 -1.574607,1.03258 -0.552454,0.26733 -1.306129,0.51781 -1.883476,0.62593 -0.852402,0.15964 -3.599493,0.18026 -24.019312,0.18026 -20.419819,0 -23.166906,-0.0206 -24.019313,-0.18026 -0.587907,-0.1101 -1.338798,-0.36151 -1.929428,-0.64599 -0.740083,-0.35646 -1.162764,-0.66191 -1.8015923,-1.30194 -0.638832,-0.64002 -0.943715,-1.0635 -1.299511,-1.80496 -0.283946,-0.59174 -0.534884,-1.34403 -0.64478,-1.93304 -0.159116,-0.85276 -0.179923,-3.48256 -0.179923,-22.737862 0,-19.255295 0.0208,-21.8851 0.179923,-22.73786 0.109896,-0.58901 0.360834,-1.341303 0.64478,-1.933039 0.354873,-0.739543 0.660853,-1.165112 1.293237,-1.7986765 0.5908393,-0.591947 1.0744323,-0.950482 1.6864703,-1.250348 0.471949,-0.23123 1.194827,-0.511778 1.606396,-0.623439 0.703798,-0.190945 2.271696,-0.203019 26.363281,-0.203019 24.091585,0 25.659482,0.01208 26.36328,0.203019 0.411569,0.111661 1.134443,0.392209 1.606396,0.623439 0.612038,0.299866 1.095631,0.658401 1.68647,1.250348 0.63238,0.6335645 0.938364,1.0591335 1.293237,1.7986765 0.283946,0.591736 0.534879,1.344029 0.64478,1.933039 0.159438,0.854497 0.179924,3.659996 0.179924,24.640954 0,20.980958 -0.02049,23.786458 -0.179924,24.640948 -0.109901,0.58901 -0.360834,1.34131 -0.64478,1.93304 -0.354873,0.73955 -0.660857,1.16512 -1.293237,1.79868 -0.591587,0.5927 -1.073657,0.94994 -1.68647,1.24979 -0.471953,0.23092 -1.168925,0.51147 -1.548834,0.62344 -0.650211,0.19163 -2.28834,0.20535 -27.91745,0.23391 -24.349625,0.0271 -27.33011,0.0112 -28.2052563,-0.15099 -0.608314,-0.11273 -1.342105,-0.35659 -1.939427,-0.64455 -0.727747,-0.35083 -1.162094,-0.664 -1.790196,-1.29074 -0.553916,-0.55272 -0.974322,-1.10802 -1.265964,-1.6722 -0.273725,-0.52949 -0.517997,-1.23959 -0.654666,-1.90309 -0.210129,-1.02009 -0.218022,-1.98767 -0.218022,-26.721332 0,-24.733662 0.0079,-25.701234 0.218022,-26.7213335 0.138731,-0.673507 0.37826,-1.365605 0.658643,-1.903092 0.284846,-0.546041 0.728056,-1.13397 1.253628,-1.662964 0.579635,-0.583414 1.059303,-0.938973 1.671093,-1.238717 0.471949,-0.231232 1.194827,-0.51178 1.606396,-0.62344 0.705156,-0.191314 2.4442183,-0.20302 30.1623573,-0.20302 27.718134,0 29.4572,0.0117 30.162356,0.20302 0.411569,0.11166 1.134443,0.392208 1.606396,0.62344 0.611789,0.299744 1.091453,0.655303 1.671092,1.238717 0.525568,0.528994 0.968778,1.116923 1.253624,1.662964 0.280387,0.537487 0.519916,1.229585 0.658647,1.903092 0.21039,1.0213785 0.218022,2.0232485 0.218022,28.6244275 0,26.601178 -0.0076,27.603048 -0.218022,28.624428 -0.138731,0.67351 -0.37826,1.3656 -0.658647,1.90309 -0.284846,0.54604 -0.728056,1.13397 -1.253624,1.66296 -0.58037,0.58415 -1.058533,0.93844 -1.671092,1.23816 -0.471953,0.23093 -1.168925,0.51147 -1.548835,0.62344 -0.651533,0.19203 -2.487629,0.2054 -32.349701,0.23556 -28.9076933,0.0292 -31.7340013,0.0156 -32.5223903,-0.15601 -0.474886,-0.10339 -1.223932,-0.37644 -1.664544,-0.60678 -0.440612,-0.23033 -1.066617,-0.68907 -1.39112,-1.01941 -0.324498,-0.33035 -0.75285299,-0.93205 -0.95189999,-1.33713 -0.199042,-0.40506 -0.440782,-1.1122 -0.537198,-1.57141 -0.15443,-0.73551 -0.175124,-4.41466 -0.173793002159,-30.902001 C 0.00135671,7.7442625 0.00895671,6.6937285 0.21959271,5.6710275 c 0.136669,-0.663497 0.380941,-1.373593 0.654666,-1.903092 0.29062899,-0.562206 0.71185299,-1.119302 1.25961099,-1.665927 0.580889,-0.579689 1.073606,-0.943889 1.67507,-1.23816002 0.46866,-0.229295 1.162943,-0.508509 1.542848,-0.620477 0.651933,-0.19214 2.539904,-0.205263 33.6044623,-0.233591 28.393163,-0.02589 33.03485,-0.007 33.795688,0.137606 0.485085,0.09219 1.175982,0.277829 1.535324,0.412529 0.359347,0.1347 0.961651,0.45116502 1.338458,0.70325802 0.376803,0.252092 0.937481,0.735008 1.245941,1.073147 0.308464,0.338138 0.756917,0.988631 0.996568,1.44554 0.277184,0.52847 0.515056,1.215859 0.653748,1.889167 0.210821,1.023473 0.218022,2.094405 0.218022,32.4306115 0,30.336208 -0.0072,31.407138 -0.218022,32.430608 -0.136669,0.6635 -0.380945,1.3736 -0.654666,1.90309 -0.290633,0.56221 -0.711853,1.11931 -1.259611,1.66593 -0.580893,0.57969 -1.073606,0.94389 -1.67507,1.23816 -0.46866,0.2293 -1.162943,0.50842 -1.542852,0.62028 -0.648401,0.19091 -2.11271,0.20503 -23.888124,0.23029 z M 43.566998,45.771674 c -0.324332,0 -0.509434,-0.08944 -0.81158,-0.392155 l -0.391423,-0.392151 v -2.899827 c 0,-2.740405 -0.01266,-2.913446 -0.230244,-3.147434 -0.168785,-0.181507 -0.229269,-0.403446 -0.226589,-0.831386 0.0022,-0.321078 0.06677,-0.664017 0.143905,-0.762083 0.07714,-0.09807 0.268333,-0.266748 0.424887,-0.374849 0.253936,-0.175347 0.690484,-0.19655 4.046593,-0.19655 h 3.761948 l 0.402931,-0.403686 0.402932,-0.40369 1.306651,4.36e-4 c 1.092006,3.49e-4 1.367085,0.03736 1.674535,0.225161 0.245234,0.14981 0.412952,0.37545 0.503073,0.676815 0.104631,0.349879 0.103365,0.548709 -0.0056,0.879486 -0.08701,0.264137 -0.279182,0.511944 -0.503073,0.64872 -0.268556,0.164061 -0.577172,0.221433 -1.192878,0.221752 -0.711078,3.44e-4 -0.848234,0.03344 -0.953184,0.229916 -0.06742,0.126214 -0.273894,0.307873 -0.458826,0.403686 -0.275139,0.142513 -0.89171,0.17417 -3.392732,0.17417 h -3.056491 v 2.606531 c 0,2.173535 -0.03128,2.67254 -0.188208,3.003892 -0.103518,0.218552 -0.334067,0.472933 -0.512341,0.565293 -0.17827,0.09236 -0.513202,0.167927 -0.74429,0.167927 z m 5.658425,-10.611613 -4.478243,4.31e-4 -1.273196,-1.239893 c -0.700261,-0.681942 -1.33844,-1.317745 -1.418179,-1.412904 -0.109714,-0.130926 -0.145027,-1.042675 -0.145171,-3.748511 l -2.31e-4,-3.575509 0.645681,-0.490187 c 0.466885,-0.354456 0.754416,-0.490191 1.038357,-0.490191 0.215972,0 0.535436,0.07396 0.709921,0.164358 0.17448,0.0904 0.379131,0.300449 0.454775,0.466781 0.07564,0.166333 0.135703,0.442714 0.133458,0.614182 -0.0022,0.171463 -0.07812,0.441511 -0.168607,0.600101 -0.128227,0.224729 -0.165425,0.836329 -0.168606,2.772075 l -0.0039,2.483727 0.608018,0.601587 0.608017,0.601587 3.968143,4.36e-4 c 3.730089,4.36e-4 3.990207,0.01391 4.336022,0.225161 0.245234,0.14981 0.412952,0.37545 0.503072,0.676815 0.104632,0.349879 0.103366,0.54871 -0.0056,0.879487 -0.08701,0.264136 -0.279182,0.511943 -0.503073,0.648719 -0.340754,0.208168 -0.628442,0.221347 -4.840526,0.221752 z"
       id="path38" />
  </g>
</svg>
