%TF.GenerationSoftware,Altium Limited,Altium Designer,21.0.9 (235)*%
G04 Layer_Physical_Order=1*
G04 Layer_Color=255*
%FSLAX45Y45*%
%MOMM*%
%TF.SameCoordinates,8DC8FD5D-391D-4D1D-91B0-353BEF3EF1A6*%
%TF.FilePolarity,Positive*%
%TF.FileFunction,Copper,L1,Top,Signal*%
%TF.Part,Single*%
G01*
G75*
%TA.AperFunction,SMDPad,CuDef*%
%ADD10R,1.50000X1.00000*%
%ADD11R,1.40000X1.75000*%
%ADD12R,1.90000X0.95000*%
%ADD13R,1.75000X1.40000*%
%ADD14R,0.95000X1.90000*%
%ADD15R,1.00000X1.50000*%
%TA.AperFunction,ConnectorPad*%
%ADD16R,1.55000X1.50000*%
%ADD17R,1.35000X0.40000*%
%TA.AperFunction,SMDPad,CuDef*%
G04:AMPARAMS|DCode=18|XSize=0.65mm|YSize=1.2mm|CornerRadius=0.04875mm|HoleSize=0mm|Usage=FLASHONLY|Rotation=270.000|XOffset=0mm|YOffset=0mm|HoleType=Round|Shape=RoundedRectangle|*
%AMROUNDEDRECTD18*
21,1,0.65000,1.10250,0,0,270.0*
21,1,0.55250,1.20000,0,0,270.0*
1,1,0.09750,-0.55125,-0.27625*
1,1,0.09750,-0.55125,0.27625*
1,1,0.09750,0.55125,0.27625*
1,1,0.09750,0.55125,-0.27625*
%
%ADD18ROUNDEDRECTD18*%
%ADD19R,1.52500X0.70000*%
%TA.AperFunction,Conductor*%
%ADD20C,1.27000*%
%ADD21C,0.50800*%
%ADD22C,0.63500*%
%ADD23C,0.38100*%
%ADD24C,0.30480*%
%TA.AperFunction,NonConductor*%
%ADD25R,1.55000X1.20001*%
%ADD26R,1.55000X1.20000*%
%TA.AperFunction,ComponentPad*%
%ADD27O,1.55000X0.90000*%
%ADD28O,0.95000X1.25000*%
%ADD29R,1.50000X1.50000*%
%ADD30C,1.50000*%
%ADD31R,1.50000X1.50000*%
%TA.AperFunction,ViaPad*%
%ADD32C,0.50800*%
D10*
X9529200Y9853289D02*
D03*
Y10013289D02*
D03*
Y10173289D02*
D03*
X10019200D02*
D03*
Y10013289D02*
D03*
Y9853289D02*
D03*
X6090640Y9818423D02*
D03*
Y9978423D02*
D03*
Y10138422D02*
D03*
X5600640D02*
D03*
Y9978423D02*
D03*
Y9818423D02*
D03*
X6070379Y11651000D02*
D03*
Y11811000D02*
D03*
Y11971000D02*
D03*
X5580379D02*
D03*
Y11811000D02*
D03*
Y11651000D02*
D03*
X2166578Y10157400D02*
D03*
Y10317400D02*
D03*
Y10477400D02*
D03*
X1676578D02*
D03*
Y10317400D02*
D03*
Y10157400D02*
D03*
X5781398Y4572000D02*
D03*
Y4412000D02*
D03*
Y4252000D02*
D03*
X6271398D02*
D03*
Y4412000D02*
D03*
Y4572000D02*
D03*
X8162200Y6243200D02*
D03*
Y6403200D02*
D03*
Y6563200D02*
D03*
X7672200D02*
D03*
Y6403200D02*
D03*
Y6243200D02*
D03*
X4496682Y5910963D02*
D03*
Y6070963D02*
D03*
Y6230963D02*
D03*
X4006682D02*
D03*
Y6070963D02*
D03*
Y5910963D02*
D03*
X6229137Y5923385D02*
D03*
Y6083385D02*
D03*
Y6243385D02*
D03*
X5739137D02*
D03*
Y6083385D02*
D03*
Y5923385D02*
D03*
D11*
X9628000Y10561787D02*
D03*
X9928000D02*
D03*
X6400800Y10515600D02*
D03*
X6100800D02*
D03*
X3328839Y10363200D02*
D03*
X3028839D02*
D03*
X5976441Y12319000D02*
D03*
X5676441D02*
D03*
X2037178Y10845719D02*
D03*
X1737178D02*
D03*
X7272400Y9014434D02*
D03*
X6972400D02*
D03*
X5912837Y3867403D02*
D03*
X6212837D02*
D03*
X8017900Y6946200D02*
D03*
X7717900D02*
D03*
X6588261Y6658076D02*
D03*
X6288261D02*
D03*
D12*
X9263338Y10925314D02*
D03*
Y10570314D02*
D03*
X7359224Y5745885D02*
D03*
Y6100885D02*
D03*
X5186638Y10480314D02*
D03*
Y10835314D02*
D03*
X5181600Y11803400D02*
D03*
Y11448400D02*
D03*
X722501Y3636203D02*
D03*
Y3991203D02*
D03*
X1175978Y10315134D02*
D03*
Y10670134D02*
D03*
X6718258Y8407700D02*
D03*
Y8762700D02*
D03*
X6628320Y4094903D02*
D03*
Y3739903D02*
D03*
D13*
X5334000Y5415000D02*
D03*
Y5715000D02*
D03*
X1313801Y1320800D02*
D03*
Y1620800D02*
D03*
X5945183Y7989157D02*
D03*
Y8289157D02*
D03*
X9499600Y5384800D02*
D03*
Y5684800D02*
D03*
X3956681Y8582800D02*
D03*
Y8282800D02*
D03*
X10134600Y6403200D02*
D03*
Y6703200D02*
D03*
X8178800Y9840422D02*
D03*
Y10140422D02*
D03*
X1397000Y6830200D02*
D03*
Y6530200D02*
D03*
X4775200Y6418076D02*
D03*
Y6718076D02*
D03*
D14*
X4044181Y8991600D02*
D03*
X3689181D02*
D03*
X7467900Y10747814D02*
D03*
X7822900D02*
D03*
X4034181Y9474200D02*
D03*
X4389181D02*
D03*
X914700Y3286759D02*
D03*
X1269700D02*
D03*
X1879300Y5867400D02*
D03*
X1524300D02*
D03*
X9753900Y7137400D02*
D03*
X10108900D02*
D03*
X5631438Y6658076D02*
D03*
X5986438D02*
D03*
X4089700D02*
D03*
X4444700D02*
D03*
D15*
X4034181Y9822400D02*
D03*
X3874181D02*
D03*
X3714182D02*
D03*
Y10312400D02*
D03*
X3874181D02*
D03*
X4034181D02*
D03*
X3282739Y8636000D02*
D03*
X3442739D02*
D03*
X3602739D02*
D03*
Y8146000D02*
D03*
X3442739D02*
D03*
X3282739D02*
D03*
X7460000Y9702800D02*
D03*
X7620000D02*
D03*
X7780000D02*
D03*
Y10192800D02*
D03*
X7620000D02*
D03*
X7460000D02*
D03*
X7592400Y8636764D02*
D03*
X7432400D02*
D03*
X7272400D02*
D03*
Y8146763D02*
D03*
X7432400D02*
D03*
X7592400D02*
D03*
X9365000Y6241000D02*
D03*
X9525000D02*
D03*
X9685000D02*
D03*
Y6731000D02*
D03*
X9525000D02*
D03*
X9365000D02*
D03*
X2242800Y6756400D02*
D03*
X2082800D02*
D03*
X1922800D02*
D03*
Y6266400D02*
D03*
X2082800D02*
D03*
X2242800D02*
D03*
D16*
X152400Y2526482D02*
D03*
Y2726482D02*
D03*
D17*
X422400Y2496482D02*
D03*
Y2561482D02*
D03*
Y2626482D02*
D03*
Y2691482D02*
D03*
Y2756482D02*
D03*
D18*
X1113801Y3903703D02*
D03*
X1373801Y3998702D02*
D03*
Y3808703D02*
D03*
D19*
X2320400Y1676400D02*
D03*
Y1803400D02*
D03*
Y1930400D02*
D03*
Y2057400D02*
D03*
Y2184400D02*
D03*
Y2311400D02*
D03*
Y2438400D02*
D03*
X1778000D02*
D03*
Y2311400D02*
D03*
Y2184400D02*
D03*
Y2057400D02*
D03*
Y1930400D02*
D03*
Y1803400D02*
D03*
Y1676400D02*
D03*
D20*
X2155077Y10490900D02*
X2166578Y10479400D01*
X2037178Y10606800D02*
Y10845719D01*
Y10606800D02*
X2153078Y10490900D01*
X2155077D01*
X2166578Y10477400D02*
Y10479400D01*
X1192611Y10316267D02*
X1675444D01*
X1192611D02*
X1698062Y10821719D01*
X1191478Y10315134D02*
X1192611Y10316267D01*
X1737178Y10828219D02*
Y10845719D01*
X1175978Y10315134D02*
X1191478D01*
X1698062Y10821719D02*
X1730678D01*
X1737178Y10828219D01*
X1675444Y10316267D02*
X1676578Y10317400D01*
X2002677Y10244224D02*
X2068254Y10309800D01*
X2166578Y9501213D02*
Y10157400D01*
X2002677Y9280234D02*
Y10244224D01*
X2158978Y10309800D02*
X2166578Y10317400D01*
X2068254Y10309800D02*
X2158978D01*
X1160477Y10315134D02*
X1175978D01*
X990600Y10145256D02*
X1160477Y10315134D01*
X990600Y9982200D02*
Y10145256D01*
X772501Y5094899D02*
Y12329501D01*
X438221Y12701805D02*
X512616Y12776200D01*
X337821Y3958483D02*
X438221Y4058882D01*
Y12701805D01*
X772501Y12329501D02*
X980439Y12537439D01*
X10117100Y6703200D02*
X10339605D01*
X10414000Y6628805D01*
Y6049600D02*
Y6628805D01*
X9901600Y5537200D02*
X10414000Y6049600D01*
X9728200Y7137400D02*
X9919400Y6946200D01*
X9728200Y7137400D02*
X10363200Y7772400D01*
X9252101Y10566050D02*
X9623736D01*
X10363200Y7772400D02*
Y10639287D01*
X10098048Y10904438D02*
X10363200Y10639287D01*
X9672873Y10775231D02*
Y10850919D01*
X9726392Y10904438D01*
X10098048D01*
X9634500Y10736859D02*
X9672873Y10775231D01*
X9628000Y10561787D02*
X9634500Y10568287D01*
Y10736859D01*
X9623736Y10566050D02*
X9628000Y10561787D01*
X8953596Y6658076D02*
Y7124796D01*
X10048000Y8219200D02*
Y9842199D01*
X8953596Y7124796D02*
X10048000Y8219200D01*
X9525000Y7137400D02*
X9728200D01*
X9525000Y6731000D02*
Y7137400D01*
X9855300Y9940113D02*
X9920876Y10005689D01*
X10019200Y9853289D02*
X10036910D01*
X10048000Y9842199D01*
X10011600Y10005689D02*
X10019200Y10013289D01*
X9920876Y10005689D02*
X10011600D01*
X10007700Y10184789D02*
Y10440789D01*
Y10184789D02*
X10019200Y10173289D01*
X9940500Y10507989D02*
Y10511787D01*
Y10507989D02*
X10007700Y10440789D01*
X9928000Y10524287D02*
Y10561787D01*
Y10524287D02*
X9940500Y10511787D01*
X9252101Y10566050D02*
X9263338Y10554814D01*
X8438952Y11379200D02*
X9252101Y10566050D01*
X9529200Y10013289D02*
Y10015289D01*
X9263338Y10188428D02*
Y10554814D01*
Y10188428D02*
X9424976Y10026789D01*
X9517700D01*
X9529200Y10015289D01*
X8407400Y11379200D02*
X8438952D01*
X7702652Y12083948D02*
X8407400Y11379200D01*
X7702652Y12083948D02*
Y12649200D01*
X5776441D02*
X7702652D01*
X9768833Y9842199D02*
X9855300Y9928666D01*
X9768833Y9701234D02*
Y9842199D01*
X9509434Y9582800D02*
X9595901Y9669266D01*
X9736866D01*
X9855300Y9928666D02*
Y9940113D01*
X9736866Y9669266D02*
X9768833Y9701234D01*
X9194800Y9582800D02*
X9509434D01*
X9010900Y9766700D02*
Y10216900D01*
Y9766700D02*
X9194800Y9582800D01*
X6685798Y11587002D02*
X7640798D01*
X9010900Y10216900D01*
X7684385Y5923385D02*
X7998300Y6237300D01*
Y6330024D02*
X8050377Y6382100D01*
X7998300Y6237300D02*
Y6330024D01*
X8094411Y6389700D02*
X8150700D01*
X6229137Y5923385D02*
X7684385D01*
X8086811Y6382100D02*
X8094411Y6389700D01*
X8050377Y6382100D02*
X8086811D01*
X3550919Y5948681D02*
Y7240805D01*
X3625314Y7315200D02*
X6903836D01*
X6941936Y7353300D01*
X3550919Y7240805D02*
X3625314Y7315200D01*
X6582409Y7707852D02*
X6592936Y7718379D01*
X3282739Y7857702D02*
X3432589Y7707852D01*
X6582409D01*
X5340500Y5721500D02*
X5503259D01*
X5334000Y5715000D02*
X5340500Y5721500D01*
X5503259D02*
X5509259Y5727500D01*
X5496948Y5415000D02*
X5501879Y5410070D01*
X5334000Y5415000D02*
X5496948D01*
X1313801Y1620800D02*
X1494252D01*
X1475301Y1314300D02*
X1481301Y1308300D01*
X1317458Y1320800D02*
X1323958Y1314300D01*
X1475301D01*
X1313801Y1320800D02*
X1317458D01*
X7359224Y6403200D02*
X7672200D01*
X7287400D02*
X7359224D01*
Y6100885D02*
Y6403200D01*
X7071142Y10747814D02*
X7467900D01*
X5951684Y8295657D02*
X6079183D01*
X5945183Y8289157D02*
X5951684Y8295657D01*
X6079183D02*
X6085183Y8301657D01*
X6066640Y7989157D02*
X6079140Y7976657D01*
X5945183Y7989157D02*
X6066640D01*
X9506100Y5691300D02*
X9722200D01*
X9728200Y5697300D01*
X9499600Y5684800D02*
X9506100Y5691300D01*
X9715700Y5384800D02*
X9728200Y5372300D01*
X9499600Y5384800D02*
X9715700D01*
X512616Y12776200D02*
X3991057D01*
X6080610Y10147606D02*
X6097823D01*
X6394300Y10444082D01*
Y10509100D02*
X6400800Y10515600D01*
X6394300Y10444082D02*
Y10509100D01*
X6089794Y10138422D02*
X6090640D01*
X6080610Y10147606D02*
X6089794Y10138422D01*
X5676441Y10577662D02*
X5738504Y10515600D01*
X6100800D01*
X5682942Y10584162D02*
X6006993Y10908214D01*
X6438027D01*
X5682941Y10584162D02*
X5682942D01*
X5676441Y10542663D02*
Y10577662D01*
X6438027Y10908214D02*
X6462627Y10932814D01*
X8178800Y10140422D02*
X8611765D01*
X8161300D02*
X8178800D01*
X6718258Y8155443D02*
Y8415200D01*
X7717900Y6946200D02*
Y7121900D01*
Y6928700D02*
Y6946200D01*
X6212837Y3867403D02*
Y3884903D01*
Y3681195D02*
Y3867403D01*
X5181600Y11811000D02*
X5580379D01*
X4956257D02*
X5181600D01*
X6886142Y10932814D02*
X7071142Y10747814D01*
X5676441Y10577662D02*
X5682941Y10584162D01*
X6462627Y10932814D02*
X6886142D01*
X5876441Y9854948D02*
X5992316Y9970823D01*
X5876441Y9764224D02*
Y9854948D01*
X5663345Y9551128D02*
X5876441Y9764224D01*
X5992316Y9970823D02*
X6079140D01*
X6086740Y9978423D01*
X6090640D01*
X4890861Y10218402D02*
X5558135Y9551128D01*
X5663345D01*
X3741718Y9474200D02*
X4034181D01*
X3679212Y9536707D02*
X3741718Y9474200D01*
X3956681Y8582800D02*
X4310758D01*
X4743195Y8150363D01*
X3311383Y8368080D02*
X3435139Y8244324D01*
X2532751Y8692768D02*
X2857439Y8368080D01*
X3311383D01*
X2532751Y8692768D02*
Y9135040D01*
X2166578Y9501213D02*
X2532751Y9135040D01*
X7820967Y7871914D02*
Y8157473D01*
X7440000Y8538440D02*
X7667776Y8310664D01*
X7746572Y7797519D02*
X7820967Y7871914D01*
X7731300Y8247140D02*
X7820967Y8157473D01*
X7679223Y8310664D02*
X7731300Y8258587D01*
X7493879Y7797519D02*
X7746572D01*
X7667776Y8310664D02*
X7679223D01*
X7731300Y8247140D02*
Y8258587D01*
X7574300Y7353300D02*
X8483600Y8262600D01*
X7414739Y7718379D02*
X7493879Y7797519D01*
X5080000Y3606800D02*
X6138442D01*
X6212837Y3681195D01*
X6022837Y5967809D02*
X6130814Y6075785D01*
X5920510Y5564910D02*
X6022837Y5667237D01*
Y5967809D01*
X6130814Y6075785D02*
X6221537D01*
X4496682Y5910963D02*
X4717155D01*
X5063208Y5564910D01*
X8611765Y10140422D02*
X8737600Y10014587D01*
Y8141600D02*
Y10014587D01*
X8953596Y6658076D02*
X9055472Y6556200D01*
Y6506776D02*
Y6556200D01*
Y6506776D02*
X9259224D01*
X9361100Y6404900D01*
X9517400Y6248600D02*
Y6339324D01*
X9361100Y6404900D02*
X9451824D01*
X9517400Y6339324D01*
X5788998Y4419600D02*
X5879722D01*
X5969000Y4508878D02*
Y4953000D01*
X5781398Y4412000D02*
X5788998Y4419600D01*
X5879722D02*
X5969000Y4508878D01*
Y4953000D02*
X6367455Y5351455D01*
X7916918D01*
X8806463Y6241000D01*
X4439476Y4572000D02*
X5781398D01*
X2438400Y6573076D02*
X4439476Y4572000D01*
X2175400Y6573076D02*
X2438400D01*
X2090400Y6658076D02*
X2175400Y6573076D01*
X2090400Y6658076D02*
Y6748800D01*
X1488300Y6756400D02*
X1922800D01*
X1414500Y6830200D02*
X1488300Y6756400D01*
X1397000Y6830200D02*
X1414500D01*
X1426800Y6335400D02*
X1459298Y6302903D01*
X1421000Y6506200D02*
Y6523700D01*
X1426800Y6335400D02*
Y6500400D01*
X1397000Y6530200D02*
X1414500D01*
X1421000Y6523700D01*
Y6506200D02*
X1426800Y6500400D01*
X7717900Y7121900D02*
X8737600Y8141600D01*
X6941936Y7353300D02*
X7574300D01*
X8483600Y8262600D02*
Y9423400D01*
X6592936Y7718379D02*
X7414739D01*
X7355958Y9214100D02*
X7592400Y8977658D01*
X7272400Y8636764D02*
Y9014434D01*
X7592400Y8636764D02*
Y8977658D01*
X7440000Y8538440D02*
Y8629164D01*
X7432400Y8636764D02*
X7440000Y8629164D01*
X5446548Y9214100D02*
X7355958D01*
X6972400Y8646342D02*
Y9014434D01*
X6741258Y8415200D02*
X6972400Y8646342D01*
X6718258Y8415200D02*
X6741258D01*
X6723338Y8150363D02*
X6850081D01*
X6718258Y8155443D02*
X6723338Y8150363D01*
X7411300Y8165864D02*
X7430400Y8146763D01*
X7359224Y8310664D02*
X7411300Y8258587D01*
X6850081Y8150363D02*
X7010381Y8310664D01*
X7411300Y8165864D02*
Y8258587D01*
X7010381Y8310664D02*
X7359224D01*
X7430400Y8146763D02*
X7432400D01*
X7739400Y9423400D02*
X8483600D01*
X7623900Y9538900D02*
X7739400Y9423400D01*
X6771550Y6919050D02*
X7009162Y6681438D01*
X7093806Y6766082D01*
X7460000Y9612076D02*
X7533176Y9538900D01*
X7460000Y9612076D02*
Y9702800D01*
X7533176Y9538900D02*
X7623900D01*
X6288261Y7035800D02*
X6533963D01*
X6650713Y6919050D01*
X6771550D01*
X4666200Y3683000D02*
X5003800D01*
X5080000Y3606800D01*
X2380200Y5969000D02*
X4666200Y3683000D01*
X1531800Y5867400D02*
X1531800Y5867400D01*
X1524300Y5867400D02*
X1531800D01*
X6628320Y4412000D02*
X7891800D01*
X9017000Y5537200D01*
X8017900Y6707500D02*
X8148700Y6576700D01*
X8150700D01*
X8162200Y6563200D02*
Y6565200D01*
X8017900Y6707500D02*
Y6946200D01*
X8150700Y6576700D02*
X8162200Y6565200D01*
X7287400Y6782082D02*
X7571282D01*
X7717900Y6928700D01*
X7009162Y6681438D02*
X7287400Y6403200D01*
X7093806Y6766082D02*
X7271400D01*
X7287400Y6782082D01*
X8150700Y6389700D02*
X8162200Y6401200D01*
X6221537Y6075785D02*
X6229137Y6083385D01*
X8162200Y6401200D02*
Y6403200D01*
X6240638Y6292953D02*
X6588261Y6640577D01*
X6240638Y6254885D02*
Y6292953D01*
X6588261Y6640577D02*
Y6658076D01*
X6229137Y6243385D02*
X6240638Y6254885D01*
X4775200Y7035800D02*
X6288261D01*
X6288996Y6670274D02*
Y7035065D01*
X6288261Y7035800D02*
X6288996Y7035065D01*
X6288261Y6658076D02*
Y6669540D01*
X6288996Y6670274D01*
X5171362Y6658076D02*
X5378357Y6451082D01*
X5171362Y6658076D02*
X5631438D01*
X4775200Y6718076D02*
X5111362D01*
X5171362Y6658076D01*
X5378357Y6353442D02*
X5634914Y6096885D01*
X5727637D01*
X5378357Y6353442D02*
Y6451082D01*
X5727637Y6096885D02*
X5739137Y6085385D01*
Y6083385D02*
Y6085385D01*
X4332782Y5997786D02*
X4398358Y6063363D01*
X4489082D02*
X4496682Y6070963D01*
X4398358Y6063363D02*
X4489082D01*
X4508182Y6244462D02*
X4584086D01*
X4496682Y6232962D02*
X4508182Y6244462D01*
X4496682Y6230963D02*
Y6232962D01*
X4757700Y6418076D02*
X4775200D01*
X4584086Y6244462D02*
X4757700Y6418076D01*
X3879399Y7035800D02*
X4775200D01*
Y6718076D02*
Y7035800D01*
X3842781Y6658076D02*
Y6999182D01*
Y6144139D02*
Y6658076D01*
X4089700D01*
X4015005Y5589805D02*
X4332782Y5907582D01*
X3909795Y5589805D02*
X4015005D01*
X3550919Y5948681D02*
X3909795Y5589805D01*
X4332782Y5907582D02*
Y5997786D01*
X3842781Y6999182D02*
X3879399Y7035800D01*
X3902458Y6084463D02*
X3995181D01*
X3842781Y6144139D02*
X3902458Y6084463D01*
X4006682Y6070963D02*
Y6072962D01*
X3995181Y6084463D02*
X4006682Y6072962D01*
X7612400Y9710400D02*
X7620000Y9702800D01*
X7612400Y9710400D02*
Y9801124D01*
X7546824Y9866700D02*
X7612400Y9801124D01*
X6853781Y9866700D02*
X7546824D01*
X7917622Y9840422D02*
X8178800D01*
X7793500Y9716300D02*
X7917622Y9840422D01*
X7793500Y9714300D02*
Y9716300D01*
X7782000Y9702800D02*
X7793500Y9714300D01*
X7780000Y9702800D02*
X7782000D01*
X7538055Y10365469D02*
X7606500Y10297024D01*
X7166961Y10736562D02*
X7538055Y10365469D01*
X7936253D02*
X8161300Y10140422D01*
X7538055Y10365469D02*
X7936253D01*
X5614093Y10480314D02*
X5676441Y10542663D01*
X7606500Y10204300D02*
Y10297024D01*
X7618001Y10192800D02*
X7620000D01*
X7606500Y10204300D02*
X7618001Y10192800D01*
X6809481Y9822400D02*
X6853781Y9866700D01*
X6116438Y9822400D02*
X6809481D01*
X6112460Y9818423D02*
X6116438Y9822400D01*
X6090640Y9818423D02*
X6112460D01*
X5186638Y10480314D02*
X5614093D01*
X4844475D02*
X5325267Y9999522D01*
X4785190Y10539600D02*
X4844475Y10480314D01*
X5186638D01*
X3234939Y9993017D02*
Y10251800D01*
X3328839Y10345700D01*
Y10363200D01*
X5325267Y9999522D02*
X5554962D01*
X3187739Y10539600D02*
X4785190D01*
X3287015Y9940940D02*
X3550662D01*
X3028839Y10380700D02*
X3187739Y10539600D01*
X3234939Y9993017D02*
X3287015Y9940940D01*
X3028839Y10363200D02*
Y10380700D01*
X3714182Y10104459D02*
Y10312400D01*
X3550662Y9940940D02*
X3714182Y10104459D01*
X4128179Y10218402D02*
X4890861D01*
X4034181Y10312400D02*
X4128179Y10218402D01*
X4627648Y10033000D02*
X5446548Y9214100D01*
X4044181Y10033000D02*
X4627648D01*
X3881781Y10195400D02*
X4044181Y10033000D01*
X3874181Y10312400D02*
X3881781Y10304800D01*
Y10195400D02*
Y10304800D01*
X2738119Y9832895D02*
Y10350474D01*
X3003613D01*
X3016339Y10363200D01*
X3028839D01*
X2738119Y9832895D02*
X3034307Y9536707D01*
X3679212D01*
X3034307D02*
X3443626Y9127387D01*
X3872182Y9822400D02*
X3874181D01*
X3860682Y9810900D02*
X3872182Y9822400D01*
X3860682Y9718176D02*
Y9810900D01*
X3679212Y9536707D02*
X3860682Y9718176D01*
X3658487Y8933970D02*
Y8964605D01*
Y8933970D02*
X3932681Y8659776D01*
X3435139Y8153600D02*
Y8244324D01*
Y8153600D02*
X3442739Y8146000D01*
X3282739Y7857702D02*
Y8146000D01*
X3584092Y9039000D02*
X3658487Y8964605D01*
X3932681Y8276300D02*
X3939182Y8282800D01*
X3798269Y8139888D02*
X3932681Y8274301D01*
X3608851Y8139888D02*
X3798269D01*
X3443626Y8636887D02*
Y9039000D01*
X3932681Y8274301D02*
Y8276300D01*
X3602739Y8146000D02*
X3608851Y8139888D01*
X3443626Y9039000D02*
X3584092D01*
X3939182Y8282800D02*
X3956681D01*
X3443626Y9039000D02*
Y9127387D01*
X3442739Y8636000D02*
X3443626Y8636887D01*
X2002677Y9280234D02*
X2242800Y9040112D01*
Y6756400D02*
Y9040112D01*
X3991057Y12776200D02*
X4956257Y11811000D01*
X5181600Y11803400D02*
Y11811000D01*
X2082800Y6756400D02*
X2090400Y6748800D01*
X990600Y9982200D02*
X990600Y6488604D01*
X1176301Y6302903D01*
X1459298D01*
X1879300Y5882900D01*
Y5867400D02*
Y5882900D01*
Y5867400D02*
X2187876D01*
X2289476Y5969000D01*
X2380200D01*
X2103900Y6154576D02*
X2289476Y5969000D01*
X2082800Y6266400D02*
X2094300Y6254900D01*
Y6200610D02*
X2103900Y6191011D01*
X2094300Y6200610D02*
Y6254900D01*
X2103900Y6154576D02*
Y6191011D01*
X5504469Y11135760D02*
X5906479Y11537770D01*
X4826000Y11260955D02*
X4951195Y11135760D01*
X5504469D01*
X4826000Y11260955D02*
Y11578120D01*
X3866681Y12537439D02*
X4826000Y11578120D01*
X980439Y12537439D02*
X3866681D01*
X772501Y5094899D02*
X3124200Y2743200D01*
Y2438400D02*
Y2743200D01*
X2616200Y1930400D02*
X3124200Y2438400D01*
X5792898Y4238500D02*
X5794898D01*
X5781398Y4250000D02*
X5792898Y4238500D01*
X5912837Y3867403D02*
Y4120561D01*
X5794898Y4238500D02*
X5912837Y4120561D01*
X5781398Y4250000D02*
Y4252000D01*
X6612820Y4094903D02*
X6628320D01*
X6409320Y3891403D02*
X6612820Y4094903D01*
X6219337Y3891403D02*
X6409320D01*
X6212837Y3884903D02*
X6219337Y3891403D01*
X6271398Y4412000D02*
X6628320D01*
Y4094903D02*
Y4412000D01*
X8806463Y6241000D02*
X9365000D01*
X9517400Y6248600D02*
X9525000Y6241000D01*
X9687000D02*
X9849200Y6403200D01*
X10134600D01*
X9685000Y6241000D02*
X9687000D01*
X9919400Y6900900D02*
Y6946200D01*
Y6900900D02*
X10117100Y6703200D01*
X6621800Y11651000D02*
X6685798Y11587002D01*
X5676441Y12319000D02*
Y12549200D01*
X5776441Y12649200D01*
X6058879Y11984500D02*
X6070379Y11973000D01*
Y11971000D02*
Y11973000D01*
X5976441Y12064938D02*
Y12319000D01*
Y12064938D02*
X6056879Y11984500D01*
X6058879D01*
X5181600Y11811000D02*
Y12192000D01*
X5308600Y12319000D02*
X5676441D01*
X5181600Y12192000D02*
X5308600Y12319000D01*
X5906479Y11537770D02*
Y11737824D01*
X5580379Y11649000D02*
Y11651000D01*
X6062779Y11803400D02*
X6070379Y11811000D01*
X5972055Y11803400D02*
X6062779D01*
X5906479Y11737824D02*
X5972055Y11803400D01*
X6070379Y11651000D02*
X6621800D01*
X1129568Y4242935D02*
X1373801Y3998702D01*
X738001Y3991203D02*
X989734Y4242935D01*
X1129568D01*
X722501Y3991203D02*
X738001D01*
X337821Y3958483D02*
X674281D01*
X707001Y3991203D01*
X722501D01*
D21*
X607762Y1939339D02*
X1073901Y1473200D01*
X1930400D01*
X607762Y1939339D02*
Y2523169D01*
X1935718Y3078718D02*
X2066400D01*
X1778000Y2921000D02*
X1935718Y3078718D01*
X2064522Y2826597D02*
X2269550Y2621568D01*
Y2448000D02*
Y2621568D01*
X2320400Y2683400D02*
Y2824718D01*
X1269700Y3479881D02*
X1313801Y3523982D01*
X1269700Y3286759D02*
Y3479881D01*
X1339201Y3774102D02*
Y3801603D01*
X1313801Y3748703D02*
X1339201Y3774102D01*
X1346301Y3808703D02*
X1373801D01*
X1339201Y3801603D02*
X1346301Y3808703D01*
X1313801Y3523982D02*
Y3748703D01*
X1523501Y2020461D02*
Y3671503D01*
Y2020461D02*
X1608774Y1935189D01*
X1386301Y3808703D02*
X1523501Y3671503D01*
X1778000Y2438400D02*
Y2921000D01*
Y2184400D02*
X2004781D01*
X1930400Y1473200D02*
X2034539Y1577339D01*
X2004781Y2184400D02*
X2034539Y2154642D01*
Y1577339D02*
Y2154642D01*
X1608774Y1935189D02*
X1773211D01*
X1778000Y1930400D01*
X2396700Y2311400D02*
X2434042D01*
X2463800Y2341158D02*
Y2540000D01*
X2434042Y2311400D02*
X2463800Y2341158D01*
X2320400Y2683400D02*
X2463800Y2540000D01*
X2269550Y2448000D02*
X2279150Y2438400D01*
X2320400D01*
D22*
X9017000Y5537200D02*
X9901600D01*
X4743195Y8150363D02*
X6723338D01*
X5063208Y5564910D02*
X5920510D01*
X2491900Y1806100D02*
X2616200Y1930400D01*
X2320400Y1803400D02*
X2323101Y1806100D01*
X2491900D01*
X607762Y2691482D02*
X1092200Y3175921D01*
Y3703703D01*
D23*
X1303345Y3890752D02*
X1494252D01*
X1243795Y3831203D02*
X1303345Y3890752D01*
X1219700Y3831203D02*
X1243795D01*
X1494252Y3890752D02*
X1608774Y3776230D01*
X1092200Y3703703D02*
X1219700Y3831203D01*
X1764331Y2325069D02*
X1778000Y2311400D01*
X1699259Y2325069D02*
X1764331D01*
X1608774Y2415554D02*
X1699259Y2325069D01*
X422950Y2625932D02*
X508312D01*
X607762Y2526482D01*
X1608774Y2415554D02*
Y3776230D01*
X422400Y2626482D02*
X422950Y2625932D01*
D24*
X422400Y2691482D02*
X607762D01*
D25*
X152400Y2336478D02*
D03*
D26*
X152399Y2916479D02*
D03*
D27*
X152400Y2976482D02*
D03*
Y2276482D02*
D03*
D28*
X422400Y2876482D02*
D03*
Y2376482D02*
D03*
D29*
X337821Y3958483D02*
D03*
D30*
Y3704483D02*
D03*
X2320400Y3078718D02*
D03*
Y2824718D02*
D03*
X2066400Y3078718D02*
D03*
D31*
Y2824718D02*
D03*
D32*
X5509259Y5727500D02*
D03*
X5501879Y5410070D02*
D03*
X1494252Y1620800D02*
D03*
X1481301Y1308300D02*
D03*
X6085183Y8301657D02*
D03*
X6079140Y7976657D02*
D03*
X9728200Y5697300D02*
D03*
Y5372300D02*
D03*
%TF.MD5,fd0970d4ebed3439da4f873463c82101*%
M02*
