<?xml version="1.0" encoding="UTF-8" standalone="no"?>
<svg
   xmlns:osb="http://www.openswatchbook.org/uri/2009/osb"
   xmlns:dc="http://purl.org/dc/elements/1.1/"
   xmlns:cc="http://creativecommons.org/ns#"
   xmlns:rdf="http://www.w3.org/1999/02/22-rdf-syntax-ns#"
   xmlns:svg="http://www.w3.org/2000/svg"
   xmlns="http://www.w3.org/2000/svg"
   xmlns:xlink="http://www.w3.org/1999/xlink"
   xmlns:sodipodi="http://sodipodi.sourceforge.net/DTD/sodipodi-0.dtd"
   xmlns:inkscape="http://www.inkscape.org/namespaces/inkscape"
   width="195.90964mm"
   height="145.92302mm"
   viewBox="0 0 195.90964 145.92302"
   version="1.1"
   id="svg8"
   sodipodi:docname="logo.svg"
   inkscape:version="1.0.2 (e86c870879, 2021-01-15)"
   inkscape:export-filename="C:\Users\Vmaxi\Dropbox\FabAc\maxime-verstraeten\docs\files\Inkscape\logo.png"
   inkscape:export-xdpi="96"
   inkscape:export-ydpi="96">
  <defs
     id="defs2">
    <linearGradient
       inkscape:collect="always"
       id="linearGradient1426">
      <stop
         style="stop-color:#0000ff;stop-opacity:1;"
         offset="0"
         id="stop1422" />
      <stop
         style="stop-color:#0000ff;stop-opacity:0;"
         offset="1"
         id="stop1424" />
    </linearGradient>
    <rect
       x="65.213768"
       y="53.453903"
       width="135.57837"
       height="31.559101"
       id="rect963" />
    <linearGradient
       id="linearGradient837"
       osb:paint="solid">
      <stop
         style="stop-color:#4d4d4d;stop-opacity:1;"
         offset="0"
         id="stop835" />
    </linearGradient>
    <linearGradient
       inkscape:collect="always"
       xlink:href="#linearGradient1426"
       id="linearGradient1428"
       x1="29.065178"
       y1="134.5063"
       x2="187.31117"
       y2="134.5063"
       gradientUnits="userSpaceOnUse" />
  </defs>
  <sodipodi:namedview
     id="base"
     pagecolor="#ffffff"
     bordercolor="#666666"
     borderopacity="1.0"
     inkscape:pageopacity="1"
     inkscape:pageshadow="2"
     inkscape:zoom="0.98994949"
     inkscape:cx="147.586"
     inkscape:cy="257.39358"
     inkscape:document-units="mm"
     inkscape:current-layer="layer1"
     inkscape:document-rotation="0"
     showgrid="false"
     inkscape:snap-text-baseline="true"
     inkscape:window-width="1920"
     inkscape:window-height="1017"
     inkscape:window-x="1016"
     inkscape:window-y="192"
     inkscape:window-maximized="1"
     inkscape:pagecheckerboard="true" />
  <metadata
     id="metadata5">
    <rdf:RDF>
      <cc:Work
         rdf:about="">
        <dc:format>image/svg+xml</dc:format>
        <dc:type
           rdf:resource="http://purl.org/dc/dcmitype/StillImage" />
        <dc:title></dc:title>
      </cc:Work>
    </rdf:RDF>
  </metadata>
  <g
     inkscape:label="Layer 1"
     inkscape:groupmode="layer"
     id="layer1"
     transform="translate(-13.490781,-13.869714)">
    <ellipse
       style="fill:none;fill-opacity:1;fill-rule:evenodd;stroke:#000000;stroke-width:2.95315;stroke-miterlimit:4;stroke-dasharray:none;stroke-opacity:1"
       id="path10"
       ry="55.899799"
       rx="75.677742"
       cy="94.078865"
       cx="108.51144" />
    <path
       style="fill:none;stroke:#000000;stroke-width:0.264583px;stroke-linecap:butt;stroke-linejoin:miter;stroke-opacity:1"
       d="m 166.50891,58.532027 c 0,0 0,2.138156 11.75986,-3.207234 11.75986,-5.345393 17.63979,-24.588797 17.63979,-24.588797 l 4.81085,-13.363477"
       id="path897" />
    <path
       style="fill:none;stroke:#000000;stroke-width:0.264583px;stroke-linecap:butt;stroke-linejoin:miter;stroke-opacity:1"
       d="m 175.06545,68.70046 c 0,0 0,2.138156 11.75986,-3.207234 11.75986,-5.345393 17.63979,-24.588797 17.63979,-24.588797 l 4.81085,-13.363477"
       id="path897-8" />
    <path
       style="fill:none;stroke:#000000;stroke-width:0.256323px;stroke-linecap:butt;stroke-linejoin:miter;stroke-opacity:1"
       d="m 54.534486,55.874783 c 0,0 0,2.138499 -11.0353,-3.207749 -11.0353,-5.34625 -16.55295,-24.592741 -16.55295,-24.592741 L 22.431797,14.708674"
       id="path897-8-6" />
    <path
       style="fill:none;stroke:#000000;stroke-width:0.256323px;stroke-linecap:butt;stroke-linejoin:miter;stroke-opacity:1"
       d="m 45.714892,63.893072 c 0,0 0,2.138499 -11.0353,-3.207749 -11.0353,-5.34625 -16.55295,-24.592741 -16.55295,-24.592741 l -4.514439,-13.36562"
       id="path897-8-6-3" />
    <text
       xml:space="preserve"
       id="text961"
       style="font-style:normal;font-variant:normal;font-weight:normal;font-stretch:normal;font-size:22.5778px;line-height:1.25;font-family:sans-serif;-inkscape-font-specification:'sans-serif, Normal';font-variant-ligatures:normal;font-variant-caps:normal;font-variant-numeric:normal;font-variant-east-asian:normal;white-space:pre;shape-inside:url(#rect963);fill:#3cc8ff;fill-opacity:1;stroke:none;stroke-width:2;stroke-miterlimit:4;stroke-dasharray:none;"
       transform="translate(-8.7851647,-1.7778239)"><tspan
         x="65.212891"
         y="74.051537"><tspan
           style="fill:#3cc8ff;fill-opacity:1">NeBIMoD</tspan></tspan></text>
    <path
       style="fill:none;stroke:#000000;stroke-width:0.264583px;stroke-linecap:butt;stroke-linejoin:miter;stroke-opacity:1"
       d="m 32.805646,92.422091 c 0,0 12.851191,-21.922618 26.269344,-12.851191 13.418156,9.07143 24.190478,26.11215 37.986607,7.9375 13.796133,-18.174652 28.915183,-10.583333 33.072913,-4.535713 4.15774,6.047619 27.40328,24.001483 31.75,6.80357 4.34673,-17.197916 17.95387,-14.363094 17.95387,-14.363094"
       id="path967" />
    <path
       style="fill:#5dd6ea;fill-opacity:1;stroke:#000000;stroke-width:1.42857;stroke-miterlimit:4;stroke-dasharray:none;stroke-opacity:1"
       d="M 101.97138,148.19939 C 86.180357,147.15265 71.109246,142.33693 59.165571,134.52152 49.909443,128.46472 43.050226,121.00284 38.84384,112.41431 35.700657,105.9966 34.246933,99.572431 34.451604,93.004502 l 0.08659,-2.778855 1.042382,-1.378884 c 3.557513,-4.705953 7.4819,-8.181753 11.148094,-9.87379 2.054789,-0.948333 3.575891,-1.300882 5.633326,-1.30565 3.468804,-0.008 5.823156,1.219629 11.981923,6.247916 7.383751,6.028423 8.800267,7.143443 10.50766,8.271179 3.791204,2.504102 6.537108,3.503991 9.612288,3.500202 2.682537,-0.0033 4.590098,-0.616408 6.991356,-2.247069 1.800259,-1.222534 3.30899,-2.728674 5.887278,-5.877176 4.925759,-6.015138 8.904739,-9.01659 13.927199,-10.505657 2.0611,-0.611079 5.37851,-0.813157 7.56879,-0.46105 4.34566,0.698603 8.46803,3.096456 10.97407,6.383261 3.14726,4.127775 9.6045,9.207505 15.0591,11.846562 3.75791,1.818154 6.39183,2.47749 9.33162,2.33593 1.5561,-0.07493 2.05893,-0.182224 3.06882,-0.654807 1.39581,-0.653177 2.73418,-1.909133 3.54244,-3.324296 0.3109,-0.544354 0.87273,-2.01027 1.24851,-3.25759 1.62689,-5.400156 3.0409,-7.980979 5.78926,-10.566439 2.4237,-2.280047 5.36405,-3.560795 8.77894,-3.823899 l 1.52151,-0.117226 0.98975,2.318588 c 2.53032,5.927532 3.57772,11.380992 3.37549,17.575136 -0.11943,3.65788 -0.42664,5.830862 -1.27786,9.038642 -5.96258,22.46987 -30.51394,39.84398 -61.3149,43.39034 -5.70768,0.65717 -12.39144,0.82824 -17.95386,0.45952 z"
       id="path969" />
    <text
       xml:space="preserve"
       style="font-style:normal;font-variant:normal;font-weight:normal;font-stretch:normal;font-size:7.05556px;line-height:1.25;font-family:'Arial Rounded MT Bold';-inkscape-font-specification:'Arial Rounded MT Bold, Normal';font-variant-ligatures:normal;font-variant-caps:normal;font-variant-numeric:normal;font-variant-east-asian:normal;fill:#005dff;fill-opacity:1;stroke:none;stroke-width:0.298895;stroke-opacity:1"
       id="text973"><textPath
         xlink:href="#path1172"
         id="textPath1176"
         style="fill:#005dff;fill-opacity:1;stroke:none;stroke-opacity:1">A Novel Neurogenic Bladder Implantable  Monitoring Device</textPath></text>
    <circle
       style="fill:none;fill-opacity:1;stroke:none;stroke-width:0.732796;stroke-miterlimit:4;stroke-dasharray:none;stroke-opacity:1"
       id="path1172"
       sodipodi:type="arc"
       sodipodi:cx="-111.01928"
       sodipodi:cy="109.41065"
       sodipodi:rx="78.963646"
       sodipodi:ry="48.964596"
       sodipodi:start="0"
       sodipodi:end="3.1327438"
       sodipodi:open="true"
       sodipodi:arc-type="arc"
       d="m -32.055634,109.41065 a 78.963646,48.964596 0 0 1 -78.614276,48.96412 78.963646,48.964596 0 0 1 -79.30992,-48.53084"
       transform="matrix(-0.99999938,-0.00110909,-0.02568839,0.99967,0,0)" />
    <rect
       style="fill:none;fill-opacity:1;stroke:#040000;stroke-width:0.762;stroke-miterlimit:4;stroke-dasharray:none;stroke-opacity:1"
       id="rect1430"
       width="11.759859"
       height="10.958051"
       x="144.04247"
       y="-42.640278"
       transform="rotate(26.75622)" />
    <rect
       style="fill:none;fill-opacity:1;stroke:#040000;stroke-width:0.762;stroke-miterlimit:4;stroke-dasharray:none;stroke-opacity:1"
       id="rect1432"
       width="0.50072938"
       height="7.2428026"
       x="145.17441"
       y="-37.331703"
       transform="rotate(29.038225)"
       inkscape:transform-center-x="0.90444639"
       inkscape:transform-center-y="-2.3687463" />
    <rect
       style="fill:none;fill-opacity:1;stroke:#040000;stroke-width:0.762;stroke-miterlimit:4;stroke-dasharray:none;stroke-opacity:1"
       id="rect1432-9"
       width="0.50072938"
       height="7.2428026"
       x="147.5808"
       y="-37.35479"
       transform="rotate(29.038225)"
       inkscape:transform-center-x="0.90444639"
       inkscape:transform-center-y="-2.3687463" />
    <rect
       style="fill:none;fill-opacity:1;stroke:#040000;stroke-width:0.762;stroke-miterlimit:4;stroke-dasharray:none;stroke-opacity:1"
       id="rect1432-6"
       width="0.50072938"
       height="7.2428026"
       x="149.69644"
       y="-37.19194"
       transform="rotate(29.038225)"
       inkscape:transform-center-x="0.90444639"
       inkscape:transform-center-y="-2.3687463" />
    <circle
       style="opacity:0.986395;fill:none;fill-opacity:1;stroke:#040000;stroke-width:0.762;stroke-miterlimit:4;stroke-dasharray:none;stroke-opacity:1"
       id="path1463"
       sodipodi:type="arc"
       sodipodi:cx="-149.7187"
       sodipodi:cy="46.447483"
       sodipodi:rx="10.690781"
       sodipodi:ry="6.2808337"
       sodipodi:start="0"
       sodipodi:end="3.1327438"
       sodipodi:open="true"
       sodipodi:arc-type="arc"
       d="m -139.02792,46.447483 a 10.690781,6.2808337 0 0 1 -10.64348,6.280772 10.690781,6.2808337 0 0 1 -10.73767,-6.225194"
       transform="rotate(-151.67479)" />
    <circle
       style="opacity:0.612245;fill:none;fill-opacity:1;stroke:#040000;stroke-width:1.01845;stroke-miterlimit:4;stroke-dasharray:none;stroke-opacity:1"
       id="path1463-7"
       sodipodi:type="arc"
       sodipodi:cx="-151.35632"
       sodipodi:cy="50.45768"
       sodipodi:rx="14.205127"
       sodipodi:ry="8.4440928"
       sodipodi:start="0"
       sodipodi:end="3.1327438"
       sodipodi:open="true"
       sodipodi:arc-type="arc"
       transform="matrix(-0.87597494,-0.48235661,0.46664898,-0.88444261,0,0)"
       d="m -137.1512,50.45768 a 14.205127,8.4440928 0 0 1 -14.14227,8.44401 14.205127,8.4440928 0 0 1 -14.26742,-8.369291" />
    <circle
       style="opacity:0.204082;fill:none;fill-opacity:1;stroke:#040000;stroke-width:1.1875;stroke-miterlimit:4;stroke-dasharray:none;stroke-opacity:1"
       id="path1463-7-6"
       sodipodi:type="arc"
       sodipodi:cx="-148.78317"
       sodipodi:cy="45.577835"
       sodipodi:rx="17.191038"
       sodipodi:ry="9.4860201"
       sodipodi:start="0"
       sodipodi:end="3.1327438"
       sodipodi:open="true"
       sodipodi:arc-type="arc"
       transform="matrix(-0.90125766,-0.43328354,0.5172179,-0.85585375,0,0)"
       d="m -131.59213,45.577835 a 17.191038,9.4860201 0 0 1 -17.11498,9.485927 17.191038,9.4860201 0 0 1 -17.26643,-9.401988" />
  </g>
</svg>
