<svg xmlns="http://www.w3.org/2000/svg" xmlns:xlink="http://www.w3.org/1999/xlink" xmlns:lucid="lucid" width="1973.5" height="1292.5"><g transform="translate(591 -47.5)" lucid:page-tab-id="0_0"><path d="M-1806.87 0h3677.74v1322.83h-3677.74z" fill="#fff"/><path d="M80 903c0 14.9-80.6 27-180 27s-180-12.1-180-27V687c0-14.9 80.6-27 180-27s180 12.1 180 27z" stroke="#5e5e5e" stroke-width="3" fill="#fff"/><path d="M80 687c0 14.9-80.6 27-180 27s-180-12.1-180-27" stroke="#5e5e5e" stroke-width="3" fill="none"/><use xlink:href="#a" transform="matrix(1,0,0,1,-275,719) translate(81.94444444444443 30.65277777777778)"/><use xlink:href="#b" transform="matrix(1,0,0,1,-275,719) translate(176.8827160493827 30.65277777777778)"/><use xlink:href="#c" transform="matrix(1,0,0,1,-275,719) translate(175 57.31944444444445)"/><use xlink:href="#c" transform="matrix(1,0,0,1,-275,719) translate(175 83.98611111111111)"/><use xlink:href="#c" transform="matrix(1,0,0,1,-275,719) translate(175 110.6527777777778)"/><use xlink:href="#c" transform="matrix(1,0,0,1,-275,719) translate(175 137.31944444444446)"/><use xlink:href="#c" transform="matrix(1,0,0,1,-275,719) translate(175 163.98611111111111)"/><use xlink:href="#d" transform="matrix(1,0,0,1,-275,719) translate(175.005 190.65277777777777)"/><path d="M660 106c0-3.3 2.7-6 6-6h248c3.3 0 6 2.7 6 6v438c0 3.3-2.7 6-6 6H666c-3.3 0-6-2.7-6-6zM180 226c0-3.3 2.7-6 6-6h148c3.3 0 6 2.7 6 6v108c0 3.3-2.7 6-6 6H186c-3.3 0-6-2.7-6-6z" stroke="#5e5e5e" stroke-width="3" fill="#fff"/><use xlink:href="#e" transform="matrix(1,0,0,1,192,232) translate(26.055555555555557 53.77777777777778)"/><path d="M710 826c0-3.3 2.7-6 6-6h148c3.3 0 6 2.7 6 6v108c0 3.3-2.7 6-6 6H716c-3.3 0-6-2.7-6-6z" stroke="#5e5e5e" stroke-width="3" fill="#fff"/><use xlink:href="#f" transform="matrix(1,0,0,1,722,832) translate(33.4320987654321 53.77777777777778)"/><path d="M28 240c17.67 0 32 17.9 32 40s-14.33 40-32 40h-96c-17.67 0-32-17.9-32-40s14.33-40 32-40z" stroke="#5e5e5e" stroke-width="3" fill="#fff"/><use xlink:href="#g" transform="matrix(1,0,0,1,-95,245) translate(29.32598765432099 26.52777777777778)"/><use xlink:href="#h" transform="matrix(1,0,0,1,-95,245) translate(75.005 26.52777777777778)"/><use xlink:href="#i" transform="matrix(1,0,0,1,-95,245) translate(26.270432098765426 53.19444444444445)"/><path d="M62.5 280H160" stroke="#5e5e5e" stroke-width="2" fill="none"/><path d="M62.53 281h-1.1l.07-.98-.03-1.02h1.06z" fill="#5e5e5e"/><path d="M175.26 280L161 284.64v-9.28z" stroke="#5e5e5e" stroke-width="2" fill="#5e5e5e"/><path d="M1180 806c0-3.3 2.7-6 6-6h148c3.3 0 6 2.7 6 6v108c0 3.3-2.7 6-6 6h-148c-3.3 0-6-2.7-6-6z" stroke="#5e5e5e" stroke-width="3" fill="#fff"/><path d="M1196 800v120m128-120v120" stroke="#5e5e5e" stroke-width="3" fill="none"/><use xlink:href="#j" transform="matrix(1,0,0,1,1205,805) translate(34.93827160493827 46.111111111111114)"/><use xlink:href="#k" transform="matrix(1,0,0,1,1205,805) translate(21.69753086419753 72.77777777777777)"/><path d="M255.2 103.6c2.65-2 6.95-2 9.6 0l70.4 52.8c2.65 2 2.65 5.2 0 7.2l-70.4 52.8c-2.65 2-6.95 2-9.6 0l-70.4-52.8c-2.65-2-2.65-5.2 0-7.2z" stroke="#5e5e5e" stroke-width="3" fill="#fff"/><use xlink:href="#l" transform="matrix(1,0,0,1,185,105) translate(54.94327160493827 59.02777777777778)"/><path d="M255.2 343.6c2.65-2 6.95-2 9.6 0l70.4 52.8c2.65 2 2.65 5.2 0 7.2l-70.4 52.8c-2.65 2-6.95 2-9.6 0l-70.4-52.8c-2.65-2-2.65-5.2 0-7.2z" stroke="#5e5e5e" stroke-width="3" fill="#fff"/><use xlink:href="#m" transform="matrix(1,0,0,1,185,345) translate(57.751913580246914 59.02777777777778)"/><path d="M360 106c0-3.3 2.7-6 6-6h148c3.3 0 6 2.7 6 6v108c0 3.3-2.7 6-6 6H366c-3.3 0-6-2.7-6-6z" stroke="#5e5e5e" stroke-width="3" fill="#fff"/><use xlink:href="#n" transform="matrix(1,0,0,1,372,112) translate(25.113482777777776 39.64448)"/><use xlink:href="#o" transform="matrix(1,0,0,1,372,112) translate(70.688895 39.64448)"/><use xlink:href="#p" transform="matrix(1,0,0,1,372,112) translate(19.138160555555544 63.111200000000004)"/><path d="M360 346c0-3.3 2.7-6 6-6h148c3.3 0 6 2.7 6 6v108c0 3.3-2.7 6-6 6H366c-3.3 0-6-2.7-6-6z" stroke="#5e5e5e" stroke-width="3" fill="#fff"/><use xlink:href="#n" transform="matrix(1,0,0,1,372,352) translate(21.88137666666666 39.64448)"/><use xlink:href="#q" transform="matrix(1,0,0,1,372,352) translate(67.4567888888889 39.64448)"/><use xlink:href="#r" transform="matrix(1,0,0,1,372,352) translate(21.8542161111111 63.111200000000004)"/><g fill="none"><path d="M910 360v160h-80V360z"/><path d="M870 360v36l12 8-24 12 24 12-24 12 24 12-24 12 24 12-24 12 12 8v24" stroke="#5e5e5e" stroke-width="3"/><path d="M854 376l28 128v-14.4m0 14.4l-6.4-12.8" stroke="#5e5e5e" stroke-width="3"/></g><use xlink:href="#s" transform="matrix(6.123233995736766e-17,1,-1,6.123233995736766e-17,842,360) translate(39.01234567901234 19.444444444444443)"/><use xlink:href="#t" transform="matrix(6.123233995736766e-17,1,-1,6.123233995736766e-17,842,360) translate(61.172839506172835 19.444444444444443)"/><use xlink:href="#u" transform="matrix(6.123233995736766e-17,1,-1,6.123233995736766e-17,842,360) translate(104.38271604938272 19.444444444444443)"/><g fill="none"><path d="M760 140v160h-80V140z"/><path d="M720 140v36l12 8-24 12 24 12-24 12 24 12-24 12 24 12-24 12 12 8v24" stroke="#5e5e5e" stroke-width="3"/></g><use xlink:href="#s" transform="matrix(6.123233995736766e-17,1,-1,6.123233995736766e-17,692,140) translate(39.01234567901234 19.444444444444443)"/><use xlink:href="#t" transform="matrix(6.123233995736766e-17,1,-1,6.123233995736766e-17,692,140) translate(61.172839506172835 19.444444444444443)"/><use xlink:href="#u" transform="matrix(6.123233995736766e-17,1,-1,6.123233995736766e-17,692,140) translate(104.38271604938272 19.444444444444443)"/><g fill="none"><path d="M910 140v160h-80V140z"/><path d="M870 140v36l12 8-24 12 24 12-24 12 24 12-24 12 24 12-24 12 12 8v24" stroke="#5e5e5e" stroke-width="3"/></g><use xlink:href="#v" transform="matrix(6.123233995736766e-17,1,-1,6.123233995736766e-17,842,140) translate(38.425925925925924 19.444444444444443)"/><use xlink:href="#w" transform="matrix(6.123233995736766e-17,1,-1,6.123233995736766e-17,842,140) translate(60.58641975308642 19.444444444444443)"/><use xlink:href="#x" transform="matrix(6.123233995736766e-17,1,-1,6.123233995736766e-17,842,140) translate(103.7962962962963 19.444444444444443)"/><g fill="none"><path d="M760 340v160h-80V340z"/><path d="M720 340v36l12 8-24 12 24 12-24 12 24 12-24 12 24 12-24 12 12 8v24" stroke="#5e5e5e" stroke-width="3"/></g><use xlink:href="#v" transform="matrix(6.123233995736766e-17,1,-1,6.123233995736766e-17,692,340) translate(38.425925925925924 19.444444444444443)"/><use xlink:href="#w" transform="matrix(6.123233995736766e-17,1,-1,6.123233995736766e-17,692,340) translate(60.58641975308642 19.444444444444443)"/><use xlink:href="#x" transform="matrix(6.123233995736766e-17,1,-1,6.123233995736766e-17,692,340) translate(103.7962962962963 19.444444444444443)"/><path d="M720 300" stroke="#5e5e5e" stroke-width="2" fill="none"/><path fill="#5e5e5e"/><path fill="#5e5e5e"/><path d="M720 339v-38" stroke="#5e5e5e" stroke-width="2" fill="none"/><path d="M721 340h-2v-1.03h2zM721 301.03h-2V300h2z" fill="#5e5e5e"/><path d="M870 301v58" stroke="#5e5e5e" stroke-width="2" fill="none"/><path d="M871 301.03h-2V300h2zM871 360h-2v-1.03h2z" fill="#5e5e5e"/><path d="M789.14 99l-68.28 40.5" stroke="#5e5e5e" stroke-width="2" fill="none"/><path d="M793.1 97.83l-1.14.67h-3.15l-.2-.34 3.47-2.05zM721.2 140h-2.7v2.05l-.57.34-1.02-1.73 3.47-2.05z" fill="#5e5e5e"/><path d="M790.9 98.96l78.2 40.58" stroke="#5e5e5e" stroke-width="2" fill="none"/><path d="M791.37 98.08l-.2.42h-3.34l-.95-.5.92-1.77zM873.12 140.5l-.92 1.77-.7-.37V140h-2.66l.7-1.36z" fill="#5e5e5e"/><path d="M790.93 551.13l78.14-30.76" stroke="#5e5e5e" stroke-width="2" fill="none"/><path d="M791.32 552.05l-3.75 1.48-.73-1.86.43-.17h3.83zM873.16 519.83l-3.75 1.48-.5-1.3h2.6v-1.67l.93-.36z" fill="#5e5e5e"/><path d="M789.2 550.9l-68.4-50.3" stroke="#5e5e5e" stroke-width="2" fill="none"/><path d="M793 552.47l-1.18 1.6-3.24-2.37.15-.2h2.96zM718.5 497.65V500h2.77l-1.04 1.4-3.24-2.37 1.18-1.6z" fill="#5e5e5e"/><path d="M522.5 160h33c3.3 0 6-2.7 6-6V64.5c0-3.3 2.7-6 6-6H784c3.3 0 6 2.7 6 6v33" stroke="#5e5e5e" stroke-width="2" fill="none"/><path d="M522.53 161h-1.03v-2h1.03zM791 98.5h-2v-1.03h2z" fill="#5e5e5e"/><path d="M522.5 400h33c3.3 0 6 2.7 6 6v179.5c0 3.3 2.7 6 6 6H784c3.3 0 6-2.7 6-6v-33" stroke="#5e5e5e" stroke-width="2" fill="none"/><path d="M522.53 401h-1.03v-2h1.03zM791 552.53h-2v-1.03h2z" fill="#5e5e5e"/><path d="M920 220v200h40V220z" fill="none"/><path d="M940 220l160 100-160 100zM1096 320h24M1020 366v54M1020 274v-54M920 260h24M920 380h24M950 260h14m-7-7v14m-7 113h14M1160 260.67c0-3.32 2.7-6 6-6h148c3.3 0 6 2.68 6 6v118.66c0 3.32-2.7 6-6 6h-148c-3.3 0-6-2.68-6-6z" stroke="#5e5e5e" stroke-width="3" fill="#fff"/><use xlink:href="#y" transform="matrix(1,0,0,1,1172,266.66666666666663) translate(16.240740740740733 17.77777777777778)"/><use xlink:href="#z" transform="matrix(1,0,0,1,1172,266.66666666666663) translate(47.10493827160494 44.44444444444444)"/><use xlink:href="#c" transform="matrix(1,0,0,1,1172,266.66666666666663) translate(68 71.11111111111111)"/><use xlink:href="#d" transform="matrix(1,0,0,1,1172,266.66666666666663) translate(68 97.77777777777777)"/><path d="M1159.5 320h87.38" stroke="#5e5e5e" stroke-width="2" fill="none"/><path d="M1159.53 319v2h-1.03v-2z" fill="#5e5e5e"/><path d="M1246.86 320h1.02M1320.38 380.17l-72.08-59.82" stroke="#5e5e5e" stroke-width="2" fill="none"/><path d="M1321.44 379.75l-.57 2.12-1.14-.95 1.27-1.53z" fill="#5e5e5e"/><path d="M1248.32 320.36l-.8-.65" stroke="#5e5e5e" stroke-width="2" fill="none"/><path d="M195.32 711c-3.27.55-5.92 3.7-5.92 7v18c0 3.3 2.65 6.45 5.92 7l58.76 10c3.27.55 5.92-1.7 5.92-5v-42c0-3.3-2.65-5.55-5.92-5zM207.1 709v-9m-5.9 0h11.7M242.4 751v9m-5.9 0h11.7" stroke="#5e5e5e" stroke-width="2" fill="#fff"/><path d="M189.4 730H160v-6h29.4z" stroke="#5e5e5e" stroke-width="2" fill="#ccc"/><use xlink:href="#A" transform="matrix(1,0,0,1,130,765) translate(38.67283950617284 24.444444444444443)"/><path d="M-156 844c-13.25 0-24-10.75-24-24 0-10.6 6.5-19.55 16.58-22.83C-164 766-124 760-108 772c8-18 48-12 48 6 24-6 48 18 32 48 16 24 0 54-32 42-8 15.6-40 15.6-48 0-16 12-48 6-48-24z" stroke="#5e5e5e" stroke-width="3" fill="#fff"/><use xlink:href="#B" transform="matrix(1,0,0,1,-175,765) translate(29.086419753086425 59.02777777777778)"/><path d="M215.32 881c-3.27.55-5.92 3.7-5.92 7v18c0 3.3 2.65 6.45 5.92 7l58.76 10c3.27.55 5.92-1.7 5.92-5v-42c0-3.3-2.65-5.55-5.92-5zM227.1 879v-9m-5.9 0h11.7M262.4 921v9m-5.9 0h11.7" stroke="#5e5e5e" stroke-width="3" fill="#fff"/><path d="M209.4 900H180v-6h29.4z" stroke="#5e5e5e" stroke-width="3" fill="#ccc"/><use xlink:href="#A" transform="matrix(1,0,0,1,150,935) translate(38.67283950617284 24.444444444444443)"/><path d="M195.32 1011c-3.27.55-5.92 3.7-5.92 7v18c0 3.3 2.65 6.45 5.92 7l58.76 10c3.27.55 5.92-1.7 5.92-5v-42c0-3.3-2.65-5.55-5.92-5zM207.1 1009v-9m-5.9 0h11.7M242.4 1051v9m-5.9 0h11.7" stroke="#5e5e5e" stroke-width="3" fill="#fff"/><path d="M189.4 1030H160v-6h29.4z" stroke="#5e5e5e" stroke-width="3" fill="#ccc"/><use xlink:href="#C" transform="matrix(1,0,0,1,130,1065) translate(41.79012345679013 24.444444444444443)"/><path d="M260.78 927.5v-3c0-3.3-2.7-6-6-6H241" stroke="#5e5e5e" stroke-width="2" fill="none"/><path d="M260.9 928.5h-1.12v-1.03h1.12z" fill="#5e5e5e"/><path d="M241.03 918.5H240" stroke="#5e5e5e" stroke-width="2" fill="none"/><g stroke="#5e5e5e" stroke-width="3"><path d="M-389.95 891.6c-6.6 0-12-6.2-12-14v-63.7c0-7.7 5.4-13.9 12-13.9 6.75 0 12.15 6.2 12.15 13.9v63.7c0 7.8-5.4 14-12.15 14z" fill="#fff"/><path d="M-402.7 850.7h-41.4v-11.2h41.4v11.2z" fill="#ccc"/><path d="M-459.4 862.3h-45.9c-8.1 0-14.7-7.5-14.7-16.9 0-9.5 6.6-17 14.7-17h45.9c8.1 0 14.55 7.5 14.55 17 0 9.4-6.45 16.9-14.55 16.9z" fill="#fff"/><path d="M-457.3 862h-50.4v-33.3h50.4V862z" fill="#fff"/><path d="M-388.6 897.6h-1.95v-6h1.95v6z" fill="#ccc"/><path d="M-381.4 900h-16.5c-.6 0-1.05-.5-1.05-1.2s.45-1.2 1.05-1.2h16.5c.6 0 1.05.5 1.05 1.2s-.45 1.2-1.05 1.2zM-372.1 844.6v2.3h-5.1v-2.3h5.1z" fill="#ccc"/><path d="M-370 836.3l-.15 19.2c0 .6-.45 1.2-1.05 1.2-.6 0-1.05-.6-1.05-1.3l.15-19.1c0-.7.45-1.2 1.05-1.2.6 0 1.05.5 1.05 1.2z" fill="#ccc"/></g><path d="M-386.9 696.7h63.5c5.7 0 10.2 7.5 10.2 16.65 0 9.3-4.5 16.65-10.2 16.65h-63.5c-5.6 0-10.1-7.35-10.1-16.65 0-9.15 4.5-16.65 10.1-16.65z" stroke="#5e5e5e" stroke-width="3" fill="#fff"/><path d="M-359.6 661.6h8v34.35h-8V661.6z" stroke="#5e5e5e" stroke-width="3" fill="#ccc"/><path d="M-357 580h2.6c5.8 0 10.5 6 10.5 13.5V649c0 7.5-4.7 13.5-10.5 13.5h-2.6c-5.7 0-10.4-6-10.4-13.5v-55.5c0-7.5 4.7-13.5 10.4-13.5z" stroke="#5e5e5e" stroke-width="3" fill="#fff"/><path d="M-367.2 591.4h23.1v58.2h-23.1v-58.2z" stroke="#5e5e5e" stroke-width="3" fill="#fff"/><path d="M-312.8 713.2h6c.3 0 .5.15.5.6 0 .3-.2.6-.5.6h-6c-.3 0-.5-.3-.5-.6 0-.45.2-.6.5-.6z" stroke="#5e5e5e" stroke-width="3" fill="#ccc"/><path d="M-306.3 700.75h.7c.3 0 .6.3.6.75v24c0 .45-.3.75-.6.75h-.7c-.3 0-.6-.3-.6-.75v-24c0-.45.3-.75.6-.75zM-403.5 713.05h6.7v1.35h-6.7v-1.35z" stroke="#5e5e5e" stroke-width="3" fill="#ccc"/><path d="M-404.3 701.2h.5c.4 0 .7.45.7 1.05v23.4c0 .45-.3.9-.7.9h-.5c-.4 0-.7-.45-.7-.9v-23.4c0-.6.3-1.05.7-1.05z" stroke="#5e5e5e" stroke-width="3" fill="#ccc"/><use xlink:href="#D" transform="matrix(1,0,0,1,-435,735) translate(33.20987654320987 17.77777777777778)"/><use xlink:href="#E" transform="matrix(1,0,0,1,-435,735) translate(52.25308641975309 44.44444444444444)"/><path d="M-300 716.8h51.5c3.3 0 6 2.7 6 6V814c0 3.3 2.7 6 6 6h51.5" stroke="#5e5e5e" stroke-width="7" fill="none"/><path d="M-299.9 720.3h-3.6v-7h3.6zM-181.5 819.96l.16 2.97.13.57h-3.9v-7h3.97z" fill="#5e5e5e"/><path d="M-365.07 844.9h34.04c3.3 0 6-2.68 6-6v-8c0-3.3 2.68-6 6-6H-285" stroke="#5e5e5e" stroke-width="7" fill="none"/><path d="M-364.98 848.4h-3.6l.04-7h3.56zM-281.5 828.4h-3.6v-7h3.6z" fill="#5e5e5e"/><path d="M-20.3 820.2h81.9c3.3 0 6-2.7 6-6v-81.26c0-3.3 2.68-6 6-6h81.9" stroke="#5e5e5e" stroke-width="7" fill="none"/><path d="M-20.22 823.7h-5.04l1.1-2.44 1.45-4.38.03-.18h2.45zM159 730.44h-3.6v-7h3.6z" fill="#5e5e5e"/><path d="M175 896.9H70.75c-3.3 0-6-2.68-6-6v-67.2" stroke="#5e5e5e" stroke-width="7" fill="none"/><path d="M178.5 900.4h-3.6v-7h3.6z" fill="#5e5e5e"/><path d="M64.75 823.8v-3.6M155 1030H-94c-3.3 0-6-2.7-6-6v-89" stroke="#5e5e5e" stroke-width="7" fill="none"/><path d="M158.5 1031.5h3v2h-6.6v-7h3.6zM-100 931.5l3.5-.04v3.63h-7v-3.67z" fill="#5e5e5e"/><path d="M178.5 896.9v3.1" stroke="#5e5e5e" stroke-width="7" fill="none"/><path fill="#5e5e5e"/><path d="M178.5 900.5v-3.6" stroke="#5e5e5e" stroke-width="7" fill="none"/><path d="M424 675v240l72-48V723z" stroke="#5e5e5e" stroke-width="7" fill="#fff"/><path d="M400 675h120v240H400z" fill="none"/><path d="M496 795h24M448 899v16m24-32v32M424 714h-24zM424 768h-24zM424 822h-24zM424 876h-24z" stroke="#5e5e5e" stroke-width="7" fill="#fff"/><path d="M263 730h61.5c3.3 0 6-2.7 6-6v-4c0-3.3 2.7-6 6-6H398" stroke="#5e5e5e" stroke-width="4" fill="none"/><path d="M263.05 732H261v-4h2.05zM400 716h-2.05v-4H400z" fill="#5e5e5e"/><path d="M398 768h-61.5c-3.3 0-6-2.7-6-6v-12.6c0-3.3-2.7-6-6-6H263" stroke="#5e5e5e" stroke-width="4" fill="none"/><path d="M400 770h-2.05v-4H400zM263.05 745.4H261v-4h2.05z" fill="#5e5e5e"/><path d="M398 822h-51.25c-3.3 0-6 2.7-6 6v49.68c0 3.32-2.7 6-6 6H283.5" stroke="#5e5e5e" stroke-width="4" fill="none"/><path d="M400 824h-2.05v-4H400zM283.55 885.68h-2.05v-4h2.05z" fill="#5e5e5e"/><path d="M398 876h-22c-3.3 0-6 2.7-6 6v25.02c0 3.32-2.7 6-6 6h-80.5" stroke="#5e5e5e" stroke-width="4" fill="none"/><path d="M400 878h-2.05v-4H400zM283.55 915.02h-2.05v-4h2.05zM555.68 1032H263.5v-4h292.18zm236.32-7.73l-1.03 3.8-2.9 2.9-3.8 1.03H584.32v-4h199.4l2.27-.6 1.4-1.4.6-2.27V943.5h4z" fill="#5e5e5e"/><path d="M263.55 1032h-2.05v-4h2.05zM792 943.55h-4v-2.05h4z" fill="#5e5e5e"/><use xlink:href="#F" transform="matrix(1,0,0,1,555.679012345679,1019.3333333333334) translate(0.005000000000000782 14.222222222222223)"/><path d="M616.25 873.73l.6 2.26 1.4 1.4 2.27.6h85.98v4h-86.52l-3.8-1.03-2.9-2.9-1.03-3.8v-41.35h4zm-3.93-79.7l2.9 2.9 1.03 3.8v10.86h-4v-10.33l-.6-2.26-1.4-1.4-2.27-.6H522v-4h86.52z" fill="#5e5e5e"/><path d="M522.05 797H520v-4h2.05zM708.5 882h-2.05v-4h2.05z" fill="#5e5e5e"/><use xlink:href="#G" transform="matrix(1,0,0,1,602.4475308641976,811.5865606267744) translate(0.005000000000000782 14.222222222222223)"/><path d="M-320 1050v240h160v-240z" stroke="#5e5e5e" stroke-width="4" fill="#fff"/><path d="M-220 1050c0 16.57-8.95 30-20 30s-20-13.43-20-30M-340 1080h20m160 0h20m-200 60h20m160 0h20m-200 60h20m160 0h20m-200 60h20m160 0h20" stroke="#5e5e5e" stroke-width="4" fill="#fff"/><use xlink:href="#H" transform="matrix(1,0,0,1,-310,1065) translate(3.8271604938271606 19.444444444444443)"/><use xlink:href="#I" transform="matrix(1,0,0,1,-190,1065) translate(3.8271604938271606 19.444444444444443)"/><use xlink:href="#J" transform="matrix(1,0,0,1,-310,1125) translate(3.8271604938271606 19.444444444444443)"/><use xlink:href="#K" transform="matrix(1,0,0,1,-190,1125) translate(3.8271604938271606 19.444444444444443)"/><use xlink:href="#L" transform="matrix(1,0,0,1,-310,1185) translate(3.8271604938271606 19.444444444444443)"/><use xlink:href="#M" transform="matrix(1,0,0,1,-190,1185) translate(3.8271604938271606 19.444444444444443)"/><use xlink:href="#N" transform="matrix(1,0,0,1,-310,1245) translate(3.8271604938271606 19.444444444444443)"/><use xlink:href="#O" transform="matrix(1,0,0,1,-190,1245) translate(3.8271604938271606 19.444444444444443)"/><use xlink:href="#P" transform="matrix(1,0,0,1,-340,1110) translate(67.31481481481481 19.444444444444443)"/><path d="M847.4 1194.27l-1.03 3.8-2.9 2.9-3.8 1.03H142v-4h697.13l2.26-.6 1.4-1.4.6-2.27V943.5h4z" fill="#5e5e5e"/><path d="M847.4 943.55h-4v-2.05h4zM142.05 1202H140v-4h2.05z" fill="#5e5e5e"/><path d="M-342 1080h-39.83c-3.32 0-6-2.7-6-6V903.5" stroke="#5e5e5e" stroke-width="4" fill="none"/><path d="M-340 1082h-2.05v-4h2.05zM-385.83 903.55h-4v-2.05h4z" fill="#5e5e5e"/><path d="M-342 1140h-222c-3.3 0-6-2.7-6-6V722.8c0-3.3 2.7-6 6-6h155.5" stroke="#5e5e5e" stroke-width="4" fill="none"/><path d="M-340 1142h-2.05v-4h2.05zM-406.5 718.8h-2.05v-4h2.05z" fill="#5e5e5e"/><g><path d="M140 1300v-200h-40v200z" fill="none"/><path d="M120 1300l-160-100 160-100zM-36 1200h-24M140 1200h-24" stroke="#5e5e5e" stroke-width="4" fill="#fff"/></g><path d="M-62 1200h-76" stroke="#5e5e5e" stroke-width="4" fill="none"/><path d="M-60 1202h-2.05v-4H-60zM-137.95 1202H-140v-4h2.05z" fill="#5e5e5e"/><path d="M-138 1140h16c3.3 0 6-2.7 6-6v-38c0-3.3 2.7-6 6-6h264c3.3 0 6 2.7 6 6v74c0 3.3 2.7 6 6 6h65.13c3.32 0 6 2.7 6 6v16" stroke="#5e5e5e" stroke-width="4" fill="none"/><path d="M-137.95 1142H-140v-4h2.05z" fill="#5e5e5e"/><path d="M237.13 1197.95v2.05" stroke="#5e5e5e" stroke-width="4" fill="none"/><path d="M1180 1032.4c0-3.3 1.9-7.9 4.24-10.24l37.92-37.92c2.34-2.34 6.93-4.24 10.24-4.24h55.2c3.3 0 7.9 1.9 10.24 4.24l37.92 37.92c2.34 2.34 4.24 6.93 4.24 10.24v55.2c0 3.3-1.9 7.9-4.24 10.24l-37.92 37.92c-2.34 2.34-6.93 4.24-10.24 4.24h-55.2c-3.3 0-7.9-1.9-10.24-4.24l-37.92-37.92c-2.34-2.34-4.24-6.93-4.24-10.24z" stroke="#5e5e5e" stroke-width="4" fill="#fff"/><g><use xlink:href="#Q" transform="matrix(1,0,0,1,1185,985) translate(15.74074074074074 64.65277777777777)"/><use xlink:href="#R" transform="matrix(1,0,0,1,1185,985) translate(97.22222222222223 64.65277777777777)"/><use xlink:href="#S" transform="matrix(1,0,0,1,1185,985) translate(32.46913580246913 91.31944444444446)"/></g><path d="M1176.5 860h-303" stroke="#5e5e5e" stroke-width="4" fill="none"/><path d="M1178.5 862h-2.05v-4h2.05zM873.55 862h-2.05v-4h2.05z" fill="#5e5e5e"/><path d="M1176 1060h-145.25c-3.3 0-6-2.7-6-6V921.96c0-3.3-2.7-6-6-6H873.5" stroke="#5e5e5e" stroke-width="4" fill="none"/><path d="M1178 1062h-2.05v-4h2.05zM873.55 917.96h-2.05v-4h2.05z" fill="#5e5e5e"/><path d="M1323.5 320h32c3.3 0 6 2.7 6 6v446.5c0 3.3-2.7 6-6 6H796c-3.3 0-6 2.7-6 6v32" stroke="#5e5e5e" stroke-width="4" fill="none"/><path d="M1323.55 322h-2.05v-4h2.05zM792 818.5h-4v-2.05h4z" fill="#5e5e5e"/><path d="M1122 320h34.5" stroke="#5e5e5e" stroke-width="4" fill="none"/><path d="M1122.05 322H1117v-.5h3v-3h-3v-.5h5.05zM1158.5 322h-2.05v-4h2.05z" fill="#5e5e5e"/><defs><path fill="#333" d="M30-248c87 1 191-15 191 75 0 78-77 80-158 76V0H30v-248zm33 125c57 0 124 11 124-50 0-59-68-47-124-48v98" id="T"/><path fill="#333" d="M114-163C36-179 61-72 57 0H25l-1-190h30c1 12-1 29 2 39 6-27 23-49 58-41v29" id="U"/><path fill="#333" d="M100-194c63 0 86 42 84 106H49c0 40 14 67 53 68 26 1 43-12 49-29l28 8c-11 28-37 45-77 45C44 4 14-33 15-96c1-61 26-98 85-98zm52 81c6-60-76-77-97-28-3 7-6 17-6 28h103" id="V"/><path fill="#333" d="M135-143c-3-34-86-38-87 0 15 53 115 12 119 90S17 21 10-45l28-5c4 36 97 45 98 0-10-56-113-15-118-90-4-57 82-63 122-42 12 7 21 19 24 35" id="W"/><path fill="#333" d="M84 4C-5 8 30-112 23-190h32v120c0 31 7 50 39 49 72-2 45-101 50-169h31l1 190h-30c-1-10 1-25-2-33-11 22-28 36-60 37" id="X"/><g id="a"><use transform="matrix(0.06172839506172839,0,0,0.06172839506172839,0,0)" xlink:href="#T"/><use transform="matrix(0.06172839506172839,0,0,0.06172839506172839,14.814814814814813,0)" xlink:href="#U"/><use transform="matrix(0.06172839506172839,0,0,0.06172839506172839,22.160493827160494,0)" xlink:href="#V"/><use transform="matrix(0.06172839506172839,0,0,0.06172839506172839,34.50617283950617,0)" xlink:href="#W"/><use transform="matrix(0.06172839506172839,0,0,0.06172839506172839,45.61728395061728,0)" xlink:href="#W"/><use transform="matrix(0.06172839506172839,0,0,0.06172839506172839,56.72839506172839,0)" xlink:href="#X"/><use transform="matrix(0.06172839506172839,0,0,0.06172839506172839,69.07407407407408,0)" xlink:href="#U"/><use transform="matrix(0.06172839506172839,0,0,0.06172839506172839,76.41975308641976,0)" xlink:href="#V"/></g><path fill="#333" d="M212-179c-10-28-35-45-73-45-59 0-87 40-87 99 0 60 29 101 89 101 43 0 62-24 78-52l27 14C228-24 195 4 139 4 59 4 22-46 18-125c-6-104 99-153 187-111 19 9 31 26 39 46" id="Y"/><path fill="#333" d="M106-169C34-169 62-67 57 0H25v-261h32l-1 103c12-21 28-36 61-36 89 0 53 116 60 194h-32v-121c2-32-8-49-39-48" id="Z"/><path fill="#333" d="M141-36C126-15 110 5 73 4 37 3 15-17 15-53c-1-64 63-63 125-63 3-35-9-54-41-54-24 1-41 7-42 31l-33-3c5-37 33-52 76-52 45 0 72 20 72 64v82c-1 20 7 32 28 27v20c-31 9-61-2-59-35zM48-53c0 20 12 33 32 33 41-3 63-29 60-74-43 2-92-5-92 41" id="aa"/><path fill="#333" d="M210-169c-67 3-38 105-44 169h-31v-121c0-29-5-50-35-48C34-165 62-65 56 0H25l-1-190h30c1 10-1 24 2 32 10-44 99-50 107 0 11-21 27-35 58-36 85-2 47 119 55 194h-31v-121c0-29-5-49-35-48" id="ab"/><path fill="#333" d="M115-194c53 0 69 39 70 98 0 66-23 100-70 100C84 3 66-7 56-30L54 0H23l1-261h32v101c10-23 28-34 59-34zm-8 174c40 0 45-34 45-75 0-40-5-75-45-74-42 0-51 32-51 76 0 43 10 73 51 73" id="ac"/><g id="b"><use transform="matrix(0.06172839506172839,0,0,0.06172839506172839,0,0)" xlink:href="#Y"/><use transform="matrix(0.06172839506172839,0,0,0.06172839506172839,15.987654320987653,0)" xlink:href="#Z"/><use transform="matrix(0.06172839506172839,0,0,0.06172839506172839,28.333333333333332,0)" xlink:href="#aa"/><use transform="matrix(0.06172839506172839,0,0,0.06172839506172839,40.67901234567901,0)" xlink:href="#ab"/><use transform="matrix(0.06172839506172839,0,0,0.06172839506172839,59.1358024691358,0)" xlink:href="#ac"/><use transform="matrix(0.06172839506172839,0,0,0.06172839506172839,71.48148148148148,0)" xlink:href="#V"/><use transform="matrix(0.06172839506172839,0,0,0.06172839506172839,83.82716049382717,0)" xlink:href="#U"/></g><path fill="#333" d="M33 0v-248h34V0H33" id="ad"/><path fill="#333" d="M209 0H11v-25l151-195H24v-28h176v25L50-27h159V0" id="ae"/><path fill="#333" d="M27 0v-27h64v-190l-56 39v-29l58-41h29v221h61V0H27" id="af"/><path fill="#333" d="M101-251c82-7 93 87 43 132L82-64C71-53 59-42 53-27h129V0H18c2-99 128-94 128-182 0-28-16-43-45-43s-46 15-49 41l-32-3c6-41 34-60 81-64" id="ag"/><path fill="#333" d="M101-251c68 0 85 55 85 127S166 4 100 4C33 4 14-52 14-124c0-73 17-127 87-127zm-1 229c47 0 54-49 54-102s-4-102-53-102c-51 0-55 48-55 102 0 53 5 102 54 102" id="ah"/><path fill="#333" d="M54-142c48-35 137-8 131 61C196 18 31 33 14-55l32-4c7 23 22 37 52 37 35-1 51-22 54-58 4-55-73-65-99-34H22l8-134h141v27H59" id="ai"/><path fill="#333" d="M185-189c-5-48-123-54-124 2 14 75 158 14 163 119 3 78-121 87-175 55-17-10-28-26-33-46l33-7c5 56 141 63 141-1 0-78-155-14-162-118-5-82 145-84 179-34 5 7 8 16 11 25" id="aj"/><g id="e"><use transform="matrix(0.06172839506172839,0,0,0.06172839506172839,0,0)" xlink:href="#ad"/><use transform="matrix(0.06172839506172839,0,0,0.06172839506172839,6.172839506172839,0)" xlink:href="#ae"/><use transform="matrix(0.06172839506172839,0,0,0.06172839506172839,19.691358024691358,0)" xlink:href="#af"/><use transform="matrix(0.06172839506172839,0,0,0.06172839506172839,32.03703703703704,0)" xlink:href="#ag"/><use transform="matrix(0.06172839506172839,0,0,0.06172839506172839,44.382716049382715,0)" xlink:href="#ah"/><use transform="matrix(0.06172839506172839,0,0,0.06172839506172839,56.72839506172839,0)" xlink:href="#ai"/><use transform="matrix(0.06172839506172839,0,0,0.06172839506172839,69.07407407407408,0)" xlink:href="#aj"/></g><path fill="#333" d="M30 0v-248h187v28H63v79h144v27H63v87h162V0H30" id="ak"/><path fill="#333" d="M126-127c33 6 58 20 58 59 0 88-139 92-164 29-3-8-5-16-6-25l32-3c6 27 21 44 54 44 32 0 52-15 52-46 0-38-36-46-79-43v-28c39 1 72-4 72-42 0-27-17-43-46-43-28 0-47 15-49 41l-32-3c6-42 35-63 81-64 48-1 79 21 79 65 0 36-21 52-52 59" id="al"/><g id="f"><use transform="matrix(0.06172839506172839,0,0,0.06172839506172839,0,0)" xlink:href="#ak"/><use transform="matrix(0.06172839506172839,0,0,0.06172839506172839,14.814814814814813,0)" xlink:href="#aj"/><use transform="matrix(0.06172839506172839,0,0,0.06172839506172839,29.629629629629626,0)" xlink:href="#T"/><use transform="matrix(0.06172839506172839,0,0,0.06172839506172839,44.44444444444444,0)" xlink:href="#al"/><use transform="matrix(0.06172839506172839,0,0,0.06172839506172839,56.79012345679012,0)" xlink:href="#ag"/></g><path fill="#333" d="M137 0h-34L2-248h35l83 218 83-218h36" id="am"/><g id="g"><use transform="matrix(0.06172839506172839,0,0,0.06172839506172839,0,0)" xlink:href="#af"/><use transform="matrix(0.06172839506172839,0,0,0.06172839506172839,12.345679012345679,0)" xlink:href="#ag"/><use transform="matrix(0.06172839506172839,0,0,0.06172839506172839,24.691358024691358,0)" xlink:href="#am"/></g><path fill="#333" d="M153-248C145-148 188 4 80 4 36 3 13-21 6-62l32-5c4 25 16 42 43 43 27 0 39-20 39-49v-147H72v-28h81" id="an"/><path fill="#333" d="M96-169c-40 0-48 33-48 73s9 75 48 75c24 0 41-14 43-38l32 2c-6 37-31 61-74 61-59 0-76-41-82-99-10-93 101-131 147-64 4 7 5 14 7 22l-32 3c-4-21-16-35-41-35" id="ao"/><path fill="#333" d="M143 0L79-87 56-68V0H24v-261h32v163l83-92h37l-77 82L181 0h-38" id="ap"/><g id="h"><use transform="matrix(0.06172839506172839,0,0,0.06172839506172839,0,0)" xlink:href="#an"/><use transform="matrix(0.06172839506172839,0,0,0.06172839506172839,11.11111111111111,0)" xlink:href="#aa"/><use transform="matrix(0.06172839506172839,0,0,0.06172839506172839,23.45679012345679,0)" xlink:href="#ao"/><use transform="matrix(0.06172839506172839,0,0,0.06172839506172839,34.5679012345679,0)" xlink:href="#ap"/></g><path fill="#333" d="M100-194c62-1 85 37 85 99 1 63-27 99-86 99S16-35 15-95c0-66 28-99 85-99zM99-20c44 1 53-31 53-75 0-43-8-75-51-75s-53 32-53 75 10 74 51 75" id="aq"/><path fill="#333" d="M117-194c89-4 53 116 60 194h-32v-121c0-31-8-49-39-48C34-167 62-67 57 0H25l-1-190h30c1 10-1 24 2 32 11-22 29-35 61-36" id="ar"/><path fill="#333" d="M59-47c-2 24 18 29 38 22v24C64 9 27 4 27-40v-127H5v-23h24l9-43h21v43h35v23H59v120" id="as"/><g id="i"><use transform="matrix(0.06172839506172839,0,0,0.06172839506172839,0,0)" xlink:href="#ao"/><use transform="matrix(0.06172839506172839,0,0,0.06172839506172839,11.11111111111111,0)" xlink:href="#aq"/><use transform="matrix(0.06172839506172839,0,0,0.06172839506172839,23.45679012345679,0)" xlink:href="#ar"/><use transform="matrix(0.06172839506172839,0,0,0.06172839506172839,35.80246913580247,0)" xlink:href="#ar"/><use transform="matrix(0.06172839506172839,0,0,0.06172839506172839,48.148148148148145,0)" xlink:href="#V"/><use transform="matrix(0.06172839506172839,0,0,0.06172839506172839,60.49382716049382,0)" xlink:href="#ao"/><use transform="matrix(0.06172839506172839,0,0,0.06172839506172839,71.60493827160494,0)" xlink:href="#as"/><use transform="matrix(0.06172839506172839,0,0,0.06172839506172839,77.77777777777777,0)" xlink:href="#aq"/><use transform="matrix(0.06172839506172839,0,0,0.06172839506172839,90.12345679012346,0)" xlink:href="#U"/></g><path fill="#333" d="M127-220V0H93v-220H8v-28h204v28h-85" id="at"/><path fill="#333" d="M63-220v92h138v28H63V0H30v-248h175v28H63" id="au"/><g id="j"><use transform="matrix(0.06172839506172839,0,0,0.06172839506172839,0,0)" xlink:href="#at"/><use transform="matrix(0.06172839506172839,0,0,0.06172839506172839,13.518518518518517,0)" xlink:href="#au"/><use transform="matrix(0.06172839506172839,0,0,0.06172839506172839,27.037037037037035,0)" xlink:href="#at"/></g><g id="k"><use transform="matrix(0.06172839506172839,0,0,0.06172839506172839,0,0)" xlink:href="#W"/><use transform="matrix(0.06172839506172839,0,0,0.06172839506172839,11.11111111111111,0)" xlink:href="#ao"/><use transform="matrix(0.06172839506172839,0,0,0.06172839506172839,22.22222222222222,0)" xlink:href="#U"/><use transform="matrix(0.06172839506172839,0,0,0.06172839506172839,29.5679012345679,0)" xlink:href="#V"/><use transform="matrix(0.06172839506172839,0,0,0.06172839506172839,41.913580246913575,0)" xlink:href="#V"/><use transform="matrix(0.06172839506172839,0,0,0.06172839506172839,54.25925925925925,0)" xlink:href="#ar"/></g><path fill="#333" d="M118-107v75H92v-75H18v-26h74v-75h26v75h74v26h-74" id="av"/><g id="l"><use transform="matrix(0.06172839506172839,0,0,0.06172839506172839,0,0)" xlink:href="#av"/><use transform="matrix(0.06172839506172839,0,0,0.06172839506172839,12.962962962962962,0)" xlink:href="#ai"/><use transform="matrix(0.06172839506172839,0,0,0.06172839506172839,25.30864197530864,0)" xlink:href="#am"/></g><path fill="#333" d="M16-82v-28h88v28H16" id="aw"/><g id="m"><use transform="matrix(0.06172839506172839,0,0,0.06172839506172839,0,0)" xlink:href="#aw"/><use transform="matrix(0.06172839506172839,0,0,0.06172839506172839,7.345679012345679,0)" xlink:href="#ai"/><use transform="matrix(0.06172839506172839,0,0,0.06172839506172839,19.691358024691358,0)" xlink:href="#am"/></g><path d="M30 0v-248h33v221h125V0H30" id="ax"/><path d="M30-248c118-7 216 8 213 122C240-48 200 0 122 0H30v-248zM63-27c89 8 146-16 146-99s-60-101-146-95v194" id="ay"/><path d="M140-251c81 0 123 46 123 126C263-46 219 4 140 4 59 4 17-45 17-125s42-126 123-126zm0 227c63 0 89-41 89-101s-29-99-89-99c-61 0-89 39-89 99S79-25 140-24" id="az"/><g id="n"><use transform="matrix(0.05432111111111112,0,0,0.05432111111111112,0,0)" xlink:href="#ax"/><use transform="matrix(0.05432111111111112,0,0,0.05432111111111112,10.864222222222224,0)" xlink:href="#ay"/><use transform="matrix(0.05432111111111112,0,0,0.05432111111111112,24.933390000000003,0)" xlink:href="#az"/></g><path d="M101-251c82-7 93 87 43 132L82-64C71-53 59-42 53-27h129V0H18c2-99 128-94 128-182 0-28-16-43-45-43s-46 15-49 41l-32-3c6-41 34-60 81-64" id="aA"/><path d="M33 0v-38h34V0H33" id="aB"/><path d="M54-142c48-35 137-8 131 61C196 18 31 33 14-55l32-4c7 23 22 37 52 37 35-1 51-22 54-58 4-55-73-65-99-34H22l8-134h141v27H59" id="aC"/><path d="M137 0h-34L2-248h35l83 218 83-218h36" id="aD"/><g id="o"><use transform="matrix(0.05432111111111112,0,0,0.05432111111111112,0,0)" xlink:href="#aA"/><use transform="matrix(0.05432111111111112,0,0,0.05432111111111112,10.864222222222224,0)" xlink:href="#aB"/><use transform="matrix(0.05432111111111112,0,0,0.05432111111111112,16.296333333333337,0)" xlink:href="#aC"/><use transform="matrix(0.05432111111111112,0,0,0.05432111111111112,27.16055555555556,0)" xlink:href="#aD"/></g><path d="M205 0l-28-72H64L36 0H1l101-248h38L239 0h-34zm-38-99l-47-123c-12 45-31 82-46 123h93" id="aE"/><path d="M30-248c87 1 191-15 191 75 0 78-77 80-158 76V0H30v-248zm33 125c57 0 124 11 124-50 0-59-68-47-124-48v98" id="aF"/><path d="M64 0c3-98 48-159 88-221H18v-27h164v26C143-157 98-101 97 0H64" id="aG"/><path d="M126-127c33 6 58 20 58 59 0 88-139 92-164 29-3-8-5-16-6-25l32-3c6 27 21 44 54 44 32 0 52-15 52-46 0-38-36-46-79-43v-28c39 1 72-4 72-42 0-27-17-43-46-43-28 0-47 15-49 41l-32-3c6-42 35-63 81-64 48-1 79 21 79 65 0 36-21 52-52 59" id="aH"/><path d="M27 0v-27h64v-190l-56 39v-29l58-41h29v221h61V0H27" id="aI"/><path d="M16-82v-28h88v28H16" id="aJ"/><g id="p"><use transform="matrix(0.05432111111111112,0,0,0.05432111111111112,0,0)" xlink:href="#aE"/><use transform="matrix(0.05432111111111112,0,0,0.05432111111111112,13.037066666666668,0)" xlink:href="#aF"/><use transform="matrix(0.05432111111111112,0,0,0.05432111111111112,26.074133333333336,0)" xlink:href="#aG"/><use transform="matrix(0.05432111111111112,0,0,0.05432111111111112,36.93835555555556,0)" xlink:href="#aH"/><use transform="matrix(0.05432111111111112,0,0,0.05432111111111112,47.802577777777785,0)" xlink:href="#aH"/><use transform="matrix(0.05432111111111112,0,0,0.05432111111111112,58.66680000000001,0)" xlink:href="#aI"/><use transform="matrix(0.05432111111111112,0,0,0.05432111111111112,69.53102222222223,0)" xlink:href="#aJ"/><use transform="matrix(0.05432111111111112,0,0,0.05432111111111112,75.99523444444446,0)" xlink:href="#aA"/><use transform="matrix(0.05432111111111112,0,0,0.05432111111111112,86.85945666666669,0)" xlink:href="#aC"/></g><g id="q"><use transform="matrix(0.05432111111111112,0,0,0.05432111111111112,0,0)" xlink:href="#aJ"/><use transform="matrix(0.05432111111111112,0,0,0.05432111111111112,6.464212222222223,0)" xlink:href="#aA"/><use transform="matrix(0.05432111111111112,0,0,0.05432111111111112,17.328434444444447,0)" xlink:href="#aB"/><use transform="matrix(0.05432111111111112,0,0,0.05432111111111112,22.76054555555556,0)" xlink:href="#aC"/><use transform="matrix(0.05432111111111112,0,0,0.05432111111111112,33.624767777777784,0)" xlink:href="#aD"/></g><path d="M127-220V0H93v-220H8v-28h204v28h-85" id="aK"/><path d="M185-189c-5-48-123-54-124 2 14 75 158 14 163 119 3 78-121 87-175 55-17-10-28-26-33-46l33-7c5 56 141 63 141-1 0-78-155-14-162-118-5-82 145-84 179-34 5 7 8 16 11 25" id="aL"/><g id="r"><use transform="matrix(0.05432111111111112,0,0,0.05432111111111112,0,0)" xlink:href="#aK"/><use transform="matrix(0.05432111111111112,0,0,0.05432111111111112,11.896323333333335,0)" xlink:href="#aF"/><use transform="matrix(0.05432111111111112,0,0,0.05432111111111112,24.933390000000003,0)" xlink:href="#aL"/><use transform="matrix(0.05432111111111112,0,0,0.05432111111111112,37.97045666666667,0)" xlink:href="#aG"/><use transform="matrix(0.05432111111111112,0,0,0.05432111111111112,48.834678888888895,0)" xlink:href="#aA"/><use transform="matrix(0.05432111111111112,0,0,0.05432111111111112,59.69890111111112,0)" xlink:href="#aH"/><use transform="matrix(0.05432111111111112,0,0,0.05432111111111112,70.56312333333335,0)" xlink:href="#aA"/><use transform="matrix(0.05432111111111112,0,0,0.05432111111111112,81.42734555555558,0)" xlink:href="#aC"/></g><path fill="#333" d="M233-177c-1 41-23 64-60 70L243 0h-38l-65-103H63V0H30v-248c88 3 205-21 203 71zM63-129c60-2 137 13 137-47 0-61-80-42-137-45v92" id="aM"/><use transform="matrix(0.06172839506172839,0,0,0.06172839506172839,0,0)" xlink:href="#aM" id="s"/><g id="t"><use transform="matrix(0.06172839506172839,0,0,0.06172839506172839,0,0)" xlink:href="#af"/><use transform="matrix(0.06172839506172839,0,0,0.06172839506172839,12.345679012345679,0)" xlink:href="#ah"/><use transform="matrix(0.06172839506172839,0,0,0.06172839506172839,24.691358024691358,0)" xlink:href="#ah"/></g><path fill="#333" d="M20-141c0-71 41-110 114-110s115 39 115 110c0 61-35 92-75 116l80-2V0H150v-39c35-20 64-46 64-100s-27-85-79-85c-54 0-81 31-81 85 0 52 29 80 65 100V0H15v-27l80 2C55-49 20-80 20-141" id="aN"/><use transform="matrix(0.06172839506172839,0,0,0.06172839506172839,0,0)" xlink:href="#aN" id="u"/><path fill="#333" d="M240-174c0 40-23 61-54 70L253 0h-59l-57-94H76V0H24v-248c93 4 217-23 216 74zM76-134c48-2 112 12 112-38 0-48-66-32-112-35v73" id="aO"/><use transform="matrix(0.06172839506172839,0,0,0.06172839506172839,0,0)" xlink:href="#aO" id="v"/><path fill="#333" d="M23 0v-37h61v-169l-59 37v-38l62-41h46v211h57V0H23" id="aP"/><path fill="#333" d="M101-251c68 0 84 54 84 127C185-50 166 4 99 4S15-52 14-124c-1-75 17-127 87-127zm-1 216c37-5 36-46 36-89s4-89-36-89c-39 0-36 45-36 89 0 43-3 85 36 89" id="aQ"/><g id="w"><use transform="matrix(0.06172839506172839,0,0,0.06172839506172839,0,0)" xlink:href="#aP"/><use transform="matrix(0.06172839506172839,0,0,0.06172839506172839,12.345679012345679,0)" xlink:href="#aQ"/><use transform="matrix(0.06172839506172839,0,0,0.06172839506172839,24.691358024691358,0)" xlink:href="#aQ"/></g><path fill="#333" d="M20-146c0-73 51-98 124-105 116-11 165 129 84 193-9 8-21 14-34 20 25-2 52-2 80-2V0H156v-54c36-17 59-39 60-82 1-49-25-75-72-75-48 0-73 27-73 75 0 42 27 65 61 82V0H15v-40l79 2C51-57 20-86 20-146" id="aR"/><use transform="matrix(0.06172839506172839,0,0,0.06172839506172839,0,0)" xlink:href="#aR" id="x"/><path fill="#333" d="M24 0v-261h32V0H24" id="aS"/><path fill="#333" d="M179-190L93 31C79 59 56 82 12 73V49c39 6 53-20 64-50L1-190h34L92-34l54-156h33" id="aT"/><g id="y"><use transform="matrix(0.06172839506172839,0,0,0.06172839506172839,0,0)" xlink:href="#aj"/><use transform="matrix(0.06172839506172839,0,0,0.06172839506172839,14.814814814814813,0)" xlink:href="#aa"/><use transform="matrix(0.06172839506172839,0,0,0.06172839506172839,27.160493827160494,0)" xlink:href="#aS"/><use transform="matrix(0.06172839506172839,0,0,0.06172839506172839,32.03703703703704,0)" xlink:href="#aS"/><use transform="matrix(0.06172839506172839,0,0,0.06172839506172839,36.91358024691358,0)" xlink:href="#V"/><use transform="matrix(0.06172839506172839,0,0,0.06172839506172839,49.25925925925926,0)" xlink:href="#ar"/><use transform="matrix(0.06172839506172839,0,0,0.06172839506172839,61.60493827160494,0)" xlink:href="#aw"/><use transform="matrix(0.06172839506172839,0,0,0.06172839506172839,68.95061728395062,0)" xlink:href="#ap"/><use transform="matrix(0.06172839506172839,0,0,0.06172839506172839,80.06172839506173,0)" xlink:href="#V"/><use transform="matrix(0.06172839506172839,0,0,0.06172839506172839,92.40740740740742,0)" xlink:href="#aT"/></g><path fill="#333" d="M101-234c-31-9-42 10-38 44h38v23H63V0H32v-167H5v-23h27c-7-52 17-82 69-68v24" id="aU"/><path fill="#333" d="M24-231v-30h32v30H24zM24 0v-190h32V0H24" id="aV"/><g id="z"><use transform="matrix(0.06172839506172839,0,0,0.06172839506172839,0,0)" xlink:href="#aU"/><use transform="matrix(0.06172839506172839,0,0,0.06172839506172839,6.172839506172839,0)" xlink:href="#aV"/><use transform="matrix(0.06172839506172839,0,0,0.06172839506172839,11.049382716049383,0)" xlink:href="#aS"/><use transform="matrix(0.06172839506172839,0,0,0.06172839506172839,15.925925925925926,0)" xlink:href="#as"/><use transform="matrix(0.06172839506172839,0,0,0.06172839506172839,22.098765432098766,0)" xlink:href="#V"/><use transform="matrix(0.06172839506172839,0,0,0.06172839506172839,34.44444444444444,0)" xlink:href="#U"/></g><path fill="#333" d="M240 0l2-218c-23 76-54 145-80 218h-23L58-218 59 0H30v-248h44l77 211c21-75 51-140 76-211h43V0h-30" id="aW"/><path fill="#333" d="M134-131c28 9 52 24 51 62-1 50-34 73-85 73S17-19 16-69c0-36 21-54 49-61-75-25-45-126 34-121 46 3 78 18 79 63 0 33-17 51-44 57zm-34-11c31 1 46-15 46-44 0-28-17-43-47-42-29 0-46 13-45 42 1 28 16 44 46 44zm1 122c35 0 51-18 51-52 0-30-18-46-53-46-33 0-51 17-51 47 0 34 19 51 53 51" id="aX"/><path fill="#333" d="M64 0c3-98 48-159 88-221H18v-27h164v26C143-157 98-101 97 0H64" id="aY"/><g id="A"><use transform="matrix(0.06172839506172839,0,0,0.06172839506172839,0,0)" xlink:href="#aW"/><use transform="matrix(0.06172839506172839,0,0,0.06172839506172839,18.456790123456788,0)" xlink:href="#aj"/><use transform="matrix(0.06172839506172839,0,0,0.06172839506172839,33.2716049382716,0)" xlink:href="#ai"/><use transform="matrix(0.06172839506172839,0,0,0.06172839506172839,45.61728395061728,0)" xlink:href="#aX"/><use transform="matrix(0.06172839506172839,0,0,0.06172839506172839,57.962962962962955,0)" xlink:href="#al"/><use transform="matrix(0.06172839506172839,0,0,0.06172839506172839,70.30864197530863,0)" xlink:href="#aY"/></g><g id="B"><use transform="matrix(0.06172839506172839,0,0,0.06172839506172839,0,0)" xlink:href="#T"/><use transform="matrix(0.06172839506172839,0,0,0.06172839506172839,14.814814814814813,0)" xlink:href="#Z"/><use transform="matrix(0.06172839506172839,0,0,0.06172839506172839,27.160493827160494,0)" xlink:href="#aa"/><use transform="matrix(0.06172839506172839,0,0,0.06172839506172839,39.50617283950617,0)" xlink:href="#ar"/><use transform="matrix(0.06172839506172839,0,0,0.06172839506172839,51.85185185185185,0)" xlink:href="#as"/><use transform="matrix(0.06172839506172839,0,0,0.06172839506172839,58.02469135802469,0)" xlink:href="#aq"/><use transform="matrix(0.06172839506172839,0,0,0.06172839506172839,70.37037037037037,0)" xlink:href="#ab"/></g><path fill="#333" d="M30 0v-248h33v221h125V0H30" id="aZ"/><g id="C"><use transform="matrix(0.06172839506172839,0,0,0.06172839506172839,0,0)" xlink:href="#aW"/><use transform="matrix(0.06172839506172839,0,0,0.06172839506172839,18.456790123456788,0)" xlink:href="#T"/><use transform="matrix(0.06172839506172839,0,0,0.06172839506172839,33.2716049382716,0)" xlink:href="#aM"/><use transform="matrix(0.06172839506172839,0,0,0.06172839506172839,49.25925925925925,0)" xlink:href="#aZ"/><use transform="matrix(0.06172839506172839,0,0,0.06172839506172839,61.60493827160493,0)" xlink:href="#aj"/></g><path fill="#333" d="M115-194c55 1 70 41 70 98S169 2 115 4C84 4 66-9 55-30l1 105H24l-1-265h31l2 30c10-21 28-34 59-34zm-8 174c40 0 45-34 45-75s-6-73-45-74c-42 0-51 32-51 76 0 43 10 73 51 73" id="ba"/><g id="D"><use transform="matrix(0.06172839506172839,0,0,0.06172839506172839,0,0)" xlink:href="#ba"/><use transform="matrix(0.06172839506172839,0,0,0.06172839506172839,12.345679012345679,0)" xlink:href="#V"/><use transform="matrix(0.06172839506172839,0,0,0.06172839506172839,24.691358024691358,0)" xlink:href="#U"/><use transform="matrix(0.06172839506172839,0,0,0.06172839506172839,32.03703703703704,0)" xlink:href="#aV"/><use transform="matrix(0.06172839506172839,0,0,0.06172839506172839,36.91358024691358,0)" xlink:href="#W"/><use transform="matrix(0.06172839506172839,0,0,0.06172839506172839,48.0246913580247,0)" xlink:href="#as"/><use transform="matrix(0.06172839506172839,0,0,0.06172839506172839,54.19753086419754,0)" xlink:href="#aa"/><use transform="matrix(0.06172839506172839,0,0,0.06172839506172839,66.54320987654322,0)" xlink:href="#aS"/><use transform="matrix(0.06172839506172839,0,0,0.06172839506172839,71.41975308641976,0)" xlink:href="#as"/><use transform="matrix(0.06172839506172839,0,0,0.06172839506172839,77.5925925925926,0)" xlink:href="#aV"/><use transform="matrix(0.06172839506172839,0,0,0.06172839506172839,82.46913580246914,0)" xlink:href="#ao"/></g><g id="E"><use transform="matrix(0.06172839506172839,0,0,0.06172839506172839,0,0)" xlink:href="#ba"/><use transform="matrix(0.06172839506172839,0,0,0.06172839506172839,12.345679012345679,0)" xlink:href="#X"/><use transform="matrix(0.06172839506172839,0,0,0.06172839506172839,24.691358024691358,0)" xlink:href="#ab"/><use transform="matrix(0.06172839506172839,0,0,0.06172839506172839,43.148148148148145,0)" xlink:href="#ba"/></g><path fill="#333" d="M169-182c-1-43-94-46-97-3 18 66 151 10 154 114 3 95-165 93-204 36-6-8-10-19-12-30l50-8c3 46 112 56 116 5-17-69-150-10-154-114-4-87 153-88 188-35 5 8 8 18 10 28" id="bb"/><path fill="#333" d="M24-248c93 1 206-16 204 79-1 75-69 88-152 82V0H24v-248zm52 121c47 0 100 7 100-41 0-47-54-39-100-39v80" id="bc"/><path fill="#333" d="M24 0v-248h52V0H24" id="bd"/><g id="F"><use transform="matrix(0.04938271604938272,0,0,0.04938271604938272,0,0)" xlink:href="#bb"/><use transform="matrix(0.04938271604938272,0,0,0.04938271604938272,11.851851851851853,0)" xlink:href="#bc"/><use transform="matrix(0.04938271604938272,0,0,0.04938271604938272,23.703703703703706,0)" xlink:href="#bd"/></g><path fill="#333" d="M110-214c0 40-46 42-61 68h63v24H9c-6-58 56-49 66-90 0-10-3-17-14-16-10 0-16 6-17 17l-34-1c1-48 100-55 100-2" id="be"/><path fill="#333" d="M67-125c0 53 21 87 73 88 37 1 54-22 65-47l45 17C233-25 199 4 140 4 58 4 20-42 15-125 8-235 124-281 211-232c18 10 29 29 36 50l-46 12c-8-25-30-41-62-41-52 0-71 34-72 86" id="bf"/><g id="G"><use transform="matrix(0.04938271604938272,0,0,0.04938271604938272,0,0)" xlink:href="#bd"/><use transform="matrix(0.04938271604938272,0,0,0.04938271604938272,4.938271604938272,0)" xlink:href="#be"/><use transform="matrix(0.04938271604938272,0,0,0.04938271604938272,10.814814814814817,0)" xlink:href="#bf"/></g><use transform="matrix(0.06172839506172839,0,0,0.06172839506172839,0,0)" xlink:href="#af" id="H"/><use transform="matrix(0.06172839506172839,0,0,0.06172839506172839,0,0)" xlink:href="#aX" id="I"/><use transform="matrix(0.06172839506172839,0,0,0.06172839506172839,0,0)" xlink:href="#ag" id="J"/><use transform="matrix(0.06172839506172839,0,0,0.06172839506172839,0,0)" xlink:href="#aY" id="K"/><use transform="matrix(0.06172839506172839,0,0,0.06172839506172839,0,0)" xlink:href="#al" id="L"/><path fill="#333" d="M110-160c48 1 74 30 74 79 0 53-28 85-80 85-65 0-83-55-86-122-5-90 50-162 133-122 14 7 22 21 27 39l-31 6c-5-40-67-38-82-6-9 19-15 44-15 74 11-20 30-34 60-33zm-7 138c34 0 49-23 49-58s-16-56-50-56c-29 0-50 16-49 49 1 36 15 65 50 65" id="bg"/><use transform="matrix(0.06172839506172839,0,0,0.06172839506172839,0,0)" xlink:href="#bg" id="M"/><path fill="#333" d="M155-56V0h-30v-56H8v-25l114-167h33v167h35v25h-35zm-30-156c-27 46-58 90-88 131h88v-131" id="bh"/><use transform="matrix(0.06172839506172839,0,0,0.06172839506172839,0,0)" xlink:href="#bh" id="N"/><use transform="matrix(0.06172839506172839,0,0,0.06172839506172839,0,0)" xlink:href="#ai" id="O"/><path fill="#333" d="M99-251c64 0 84 50 84 122C183-37 130 33 47-8c-14-7-20-23-25-40l30-5c6 39 69 39 84 7 9-19 16-44 16-74-10 22-31 35-62 35-49 0-73-33-73-83 0-54 28-83 82-83zm-1 141c31-1 51-18 51-49 0-36-14-67-51-67-34 0-49 23-49 58 0 34 15 58 49 58" id="bi"/><path fill="#333" d="M30-248c118-7 216 8 213 122C240-48 200 0 122 0H30v-248zM63-27c89 8 146-16 146-99s-60-101-146-95v194" id="bj"/><g id="P"><use transform="matrix(0.06172839506172839,0,0,0.06172839506172839,0,0)" xlink:href="#aZ"/><use transform="matrix(0.06172839506172839,0,0,0.06172839506172839,12.345679012345679,0)" xlink:href="#ag"/><use transform="matrix(0.06172839506172839,0,0,0.06172839506172839,24.691358024691358,0)" xlink:href="#bi"/><use transform="matrix(0.06172839506172839,0,0,0.06172839506172839,37.03703703703704,0)" xlink:href="#al"/><use transform="matrix(0.06172839506172839,0,0,0.06172839506172839,49.382716049382715,0)" xlink:href="#bj"/></g><path fill="#333" d="M160-131c35 5 61 23 61 61C221 17 115-2 30 0v-248c76 3 177-17 177 60 0 33-19 50-47 57zm-97-11c50-1 110 9 110-42 0-47-63-36-110-37v79zm0 115c55-2 124 14 124-45 0-56-70-42-124-44v89" id="bk"/><g id="Q"><use transform="matrix(0.06172839506172839,0,0,0.06172839506172839,0,0)" xlink:href="#bk"/><use transform="matrix(0.06172839506172839,0,0,0.06172839506172839,14.814814814814813,0)" xlink:href="#X"/><use transform="matrix(0.06172839506172839,0,0,0.06172839506172839,27.160493827160494,0)" xlink:href="#as"/><use transform="matrix(0.06172839506172839,0,0,0.06172839506172839,33.333333333333336,0)" xlink:href="#as"/><use transform="matrix(0.06172839506172839,0,0,0.06172839506172839,39.50617283950618,0)" xlink:href="#aq"/><use transform="matrix(0.06172839506172839,0,0,0.06172839506172839,51.851851851851855,0)" xlink:href="#ar"/><use transform="matrix(0.06172839506172839,0,0,0.06172839506172839,64.19753086419753,0)" xlink:href="#W"/></g><path fill="#333" d="M85-194c31 0 48 13 60 33l-1-100h32l1 261h-30c-2-10 0-23-3-31C134-8 116 4 85 4 32 4 16-35 15-94c0-66 23-100 70-100zm9 24c-40 0-46 34-46 75 0 40 6 74 45 74 42 0 51-32 51-76 0-42-9-74-50-73" id="bl"/><g id="R"><use transform="matrix(0.06172839506172839,0,0,0.06172839506172839,0,0)" xlink:href="#aa"/><use transform="matrix(0.06172839506172839,0,0,0.06172839506172839,12.345679012345679,0)" xlink:href="#ar"/><use transform="matrix(0.06172839506172839,0,0,0.06172839506172839,24.691358024691358,0)" xlink:href="#bl"/></g><path fill="#333" d="M206 0h-36l-40-164L89 0H53L-1-190h32L70-26l43-164h34l41 164 42-164h31" id="bm"/><g id="S"><use transform="matrix(0.06172839506172839,0,0,0.06172839506172839,0,0)" xlink:href="#W"/><use transform="matrix(0.06172839506172839,0,0,0.06172839506172839,11.11111111111111,0)" xlink:href="#bm"/><use transform="matrix(0.06172839506172839,0,0,0.06172839506172839,27.098765432098766,0)" xlink:href="#aV"/><use transform="matrix(0.06172839506172839,0,0,0.06172839506172839,31.975308641975307,0)" xlink:href="#as"/><use transform="matrix(0.06172839506172839,0,0,0.06172839506172839,38.14814814814815,0)" xlink:href="#ao"/><use transform="matrix(0.06172839506172839,0,0,0.06172839506172839,49.25925925925927,0)" xlink:href="#Z"/><use transform="matrix(0.06172839506172839,0,0,0.06172839506172839,61.604938271604944,0)" xlink:href="#V"/><use transform="matrix(0.06172839506172839,0,0,0.06172839506172839,73.95061728395062,0)" xlink:href="#W"/></g></defs></g></svg>