<?xml version="1.0" encoding="UTF-8" standalone="no"?>
<svg
   xmlns:dc="http://purl.org/dc/elements/1.1/"
   xmlns:cc="http://creativecommons.org/ns#"
   xmlns:rdf="http://www.w3.org/1999/02/22-rdf-syntax-ns#"
   xmlns:svg="http://www.w3.org/2000/svg"
   xmlns="http://www.w3.org/2000/svg"
   xmlns:sodipodi="http://sodipodi.sourceforge.net/DTD/sodipodi-0.dtd"
   xmlns:inkscape="http://www.inkscape.org/namespaces/inkscape"
   width="500mm"
   height="500mm"
   viewBox="0 0 500 500"
   version="1.1"
   id="svg8"
   inkscape:version="1.0.2 (e86c870879, 2021-01-15)"
   sodipodi:docname="UrumbuAnalysis.svg">
  <defs
     id="defs2">
    <marker
       style="overflow:visible"
       id="marker7863"
       refX="0.0"
       refY="0.0"
       orient="auto"
       inkscape:stockid="StopL"
       inkscape:isstock="true">
      <path
         transform="scale(0.8)"
         style="fill:none;fill-opacity:0.75;fill-rule:evenodd;stroke:#5632e2;stroke-width:1pt;stroke-opacity:1"
         d="M 0.0,5.65 L 0.0,-5.65"
         id="path7861" />
    </marker>
    <marker
       style="overflow:visible"
       id="StopL"
       refX="0.0"
       refY="0.0"
       orient="auto"
       inkscape:stockid="StopL"
       inkscape:isstock="true">
      <path
         transform="scale(0.8)"
         style="fill:none;fill-opacity:0.75;fill-rule:evenodd;stroke:#5632e2;stroke-width:1pt;stroke-opacity:1"
         d="M 0.0,5.65 L 0.0,-5.65"
         id="path1116" />
    </marker>
    <marker
       style="overflow:visible"
       id="marker6818"
       refX="0"
       refY="0"
       orient="auto"
       inkscape:stockid="Arrow1Sstart"
       inkscape:isstock="true">
      <path
         transform="matrix(0.2,0,0,0.2,1.2,0)"
         style="fill:#ffa100;fill-opacity:1;fill-rule:evenodd;stroke:#ffa100;stroke-width:1pt;stroke-opacity:1"
         d="M 0,0 5,-5 -12.5,0 5,5 Z"
         id="path6816" />
    </marker>
    <marker
       style="overflow:visible"
       id="marker6706"
       refX="0"
       refY="0"
       orient="auto"
       inkscape:stockid="Arrow1Sstart"
       inkscape:isstock="true">
      <path
         transform="matrix(0.2,0,0,0.2,1.2,0)"
         style="fill:#ffa100;fill-opacity:1;fill-rule:evenodd;stroke:#ffa100;stroke-width:1pt;stroke-opacity:1"
         d="M 0,0 5,-5 -12.5,0 5,5 Z"
         id="path6704" />
    </marker>
    <marker
       style="overflow:visible"
       id="marker6480"
       refX="0"
       refY="0"
       orient="auto"
       inkscape:stockid="Arrow1Mstart"
       inkscape:isstock="true">
      <path
         transform="matrix(0.4,0,0,0.4,4,0)"
         style="fill:#ffa100;fill-opacity:1;fill-rule:evenodd;stroke:#ffa100;stroke-width:1pt;stroke-opacity:1"
         d="M 0,0 5,-5 -12.5,0 5,5 Z"
         id="path6478" />
    </marker>
    <marker
       style="overflow:visible"
       id="marker6470"
       refX="0"
       refY="0"
       orient="auto"
       inkscape:stockid="Arrow1Mstart"
       inkscape:isstock="true">
      <path
         transform="matrix(0.4,0,0,0.4,4,0)"
         style="fill:#ffa100;fill-opacity:1;fill-rule:evenodd;stroke:#ffa100;stroke-width:1pt;stroke-opacity:1"
         d="M 0,0 5,-5 -12.5,0 5,5 Z"
         id="path6468" />
    </marker>
    <marker
       style="overflow:visible"
       id="marker6214"
       refX="0"
       refY="0"
       orient="auto"
       inkscape:stockid="Arrow1Mstart"
       inkscape:isstock="true">
      <path
         transform="matrix(0.4,0,0,0.4,4,0)"
         style="fill:#ffa100;fill-opacity:1;fill-rule:evenodd;stroke:#ffa100;stroke-width:1pt;stroke-opacity:1"
         d="M 0,0 5,-5 -12.5,0 5,5 Z"
         id="path6212" />
    </marker>
    <marker
       style="overflow:visible"
       id="Arrow1Sstart"
       refX="0"
       refY="0"
       orient="auto"
       inkscape:stockid="Arrow1Sstart"
       inkscape:isstock="true">
      <path
         transform="matrix(0.2,0,0,0.2,1.2,0)"
         style="fill:#5632e2;fill-opacity:1;fill-rule:evenodd;stroke:#5632e2;stroke-width:1pt;stroke-opacity:1"
         d="M 0,0 5,-5 -12.5,0 5,5 Z"
         id="path959" />
    </marker>
    <marker
       style="overflow:visible"
       id="Arrow1Send"
       refX="0"
       refY="0"
       orient="auto"
       inkscape:stockid="Arrow1Send"
       inkscape:isstock="true">
      <path
         transform="matrix(-0.2,0,0,-0.2,-1.2,0)"
         style="fill:#5632e2;fill-opacity:1;fill-rule:evenodd;stroke:#5632e2;stroke-width:1pt;stroke-opacity:1"
         d="M 0,0 5,-5 -12.5,0 5,5 Z"
         id="path962" />
    </marker>
    <marker
       style="overflow:visible"
       id="Arrow1Mstart"
       refX="0"
       refY="0"
       orient="auto"
       inkscape:stockid="Arrow1Mstart"
       inkscape:isstock="true">
      <path
         transform="matrix(0.4,0,0,0.4,4,0)"
         style="fill:#ff0000;fill-opacity:1;fill-rule:evenodd;stroke:#ff0000;stroke-width:1pt;stroke-opacity:1"
         d="M 0,0 5,-5 -12.5,0 5,5 Z"
         id="path953" />
    </marker>
    <marker
       style="overflow:visible"
       id="marker1237"
       refX="0"
       refY="0"
       orient="auto"
       inkscape:stockid="Arrow1Lstart"
       inkscape:isstock="true">
      <path
         transform="matrix(0.8,0,0,0.8,10,0)"
         style="fill:#ff0000;fill-opacity:1;fill-rule:evenodd;stroke:#ff0000;stroke-width:1pt;stroke-opacity:1"
         d="M 0,0 5,-5 -12.5,0 5,5 Z"
         id="path1235" />
    </marker>
    <marker
       style="overflow:visible"
       id="Arrow1Lstart"
       refX="0"
       refY="0"
       orient="auto"
       inkscape:stockid="Arrow1Lstart"
       inkscape:isstock="true">
      <path
         transform="matrix(0.8,0,0,0.8,10,0)"
         style="fill:#ff0000;fill-opacity:1;fill-rule:evenodd;stroke:#ff0000;stroke-width:1pt;stroke-opacity:1"
         d="M 0,0 5,-5 -12.5,0 5,5 Z"
         id="path947" />
    </marker>
    <marker
       style="overflow:visible"
       id="Arrow1Sstart-3"
       refX="0"
       refY="0"
       orient="auto"
       inkscape:stockid="Arrow1Sstart"
       inkscape:isstock="true">
      <path
         transform="matrix(0.2,0,0,0.2,1.2,0)"
         style="fill:#00ff00;fill-opacity:1;fill-rule:evenodd;stroke:#00ff00;stroke-width:1pt;stroke-opacity:1"
         d="M 0,0 5,-5 -12.5,0 5,5 Z"
         id="path959-5" />
    </marker>
    <marker
       style="overflow:visible"
       id="Arrow1Send-6"
       refX="0"
       refY="0"
       orient="auto"
       inkscape:stockid="Arrow1Send"
       inkscape:isstock="true">
      <path
         transform="matrix(-0.2,0,0,-0.2,-1.2,0)"
         style="fill:#00ff00;fill-opacity:1;fill-rule:evenodd;stroke:#00ff00;stroke-width:1pt;stroke-opacity:1"
         d="M 0,0 5,-5 -12.5,0 5,5 Z"
         id="path962-2" />
    </marker>
    <marker
       style="overflow:visible"
       id="Arrow1Sstart-1"
       refX="0"
       refY="0"
       orient="auto"
       inkscape:stockid="Arrow1Sstart"
       inkscape:isstock="true">
      <path
         transform="matrix(0.2,0,0,0.2,1.2,0)"
         style="fill:#00a932;fill-opacity:1;fill-rule:evenodd;stroke:#00a932;stroke-width:1pt;stroke-opacity:1"
         d="M 0,0 5,-5 -12.5,0 5,5 Z"
         id="path959-2" />
    </marker>
    <marker
       style="overflow:visible"
       id="Arrow1Send-7"
       refX="0"
       refY="0"
       orient="auto"
       inkscape:stockid="Arrow1Send"
       inkscape:isstock="true">
      <path
         transform="matrix(-0.2,0,0,-0.2,-1.2,0)"
         style="fill:#00a932;fill-opacity:1;fill-rule:evenodd;stroke:#00a932;stroke-width:1pt;stroke-opacity:1"
         d="M 0,0 5,-5 -12.5,0 5,5 Z"
         id="path962-0" />
    </marker>
    <marker
       style="overflow:visible"
       id="Arrow1Send-62"
       refX="0"
       refY="0"
       orient="auto"
       inkscape:stockid="Arrow1Send"
       inkscape:isstock="true">
      <path
         transform="matrix(-0.2,0,0,-0.2,-1.2,0)"
         style="fill:#5632e2;fill-opacity:1;fill-rule:evenodd;stroke:#5632e2;stroke-width:1pt;stroke-opacity:1"
         d="M 0,0 5,-5 -12.5,0 5,5 Z"
         id="path962-6" />
    </marker>
    <marker
       style="overflow:visible"
       id="Arrow1Mstart-3"
       refX="0"
       refY="0"
       orient="auto"
       inkscape:stockid="Arrow1Mstart"
       inkscape:isstock="true">
      <path
         transform="matrix(0.4,0,0,0.4,4,0)"
         style="fill:#ff0000;fill-opacity:1;fill-rule:evenodd;stroke:#ff0000;stroke-width:1pt;stroke-opacity:1"
         d="M 0,0 5,-5 -12.5,0 5,5 Z"
         id="path953-7" />
    </marker>
    <marker
       style="overflow:visible"
       id="Arrow1Mstart-3-9"
       refX="0"
       refY="0"
       orient="auto"
       inkscape:stockid="Arrow1Mstart"
       inkscape:isstock="true">
      <path
         transform="matrix(0.4,0,0,0.4,4,0)"
         style="fill:#ff0000;fill-opacity:1;fill-rule:evenodd;stroke:#ff0000;stroke-width:1pt;stroke-opacity:1"
         d="M 0,0 5,-5 -12.5,0 5,5 Z"
         id="path953-7-2" />
    </marker>
    <marker
       style="overflow:visible"
       id="StopL-1"
       refX="0"
       refY="0"
       orient="auto"
       inkscape:stockid="StopL"
       inkscape:isstock="true">
      <path
         transform="scale(0.8)"
         style="fill:none;fill-opacity:0.75;fill-rule:evenodd;stroke:#5632e2;stroke-width:1pt;stroke-opacity:1"
         d="M 0,5.65 V -5.65"
         id="path1116-2" />
    </marker>
    <marker
       style="overflow:visible"
       id="marker7863-9"
       refX="0"
       refY="0"
       orient="auto"
       inkscape:stockid="StopL"
       inkscape:isstock="true">
      <path
         transform="scale(0.8)"
         style="fill:none;fill-opacity:0.75;fill-rule:evenodd;stroke:#5632e2;stroke-width:1pt;stroke-opacity:1"
         d="M 0,5.65 V -5.65"
         id="path7861-3" />
    </marker>
    <marker
       style="overflow:visible"
       id="StopL-9"
       refX="0"
       refY="0"
       orient="auto"
       inkscape:stockid="StopL"
       inkscape:isstock="true">
      <path
         transform="scale(0.8)"
         style="fill:none;fill-opacity:0.75;fill-rule:evenodd;stroke:#00a932;stroke-width:1pt;stroke-opacity:1"
         d="M 0,5.65 V -5.65"
         id="path1116-4" />
    </marker>
    <marker
       style="overflow:visible"
       id="marker7863-7"
       refX="0"
       refY="0"
       orient="auto"
       inkscape:stockid="StopL"
       inkscape:isstock="true">
      <path
         transform="scale(0.8)"
         style="fill:none;fill-opacity:0.75;fill-rule:evenodd;stroke:#00a932;stroke-width:1pt;stroke-opacity:1"
         d="M 0,5.65 V -5.65"
         id="path7861-8" />
    </marker>
  </defs>
  <sodipodi:namedview
     id="base"
     pagecolor="#ffffff"
     bordercolor="#666666"
     borderopacity="1.0"
     inkscape:pageopacity="0.0"
     inkscape:pageshadow="2"
     inkscape:zoom="0.35"
     inkscape:cx="1971.2703"
     inkscape:cy="1044.7663"
     inkscape:document-units="mm"
     inkscape:current-layer="layer1"
     inkscape:document-rotation="0"
     showgrid="false"
     inkscape:window-width="1848"
     inkscape:window-height="1016"
     inkscape:window-x="72"
     inkscape:window-y="27"
     inkscape:window-maximized="1" />
  <metadata
     id="metadata5">
    <rdf:RDF>
      <cc:Work
         rdf:about="">
        <dc:format>image/svg+xml</dc:format>
        <dc:type
           rdf:resource="http://purl.org/dc/dcmitype/StillImage" />
        <dc:title></dc:title>
      </cc:Work>
    </rdf:RDF>
  </metadata>
  <g
     inkscape:label="Calque 1"
     inkscape:groupmode="layer"
     id="layer1">
    <path
       style="fill:#4bff00;fill-opacity:1;stroke-width:0.89884"
       d="M 24.684622,247.54735 V 20.139777 H 251.19337 477.70212 V 247.54735 474.95495 H 251.19337 24.684622 Z m 26.12557,205.80371 c 3.57345,-1.91246 1.07332,-7.7676 -2.75562,-6.45347 -2.86635,0.98377 -3.46903,3.7865 -1.28407,5.97148 1.671039,1.67101 1.79118,1.68534 4.039689,0.482 z m 406.851128,-1.47547 c 1.16776,-1.76178 1.10929,-2.14404 -0.58736,-3.84068 -1.45072,-1.45074 -2.26862,-1.67842 -3.55551,-0.9897 -2.50161,1.33883 -3.03612,3.66766 -1.28571,5.60188 1.88212,2.07967 3.71102,1.81975 5.42858,-0.7715 z M 332.08935,389.11533 v -61.57084 h 12.13438 12.13441 v 37.68725 c 0,41.94585 -0.21437,40.5122 6.06062,40.5122 1.77963,0 3.97537,-0.66939 4.87944,-1.48757 1.55507,-1.40732 1.64374,-4.19602 1.64374,-51.68353 v -50.19599 h -17.34771 c -12.29418,0 -17.66186,-0.31419 -18.42627,-1.07861 -0.72201,-0.722 -1.07861,-4.73392 -1.07861,-12.13439 v -11.05579 h 37.68724 c 42.13754,0 40.5122,0.25293 40.5122,-6.30514 0,-6.51583 1.93388,-6.27868 -51.20238,-6.27868 h -47.207 l -20.90515,20.89095 -20.90516,20.89095 v 46.92953 c 0,33.69923 0.29419,47.57488 1.04311,49.21886 0.88062,1.93277 1.64072,2.28941 4.87945,2.28941 6.9732,0 6.66123,1.89731 6.66123,-40.5122 v -37.68725 h 11.05581 c 7.40047,0 11.4124,0.35659 12.13438,1.07862 0.81444,0.81442 1.07861,14.00769 1.07861,53.86643 0,46.79052 -0.16032,52.94832 -1.41246,54.20033 -1.25156,1.25153 -7.34445,1.41246 -53.48124,1.41246 -50.87029,0 -52.11012,-0.0415 -53.86644,-1.7977 -1.66813,-1.6681 -1.79769,-2.99613 -1.79769,-18.42628 V 401.24971 H 146.07955 95.795251 l -1.39924,1.99769 c -2.01262,2.87343 -1.7263,5.84655 0.80703,8.37989 l 2.20624,2.20624 h 37.342899 37.34289 v 18.42632 18.42631 h 79.99713 79.99715 z m -171.52531,37.61214 c 1.04138,-0.94243 1.64374,-2.73541 1.64374,-4.89267 0,-6.3224 0.79576,-6.20357 -41.54684,-6.20357 H 83.109492 v -33.25725 -33.25723 h 38.618678 c 37.26122,0 38.65138,-0.0612 39.54915,-1.73858 1.37555,-2.57026 1.12975,-6.92216 -0.48206,-8.53392 -1.24429,-1.24429 -6.48063,-1.4125 -43.97916,-1.4125 -37.498528,0 -42.734858,0.16817 -43.979148,1.4125 -1.24408,1.24407 -1.41248,6.45958 -1.41248,43.7479 0,38.13215 0.14772,42.49858 1.48758,43.97915 1.40096,1.54804 3.94831,1.64374 43.747878,1.64374 38.06229,0 42.42359,-0.14777 43.90405,-1.48757 z m 134.73176,0.5571 c 1.68206,-0.9002 1.73862,-2.34189 1.73862,-44.31302 0,-32.5435 -0.26938,-43.65203 -1.0786,-44.46118 -0.59327,-0.59321 -2.58677,-1.07862 -4.43003,-1.07862 -6.40802,0 -6.17636,-1.51952 -6.17636,40.51224 v 37.68724 H 252.0922 218.83496 v -37.45596 c 0,-42.07124 0.20793,-40.74352 -6.38025,-40.74352 -6.36962,0 -6.20357,-1.215 -6.20357,45.39168 0,36.01208 0.18202,41.65606 1.39924,43.39395 l 1.39924,1.99766 h 42.25379 c 27.4077,0 42.86466,-0.32679 43.99239,-0.93047 z m 136.06486,-1.06719 c 1.21766,-1.73849 1.39924,-7.41545 1.39924,-43.7479 0,-37.58765 -0.14827,-41.91409 -1.48757,-43.39396 -1.88071,-2.07813 -7.23109,-2.16652 -9.45249,-0.15631 -1.54256,1.39598 -1.64379,3.8032 -1.64379,39.09974 v 37.61214 h -33.25724 -33.2572 v -38.02114 c 0,-28.3735 -0.27383,-38.2948 -1.07861,-39.0997 -1.3971,-1.3971 -8.13067,-1.3971 -9.52777,0 -0.80878,0.80878 -1.07862,11.81053 -1.07862,43.97915 0,37.80204 0.16786,43.06842 1.41249,44.31303 1.2443,1.24429 6.48181,1.41245 43.99238,1.41245 h 42.57992 z m -199.2228,-21.55205 c 0.81207,-0.81207 1.07861,-12.97176 1.07861,-49.2047 V 307.33455 L 212.32552,286.4294 191.43457,265.52424 h -47.01264 l -49.530971,0.33714 -2.20624,2.20625 c -2.533319,2.53333 -2.819648,5.50645 -0.80703,8.37987 l 1.39924,1.9977 40.285551,3.05808 38.47869,5.06679 v 10.3958 c 0,5.71769 -0.93047,12.13438 -0.93047,12.13438 -0.90385,1.68888 0,0 -54.52909,-3.32818 -40.158898,-2.45109 -59.440063,-4.21519 -59.440063,-4.21519 0,0 -0.240737,-14.14524 1.767883,-54.34616 l 2.627796,-52.59324 1.997696,-1.39923 c 0,0 5.01188,-1.39923 18.4263,-1.39923 h 16.42863 v -49.49553 c 0,-32.39961 -0.32134,-50.096032 -0.93047,-51.234112 -0.70317,-1.3139 -1.89514,-1.7386 -4.87944,-1.7386 -7.104581,0 -6.77391,-1.97758 -6.77391,40.512192 v 37.68726 H 67.379721 48.953411 v 79.99712 79.99714 h 61.570829 61.57083 v 12.13438 12.13442 h -37.57966 c -42.339529,0 -41.028349,-0.20112 -41.028349,6.2919 0,6.59996 -2.60279,6.29193 53.162739,6.29193 h 49.71406 V 347.9685 c 0,-21.56258 -0.7795,-20.42401 13.98305,-20.42401 h 11.18459 v 38.02113 c 0,28.37351 0.27369,38.29478 1.07861,39.09971 0.59324,0.59325 2.73699,1.07861 4.76387,1.07861 2.0269,0 4.17065,-0.48541 4.76388,-1.07861 z m 34.7343,-0.91908 c 1.19894,-1.71168 1.39924,-6.31534 1.39924,-32.1584 0,-25.84306 -0.20042,-30.44668 -1.39924,-32.1584 -1.33738,-1.9094 -1.97979,-1.9977 -14.53542,-1.9977 -10.96204,0 -13.4083,0.24628 -14.77998,1.48761 -1.53241,1.38681 -1.64376,3.60478 -1.64376,32.7436 0,27.21612 0.18257,31.4386 1.41248,32.66852 1.15741,1.15743 3.82616,1.41246 14.77994,1.41246 12.79466,0 13.42746,-0.0856 14.76674,-1.99769 z m 135.29541,0.25918 c 0.58979,-1.10209 0.93046,-13.08998 0.93046,-32.74361 0,-27.19817 -0.17632,-31.18129 -1.4354,-32.44046 -1.21183,-1.21178 -3.5531,-1.39683 -15.03029,-1.18773 -13.4847,0.24558 -13.60421,0.26593 -14.74899,2.49474 -1.71557,3.34023 -1.22215,62.00992 0.53933,64.13052 1.04892,1.26281 3.29808,1.48512 15.024,1.48512 12.71425,0 13.86302,-0.13552 14.72089,-1.73858 z m 14.23336,0.65997 c 0.80491,-0.80494 1.0786,-10.7262 1.0786,-39.09971 v -38.02123 h 18.42629 18.42633 v -79.99711 -79.99712 h -61.12144 -61.12136 v -12.1344 -12.1344 h 37.10201 c 41.91662,0 41.09743,0.12521 41.09743,-6.27868 0,-6.66619 3.04042,-6.30515 -53.09602,-6.30515 h -50.27108 v 17.49586 c 0,16.37768 -0.11107,17.55529 -1.7386,18.4263 -0.9562,0.51174 -6.4167,0.93047 -12.1344,0.93047 h -10.3958 V 130.1891 c 0,-24.03506 -0.33189,-37.981253 -0.93045,-39.099723 -0.70391,-1.31525 -1.89527,-1.7386 -4.89269,-1.7386 -7.07938,0 -6.76065,-2.41366 -6.76065,51.202233 v 47.20686 l 20.44136,20.45588 20.44137,20.45588 h 48.58986 c 36.59365,0 48.85613,-0.26633 49.66849,-1.07861 0.59323,-0.59324 1.07861,-2.73699 1.07861,-4.76389 0,-2.02688 -0.48542,-4.17063 -1.07861,-4.76386 -0.80491,-0.80492 -10.72621,-1.07862 -39.09974,-1.07862 h -38.02109 v -11.21483 c 0,-10.7946 0.0795,-11.26693 2.1222,-12.60534 1.86445,-1.22167 8.42286,-1.36062 54.00348,-1.14429 50.16894,0.23813 51.92329,0.30384 53.15668,1.99103 1.06654,1.45892 1.27545,10.24669 1.27545,53.64173 0,45.9806 -0.16121,52.058 -1.41248,53.30943 -1.18459,1.18457 -4.15761,1.41247 -18.42628,1.41247 h -17.01385 v 50.60494 c 0,38.16092 0.26538,50.87017 1.0786,51.68354 0.59324,0.59325 2.73702,1.07861 4.76389,1.07861 2.02692,0 4.17064,-0.48541 4.76389,-1.07861 z m -255.83689,-7.59969 c 1.44237,-1.3053 1.64374,-3.0194 1.64374,-13.99116 0,-6.90016 -0.41699,-13.28277 -0.93046,-14.24221 -0.89341,-1.66935 -2.21607,-1.73859 -33.20628,-1.73859 H 95.795251 l -1.39924,1.9977 c -1.09294,1.5604 -1.39923,4.56628 -1.39923,13.73208 0,9.1658 0.30629,12.17168 1.39923,13.73209 l 1.39924,1.99766 h 31.562509 c 28.10789,0 31.74243,-0.16273 33.20628,-1.48757 z m 94.18886,-103.1847 c 1.39734,-1.68369 0.90926,-4.07769 -1.08773,-5.3353 -2.88202,-1.81496 -6.1717,1.8304 -4.82314,5.34462 0.64438,1.67927 4.51451,1.67317 5.91087,-0.01 z m -92.50133,3.53133 c -2.91162,0 1.61185,-6.73023 -0.21223,-8.74587 -1.39652,-1.54314 -5.6632,-1.25987 -41.25092,-4.46666 l -40.197202,-3.05808 0.779071,-33.64301 1.739252,-33.2086 h 37.905399 c 34.00999,0 38.0743,-0.15287 39.54914,-1.48758 2.22393,-2.01263 2.1413,-7.00331 -0.15392,-9.29855 -1.74602,-1.74602 -2.99614,-1.79769 -43.49436,-1.79769 -38.381809,0 -41.849029,0.12511 -43.613129,1.57298 -1.913919,1.57089 -1.733527,1.49815 -4.300352,44.48328 l -2.602623,43.58461 2.247111,1.15082 c 1.750131,0.8963 16.573274,2.39296 48.983223,4.06181 39.99512,2.05944 46.69986,0.85254 44.62159,0.85254 z m 269.23297,-6.21813 c 1.05817,-1.44771 1.27536,-8.90841 1.27536,-43.81865 0,-40.87543 -0.0539,-42.12509 -1.79772,-43.87157 -1.74589,-1.74589 -2.99611,-1.79769 -43.39394,-1.79769 -46.90482,0 -45.59163,-0.18088 -45.59163,6.27868 0,6.55811 -1.62536,6.30514 40.5122,6.30514 h 37.68724 v 33.25723 33.25724 H 382.5964 c -29.21006,0 -37.93178,0.25753 -39.16078,1.15616 -2.52964,1.84971 -1.69454,8.78934 1.23752,10.28396 1.74454,0.88927 11.56155,1.09501 43.89162,0.91987 40.04752,-0.21692 41.69341,-0.29254 42.91978,-1.97037 z M 160.21009,262.32732 c 1.91223,-1.33938 1.99769,-1.97165 1.99769,-14.77997 0,-12.80831 -0.0855,-13.44058 -1.99769,-14.77996 -2.85206,-1.99766 -63.043667,-1.64319 -65.761187,0.34387 -1.59432,1.16579 -2.741953,1.935 -2.741953,14.38743 0,12.45241 -0.628601,14.12336 0.965709,15.28914 2.71752,1.98711 64.685371,1.53712 67.537431,-0.4606 z m 248.081,0 c 1.90941,-1.33739 1.9977,-1.97979 1.9977,-14.53544 0,-10.96202 -0.24644,-13.40827 -1.48762,-14.77996 -1.38639,-1.53197 -3.59754,-1.64377 -32.51229,-1.64377 -27.60751,0 -31.20579,0.16382 -32.6685,1.48758 -1.45129,1.3134 -1.64377,3.04404 -1.64377,14.77996 0,12.71703 0.0866,13.35295 1.9977,14.69163 1.71171,1.19892 6.31534,1.39924 32.15839,1.39924 25.84304,0 30.4467,-0.20027 32.15839,-1.39924 z M 210.74536,249.34505 c 1.47127,-2.74911 -0.38484,-5.57416 -3.43111,-5.22222 -1.91011,0.22067 -2.47303,0.81883 -2.70805,2.87757 -0.46502,4.0739 4.24999,5.87464 6.13916,2.34465 z m 44.00754,0.4926 c 2.38772,-2.87705 -1.11928,-7.29662 -4.23368,-5.33531 -3.1121,1.95985 -2.00335,6.64039 1.57298,6.64039 0.86766,0 2.06495,-0.58728 2.6607,-1.30508 z m 44.04335,0 c 2.38776,-2.87705 -1.11924,-7.29662 -4.23367,-5.33531 -3.11208,1.95985 -2.00336,6.64039 1.57298,6.64039 0.86767,0 2.06499,-0.58728 2.66069,-1.30508 z m -86.03566,-41.60741 20.45588,-20.44137 v -48.14045 c 0,-36.2441 -0.26652,-48.406972 -1.07861,-49.219053 -1.3971,-1.39708 -8.13066,-1.39708 -9.52775,0 -0.80492,0.80493 -1.07861,10.726223 -1.07861,39.099733 v 38.02111 h -11.18459 c -10.53888,0 -11.26536,-0.11536 -12.58382,-1.99769 -1.22673,-1.75139 -1.39923,-8.32037 -1.39923,-53.28122 0,-44.960872 0.17252,-51.529842 1.39923,-53.281242 l 1.39924,-1.99769 h 52.14108 c 34.22328,0 52.73854,0.31979 53.87968,0.93047 1.62748,0.87101 1.7386,2.04862 1.7386,18.426309 v 17.495841 h 50.27108 c 56.13644,0 53.09602,0.36104 53.09602,-6.305161 0,-6.403819 0.81919,-6.27866 -41.09743,-6.27866 H 332.08935 V 62.834877 44.408567 H 252.0922 172.09507 v 61.570823 61.57084 h -12.1344 -12.1344 v -37.10205 c 0,-42.344193 0.20508,-41.097403 -6.76067,-41.097403 -2.9974,0 -4.18878,0.4233 -4.89267,1.7386 -0.60908,1.13808 -0.93048,18.834503 -0.93048,51.234113 v 49.49553 h 16.62862 c 21.23751,0 20.224,-0.72072 20.224,14.3815 v 10.78613 H 133.94516 95.795252 l -2.316437,1.93243 c -1.03007,0.85932 -1.39923,2.82889 -1.39923,3.84479 0,1.01593 -0.112422,3.21343 0.65715,4.31215 l 1.39924,1.99769 49.914005,-0.40208 h 48.25474 z m 41.1884,-2.06135 c 3.52633,-1.88723 1.21907,-6.69286 -2.93088,-6.10457 -2.38093,0.33748 -3.29879,3.66691 -1.58139,5.73625 1.27981,1.54211 2.18151,1.6157 4.51227,0.36834 z M 81.370902,156.73247 c 1.677,-0.8975 1.73859,-2.28282 1.73859,-39.09971 V 79.463497 h 33.257238 33.25724 v 37.102023 c 0,41.68851 -0.087,41.09742 6.04739,41.09742 1.7869,0 3.9886,-0.6694 4.89268,-1.48758 1.54803,-1.40096 1.64374,-3.9483 1.64374,-43.74788 0,-38.062283 -0.14777,-42.423583 -1.48758,-43.904053 -1.40117,-1.54828 -3.95552,-1.64375 -43.97915,-1.64375 -37.430258,0 -42.659838,0.16822 -43.904058,1.41246 -1.24429,1.2443 -1.41247,6.48063 -1.41247,43.979173 0,37.49853 0.16817,42.73486 1.41247,43.97915 1.61176,1.61178 5.96366,1.85756 8.53391,0.48206 z m 49.762548,-0.48205 c 1.23062,-1.23059 1.41247,-5.48957 1.41247,-33.07746 0,-23.429878 -0.28043,-31.945523 -1.0786,-32.743613 -1.50783,-1.50782 -27.79451,-1.50782 -29.30233,0 -0.7987,0.79869 -1.07862,9.417951 -1.07862,33.212573 0,29.65552 0.12127,32.20463 1.57298,33.05013 0.86514,0.50392 7.30792,0.92848 14.3173,0.94351 10.413,0.0225 13.00272,-0.23108 14.1568,-1.38514 z m 86.05776,-0.0751 c 1.54256,-1.39594 1.64375,-3.80316 1.64375,-39.09968 V 79.463467 h 33.25724 33.25723 v 37.687253 c 0,33.06268 0.17322,37.86058 1.41249,39.09972 1.61173,1.61176 5.96363,1.85756 8.53388,0.48206 1.68216,-0.90027 1.73862,-2.34358 1.73862,-44.46117 0,-42.117603 -0.0564,-43.560903 -1.73862,-44.461163 -1.12773,-0.60358 -16.58469,-0.93049 -43.99239,-0.93049 h -42.25379 l -1.39924,1.99768 c -1.21724,1.73786 -1.39924,7.38185 -1.39924,43.393953 0,46.44262 -0.14002,45.39163 6.0474,45.39163 1.78691,0 3.9886,-0.6694 4.89267,-1.48758 z m 49.68095,-0.51012 c 1.19894,-1.71168 1.39924,-6.31531 1.39924,-32.15836 0,-25.84305 -0.20042,-30.446692 -1.39924,-32.158392 -1.34298,-1.91738 -1.95601,-1.997691 -15.24873,-1.997691 -12.77265,0 -13.92183,0.135171 -14.77996,1.738601 -0.58942,1.101339 -0.93047,13.018112 -0.93047,32.512332 0,27.3739 0.16432,30.95532 1.48757,32.41748 1.3134,1.45127 3.04404,1.64375 14.77996,1.64375 12.71703,0 13.35296,-0.0864 14.69163,-1.9977 z m 164.24399,0.51012 c 1.54801,-1.40091 1.64375,-3.94826 1.64375,-43.74783 0,-38.062292 -0.14777,-42.423592 -1.48757,-43.904062 -1.4009,-1.54794 -3.94538,-1.64375 -43.65307,-1.64375 -27.34678,0 -42.77646,0.32704 -43.90402,0.93046 -1.31527,0.7039 -1.73863,1.89529 -1.73863,4.89268 0,6.96578 -1.24677,6.76067 41.09745,6.76067 h 37.10199 v 32.807832 32.80781 h -37.10199 c -42.33342,0 -41.09745,-0.20298 -41.09745,6.74762 0,2.81287 0.45265,4.21279 1.57297,4.86535 1.00592,0.58587 16.77789,0.92603 43.74794,0.94351 38.00682,0.0245 42.33733,-0.11967 43.81863,-1.46025 z m -21.90597,-29.25285 c 1.50783,-1.50782 1.50783,-27.794505 0,-29.302321 -1.54646,-1.546435 -64.60851,-1.546435 -66.15495,0 -1.50782,1.507816 -1.50782,27.794501 0,29.302321 1.54644,1.54643 64.60849,1.54643 66.15495,0 z M 52.369522,45.230467 c 0.378169,-3.25332 -1.890741,-4.99129 -4.791001,-3.66985 -3.97014,1.80891 -2.17029,6.77585 2.26742,6.257241 1.668621,-0.19499 2.32353,-0.86647 2.523581,-2.587391 z m 405.523168,1.0409 c 1.6966,-3.17017 -0.96169,-6.11888 -4.50298,-4.99492 -3.69563,1.17295 -2.54648,6.7275 1.39184,6.7275 1.23657,0 2.58606,-0.75153 3.11114,-1.73258 z"
       id="path869-3"
       sodipodi:nodetypes="cccccccccssssssssssccccsssscssscssscccsssscssssssscccssccccccccssscccsssssssssscsssscccsssscscssssscccsssssscssscccccsscccssscscsscsssscccccccccssscsscssssssssssssssssssssssscccccccccssscssscsssscccssssscssssssscssssssssscssscsscssccssscccsssssscsssssscssscccssssssssssssssssssssssssssssssssssccsssscsssscssscssscccccccccsssscsscccsssccccssssssscccssssssssssssssssscssscccsssssscsssssssssssssssssssssscccsssssssssssssssssss" />
    <path
       style="fill:#000000;stroke-width:0.89884"
       d="M 24.684623,247.54735 V 20.139779 H 251.19337 477.70212 V 247.54735 474.95495 H 251.19337 24.684623 Z m 26.12557,205.80371 c 3.573451,-1.91246 1.073313,-7.7676 -2.755625,-6.45347 -2.866348,0.98377 -3.469031,3.7865 -1.284066,5.97148 1.671034,1.67101 1.791179,1.68534 4.039691,0.482 z m 406.851127,-1.47547 c 1.16776,-1.76178 1.10929,-2.14404 -0.58736,-3.84068 -1.45072,-1.45074 -2.26862,-1.67842 -3.55551,-0.9897 -2.50161,1.33883 -3.03612,3.66766 -1.28571,5.60188 1.88212,2.07967 3.71102,1.81975 5.42858,-0.7715 z M 332.08935,389.11533 v -61.57084 h 12.13438 12.13441 v 37.68725 c 0,41.94585 -0.21437,40.5122 6.06062,40.5122 1.77963,0 3.97537,-0.66939 4.87944,-1.48757 1.55507,-1.40732 1.64374,-4.19602 1.64374,-51.68353 v -50.19599 h -17.34771 c -12.29418,0 -17.66186,-0.31419 -18.42627,-1.07861 -0.72201,-0.722 -1.07861,-4.73392 -1.07861,-12.13439 v -11.05579 h 37.68724 c 42.13754,0 40.5122,0.25293 40.5122,-6.30514 0,-6.51583 1.93388,-6.27868 -51.20238,-6.27868 h -47.207 l -20.90515,20.89095 -20.90516,20.89095 v 46.92953 c 0,33.69923 0.29419,47.57488 1.04311,49.21886 0.88062,1.93277 1.64072,2.28941 4.87945,2.28941 6.9732,0 6.66123,1.89731 6.66123,-40.5122 v -37.68725 h 11.05581 c 7.40047,0 11.4124,0.35659 12.13438,1.07862 0.81444,0.81442 1.07861,14.00769 1.07861,53.86643 0,46.79052 -0.16032,52.94832 -1.41246,54.20033 -1.25156,1.25153 -7.34445,1.41246 -53.48124,1.41246 -50.87029,0 -52.11012,-0.0415 -53.86644,-1.7977 -1.66813,-1.6681 -1.79769,-2.99613 -1.79769,-18.42628 V 401.24971 H 146.07955 95.795244 l -1.399234,1.99769 c -2.012626,2.87343 -1.726302,5.84655 0.807025,8.37989 l 2.206243,2.20624 h 37.342902 37.34289 v 18.42632 18.42631 h 79.99713 79.99715 z m -171.52531,37.61214 c 1.04138,-0.94243 1.64374,-2.73541 1.64374,-4.89267 0,-6.3224 0.79576,-6.20357 -41.54684,-6.20357 H 83.109485 v -33.25725 -33.25723 h 38.618685 c 37.26122,0 38.65138,-0.0612 39.54915,-1.73858 1.37555,-2.57026 1.12975,-6.92216 -0.48206,-8.53392 -1.24429,-1.24429 -6.48063,-1.4125 -43.97916,-1.4125 -37.498534,0 -42.734866,0.16817 -43.979157,1.4125 -1.244081,1.24407 -1.412475,6.45958 -1.412475,43.7479 0,38.13215 0.147717,42.49858 1.487579,43.97915 1.400954,1.54804 3.948306,1.64374 43.747883,1.64374 38.06229,0 42.42359,-0.14777 43.90405,-1.48757 z m 134.73176,0.5571 c 1.68206,-0.9002 1.73862,-2.34189 1.73862,-44.31302 0,-32.5435 -0.26938,-43.65203 -1.0786,-44.46118 -0.59327,-0.59321 -2.58677,-1.07862 -4.43003,-1.07862 -6.40802,0 -6.17636,-1.51952 -6.17636,40.51224 v 37.68724 H 252.0922 218.83496 v -37.45596 c 0,-42.07124 0.20793,-40.74352 -6.38025,-40.74352 -6.36962,0 -6.20357,-1.215 -6.20357,45.39168 0,36.01208 0.18202,41.65606 1.39924,43.39395 l 1.39924,1.99766 h 42.25379 c 27.4077,0 42.86466,-0.32679 43.99239,-0.93047 z m 136.06486,-1.06719 c 1.21766,-1.73849 1.39924,-7.41545 1.39924,-43.7479 0,-37.58765 -0.14827,-41.91409 -1.48757,-43.39396 -1.88071,-2.07813 -7.23109,-2.16652 -9.45249,-0.15631 -1.54256,1.39598 -1.64379,3.8032 -1.64379,39.09974 v 37.61214 h -33.25724 -33.2572 v -38.02114 c 0,-28.3735 -0.27383,-38.2948 -1.07861,-39.0997 -1.3971,-1.3971 -8.13067,-1.3971 -9.52777,0 -0.80878,0.80878 -1.07862,11.81053 -1.07862,43.97915 0,37.80204 0.16786,43.06842 1.41249,44.31303 1.2443,1.24429 6.48181,1.41245 43.99238,1.41245 h 42.57992 z m -199.2228,-21.55205 c 0.81207,-0.81207 1.07861,-12.97176 1.07861,-49.2047 V 307.33455 L 212.32552,286.4294 191.43457,265.52424 H 144.42193 97.409278 l -2.206243,2.20625 c -2.533327,2.53332 -2.819651,5.50645 -0.807025,8.37987 l 1.399234,1.9977 h 38.149916 38.14991 v 10.3958 c 0,5.71769 -0.4187,11.17817 -0.93047,12.13438 -0.90385,1.68888 -2.45391,1.73861 -54.20031,1.73861 -40.233637,0 -53.533793,-0.26388 -54.348447,-1.07861 -0.814432,-0.81445 -1.078617,-14.01065 -1.078617,-53.87969 v -52.80107 l 1.997693,-1.39923 c 1.631167,-1.14251 5.011872,-1.39923 18.426301,-1.39923 h 16.428628 v -49.49553 c 0,-32.39961 -0.321338,-50.096034 -0.930475,-51.234112 -0.703172,-1.313895 -1.895136,-1.738599 -4.87944,-1.738599 -7.104576,0 -6.773908,-1.977581 -6.773908,40.512191 v 37.68726 H 67.379715 48.953414 v 79.99712 79.99714 h 61.570826 61.57083 v 12.13438 12.13442 h -37.57966 c -42.339539,0 -41.028351,-0.20112 -41.028351,6.2919 0,6.59996 -2.602794,6.29193 53.162741,6.29193 h 49.71406 V 347.9685 c 0,-21.56258 -0.7795,-20.42401 13.98305,-20.42401 h 11.18459 v 38.02113 c 0,28.37351 0.27369,38.29478 1.07861,39.09971 0.59324,0.59325 2.73699,1.07861 4.76387,1.07861 2.0269,0 4.17065,-0.48541 4.76388,-1.07861 z m 34.7343,-0.91908 c 1.19894,-1.71168 1.39924,-6.31534 1.39924,-32.1584 0,-25.84306 -0.20042,-30.44668 -1.39924,-32.1584 -1.33738,-1.9094 -1.97979,-1.9977 -14.53542,-1.9977 -10.96204,0 -13.4083,0.24628 -14.77998,1.48761 -1.53241,1.38681 -1.64376,3.60478 -1.64376,32.7436 0,27.21612 0.18257,31.4386 1.41248,32.66852 1.15741,1.15743 3.82616,1.41246 14.77994,1.41246 12.79466,0 13.42746,-0.0856 14.76674,-1.99769 z m 135.29541,0.25918 c 0.58979,-1.10209 0.93046,-13.08998 0.93046,-32.74361 0,-27.19817 -0.17632,-31.18129 -1.4354,-32.44046 -1.21183,-1.21178 -3.5531,-1.39683 -15.03029,-1.18773 -13.4847,0.24558 -13.60421,0.26593 -14.74899,2.49474 -1.71557,3.34023 -1.22215,62.00992 0.53933,64.13052 1.04892,1.26281 3.29808,1.48512 15.024,1.48512 12.71425,0 13.86302,-0.13552 14.72089,-1.73858 z m 14.23336,0.65997 c 0.80491,-0.80494 1.0786,-10.7262 1.0786,-39.09971 v -38.02123 h 18.42629 18.42633 v -79.99711 -79.99712 h -61.12144 -61.12136 v -12.1344 -12.1344 h 37.10201 c 41.91662,0 41.09743,0.12521 41.09743,-6.27868 0,-6.66619 3.04042,-6.30515 -53.09602,-6.30515 h -50.27108 v 17.49586 c 0,16.37768 -0.11107,17.55529 -1.7386,18.4263 -0.9562,0.51174 -6.4167,0.93047 -12.1344,0.93047 h -10.3958 V 130.1891 c 0,-24.03506 -0.33189,-37.981251 -0.93045,-39.099722 -0.70391,-1.31525 -1.89527,-1.738599 -4.89269,-1.738599 -7.07938,0 -6.76065,-2.413663 -6.76065,51.202231 v 47.20686 l 20.44136,20.45588 20.44137,20.45588 h 48.58986 c 36.59365,0 48.85613,-0.26633 49.66849,-1.07861 0.59323,-0.59324 1.07861,-2.73699 1.07861,-4.76389 0,-2.02688 -0.48542,-4.17063 -1.07861,-4.76386 -0.80491,-0.80492 -10.72621,-1.07862 -39.09974,-1.07862 h -38.02109 v -11.21483 c 0,-10.7946 0.0795,-11.26693 2.1222,-12.60534 1.86445,-1.22167 8.42286,-1.36062 54.00348,-1.14429 50.16894,0.23813 51.92329,0.30384 53.15668,1.99103 1.06654,1.45892 1.27545,10.24669 1.27545,53.64173 0,45.9806 -0.16121,52.058 -1.41248,53.30943 -1.18459,1.18457 -4.15761,1.41247 -18.42628,1.41247 h -17.01385 v 50.60494 c 0,38.16092 0.26538,50.87017 1.0786,51.68354 0.59324,0.59325 2.73702,1.07861 4.76389,1.07861 2.02692,0 4.17064,-0.48541 4.76389,-1.07861 z m -255.83689,-7.59969 c 1.44237,-1.3053 1.64374,-3.0194 1.64374,-13.99116 0,-6.90016 -0.41699,-13.28277 -0.93046,-14.24221 -0.89341,-1.66935 -2.21607,-1.73859 -33.20628,-1.73859 H 95.795244 l -1.399234,1.9977 c -1.092948,1.5604 -1.399233,4.56628 -1.399233,13.73208 0,9.1658 0.306285,12.17168 1.399233,13.73209 l 1.399234,1.99766 h 31.562516 c 28.10789,0 31.74243,-0.16273 33.20628,-1.48757 z m 94.18886,-103.1847 c 1.39734,-1.68369 0.90926,-4.07769 -1.08773,-5.3353 -2.88202,-1.81496 -6.1717,1.8304 -4.82314,5.34462 0.64438,1.67927 4.51451,1.67317 5.91087,-0.01 z m -93.82042,-2.6868 c 1.71815,-2.35064 1.61185,-6.73023 -0.21223,-8.74587 -1.39652,-1.54314 -3.81724,-1.64375 -39.54915,-1.64375 H 83.10954 v -33.25724 -33.25723 h 37.9054 c 34.00999,0 38.0743,-0.15287 39.54914,-1.48758 2.22393,-2.01263 2.1413,-7.00331 -0.15392,-9.29855 -1.74602,-1.74602 -2.99614,-1.79769 -43.49436,-1.79769 -38.381815,0 -41.849036,0.12511 -43.613132,1.57298 -1.913919,1.57089 -1.91614,1.63009 -1.672557,44.69111 l 0.243879,43.11814 2.247103,1.15082 c 1.750135,0.8963 11.457325,1.10093 43.891617,0.92523 40.04752,-0.21692 41.6934,-0.29254 42.91982,-1.97037 z m 270.55206,0 c 1.05817,-1.44771 1.27536,-8.90841 1.27536,-43.81865 0,-40.87543 -0.0539,-42.12509 -1.79772,-43.87157 -1.74589,-1.74589 -2.99611,-1.79769 -43.39394,-1.79769 -46.90482,0 -45.59163,-0.18088 -45.59163,6.27868 0,6.55811 -1.62536,6.30514 40.5122,6.30514 h 37.68724 v 33.25723 33.25724 H 382.5964 c -29.21006,0 -37.93178,0.25753 -39.16078,1.15616 -2.52964,1.84971 -1.69454,8.78934 1.23752,10.28396 1.74454,0.88927 11.56155,1.09501 43.89162,0.91987 40.04752,-0.21692 41.69341,-0.29254 42.91978,-1.97037 z M 160.21009,262.32732 c 1.91223,-1.33938 1.99769,-1.97165 1.99769,-14.77997 0,-12.80831 -0.0855,-13.44058 -1.99769,-14.77996 -2.85206,-1.99766 -62.301594,-2.11052 -65.019117,-0.12346 -1.594321,1.16579 -1.744774,2.45096 -1.744774,14.90339 0,12.45241 0.150468,13.73759 1.744774,14.90337 2.717523,1.98711 62.167057,1.87426 65.019117,-0.12346 z m 248.081,0 c 1.90941,-1.33739 1.9977,-1.97979 1.9977,-14.53544 0,-10.96202 -0.24644,-13.40827 -1.48762,-14.77996 -1.38639,-1.53197 -3.59754,-1.64377 -32.51229,-1.64377 -27.60751,0 -31.20579,0.16382 -32.6685,1.48758 -1.45129,1.3134 -1.64377,3.04404 -1.64377,14.77996 0,12.71703 0.0866,13.35295 1.9977,14.69163 1.71171,1.19892 6.31534,1.39924 32.15839,1.39924 25.84304,0 30.4467,-0.20027 32.15839,-1.39924 z M 210.74536,249.34505 c 1.47127,-2.74911 -0.38484,-5.57416 -3.43111,-5.22222 -1.91011,0.22067 -2.47303,0.81883 -2.70805,2.87757 -0.46502,4.0739 4.24999,5.87464 6.13916,2.34465 z m 44.00754,0.4926 c 2.38772,-2.87705 -1.11928,-7.29662 -4.23368,-5.33531 -3.1121,1.95985 -2.00335,6.64039 1.57298,6.64039 0.86766,0 2.06495,-0.58728 2.6607,-1.30508 z m 44.04335,0 c 2.38776,-2.87705 -1.11924,-7.29662 -4.23367,-5.33531 -3.11208,1.95985 -2.00336,6.64039 1.57298,6.64039 0.86767,0 2.06499,-0.58728 2.66069,-1.30508 z m -86.03566,-41.60741 20.45588,-20.44137 v -48.14045 c 0,-36.2441 -0.26652,-48.406974 -1.07861,-49.219045 -1.3971,-1.397088 -8.13066,-1.397088 -9.52775,0 -0.80492,0.804924 -1.07861,10.726215 -1.07861,39.099725 v 38.02111 h -11.18459 c -10.53888,0 -11.26536,-0.11536 -12.58382,-1.99769 -1.22673,-1.75139 -1.39923,-8.32037 -1.39923,-53.28122 0,-44.96087 0.17252,-51.529843 1.39923,-53.281243 l 1.39924,-1.997684 h 52.14108 c 34.22328,0 52.73854,0.319788 53.87968,0.930469 1.62748,0.871007 1.7386,2.048615 1.7386,18.42631 v 17.495837 h 50.27108 c 56.13644,0 53.09602,0.361043 53.09602,-6.305157 0,-6.403824 0.81919,-6.278664 -41.09743,-6.278664 H 332.08935 V 62.834876 44.408572 H 252.0922 172.09507 v 61.570818 61.57084 h -12.1344 -12.1344 v -37.10205 c 0,-42.344187 0.20508,-41.097401 -6.76067,-41.097401 -2.9974,0 -4.18878,0.423299 -4.89267,1.738599 -0.60908,1.138078 -0.93048,18.834502 -0.93048,51.234112 v 49.49553 h 16.62862 c 21.23751,0 20.224,-0.72072 20.224,14.3815 v 10.78613 H 133.94516 95.795244 l -1.399234,1.99769 c -0.76958,1.09873 -1.399233,2.82889 -1.399233,3.84479 0,1.01593 0.629653,2.7461 1.399233,3.84481 l 1.399234,1.99769 h 48.254736 48.25474 z m 41.1884,-2.06135 c 3.52633,-1.88723 1.21907,-6.69286 -2.93088,-6.10457 -2.38093,0.33748 -3.29879,3.66691 -1.58139,5.73625 1.27981,1.54211 2.18151,1.6157 4.51227,0.36834 z M 81.370891,156.73247 c 1.677002,-0.8975 1.738594,-2.28282 1.738594,-39.09971 V 79.463498 h 33.257245 33.25724 v 37.102022 c 0,41.68851 -0.087,41.09742 6.04739,41.09742 1.7869,0 3.9886,-0.6694 4.89268,-1.48758 1.54803,-1.40096 1.64374,-3.9483 1.64374,-43.74788 0,-38.06228 -0.14777,-42.42358 -1.48758,-43.904053 -1.40117,-1.548281 -3.95552,-1.643747 -43.97915,-1.643747 -37.430265,0 -42.659841,0.16822 -43.904067,1.412465 -1.244291,1.244296 -1.412465,6.480629 -1.412465,43.979165 0,37.49853 0.168169,42.73486 1.412465,43.97915 1.611763,1.61178 5.963658,1.85756 8.533908,0.48206 z m 49.762559,-0.48205 c 1.23062,-1.23059 1.41247,-5.48957 1.41247,-33.07746 0,-23.429875 -0.28043,-31.945516 -1.0786,-32.743609 -1.50783,-1.507818 -27.79451,-1.507818 -29.30233,0 -0.7987,0.798688 -1.07862,9.41795 -1.07862,33.212569 0,29.65552 0.12127,32.20463 1.57298,33.05013 0.86514,0.50392 7.30792,0.92848 14.3173,0.94351 10.413,0.0225 13.00272,-0.23108 14.1568,-1.38514 z m 86.05776,-0.0751 c 1.54256,-1.39594 1.64375,-3.80316 1.64375,-39.09968 V 79.463473 h 33.25724 33.25723 v 37.687247 c 0,33.06268 0.17322,37.86058 1.41249,39.09972 1.61173,1.61176 5.96363,1.85756 8.53388,0.48206 1.68216,-0.90027 1.73862,-2.34358 1.73862,-44.46117 0,-42.117597 -0.0564,-43.560901 -1.73862,-44.461162 -1.12773,-0.603574 -16.58469,-0.930488 -43.99239,-0.930488 h -42.25379 l -1.39924,1.997683 c -1.21724,1.737854 -1.39924,7.381849 -1.39924,43.393947 0,46.44262 -0.14002,45.39163 6.0474,45.39163 1.78691,0 3.9886,-0.6694 4.89267,-1.48758 z m 49.68095,-0.51012 c 1.19894,-1.71168 1.39924,-6.31531 1.39924,-32.15836 0,-25.843048 -0.20042,-30.446687 -1.39924,-32.158393 -1.34298,-1.917374 -1.95601,-1.997688 -15.24873,-1.997688 -12.77265,0 -13.92183,0.135166 -14.77996,1.738603 -0.58942,1.101339 -0.93047,13.018108 -0.93047,32.512328 0,27.3739 0.16432,30.95532 1.48757,32.41748 1.3134,1.45127 3.04404,1.64375 14.77996,1.64375 12.71703,0 13.35296,-0.0864 14.69163,-1.9977 z m 164.24399,0.51012 c 1.54801,-1.40091 1.64375,-3.94826 1.64375,-43.74783 0,-38.062295 -0.14777,-42.423589 -1.48757,-43.904057 -1.4009,-1.547942 -3.94538,-1.643754 -43.65307,-1.643754 -27.34678,0 -42.77646,0.327039 -43.90402,0.930459 -1.31527,0.703898 -1.73863,1.895292 -1.73863,4.892678 0,6.96578 -1.24677,6.760677 41.09745,6.760677 h 37.10199 v 32.807827 32.80781 h -37.10199 c -42.33342,0 -41.09745,-0.20298 -41.09745,6.74762 0,2.81287 0.45265,4.21279 1.57297,4.86535 1.00592,0.58587 16.77789,0.92603 43.74794,0.94351 38.00682,0.0245 42.33733,-0.11967 43.81863,-1.46025 z m -21.90597,-29.25285 c 1.50783,-1.50782 1.50783,-27.794503 0,-29.302319 -1.54646,-1.546435 -64.60851,-1.546435 -66.15495,0 -1.50782,1.507816 -1.50782,27.794499 0,29.302319 1.54644,1.54643 64.60849,1.54643 66.15495,0 z M 52.369518,45.230475 c 0.378169,-3.25333 -1.890737,-4.991298 -4.790997,-3.669857 -3.970141,1.808913 -2.170291,6.775849 2.267421,6.257244 1.668616,-0.19499 2.323533,-0.866475 2.523576,-2.587387 z m 405.523172,1.040898 c 1.6966,-3.170171 -0.96169,-6.118882 -4.50298,-4.994922 -3.69563,1.172953 -2.54648,6.727498 1.39184,6.727498 1.23657,0 2.58606,-0.751533 3.11114,-1.732576 z"
       id="path869" />
    <rect
       style="fill:#fb0000;fill-opacity:1;stroke:none;stroke-width:0.339722"
       id="rect881-6"
       width="25.028255"
       height="123.67311"
       x="307.06107"
       y="327.54453" />
    <text
       xml:space="preserve"
       style="font-style:normal;font-weight:normal;font-size:14.2522px;line-height:1.25;font-family:sans-serif;fill:#ff0000;fill-opacity:1;stroke:none;stroke-width:0.89884"
       x="228.00223"
       y="490.63159"
       id="text943"><tspan
         sodipodi:role="line"
         id="tspan941"
         x="228.00223"
         y="490.63159"
         style="font-size:14.2522px;fill:#ff0000;fill-opacity:1;stroke:#ff0000;stroke-width:0.89884;stroke-opacity:1">Dead space</tspan></text>
    <path
       style="fill:none;stroke:#ff0000;stroke-width:2.03833;stroke-linecap:butt;stroke-linejoin:miter;stroke-miterlimit:2.7;stroke-dasharray:none;stroke-opacity:1;marker-start:url(#Arrow1Mstart)"
       d="m 299.96394,435.34529 -29.38485,43.03547"
       id="path945"
       sodipodi:nodetypes="cc" />
    <path
       style="fill:none;fill-opacity:1;stroke:#5632e2;stroke-width:2;stroke-linecap:butt;stroke-linejoin:miter;stroke-miterlimit:4;stroke-dasharray:none;stroke-opacity:1;marker-start:url(#StopL);marker-end:url(#marker7863)"
       d="m 452.75429,215.04613 h -8.70636"
       id="path1431-1" />
    <path
       style="fill:none;fill-opacity:1;stroke:#5632e2;stroke-width:0.929616;stroke-linecap:butt;stroke-linejoin:miter;stroke-miterlimit:4;stroke-dasharray:none;stroke-opacity:1"
       d="m 343.12265,230.55544 9.29501,7.04308"
       id="path4280" />
    <path
       style="fill:none;fill-opacity:1;stroke:#5632e2;stroke-width:1.72448;stroke-linecap:butt;stroke-linejoin:miter;stroke-miterlimit:4;stroke-dasharray:none;stroke-opacity:1"
       d="m 441.97323,218.73168 -41.70282,18.18553"
       id="path4282" />
    <text
       xml:space="preserve"
       style="font-style:normal;font-weight:normal;font-size:11.6417px;line-height:1.25;font-family:sans-serif;fill:#5632e2;fill-opacity:1;stroke:#5632e2;stroke-width:0.898843;stroke-opacity:1"
       x="351.30157"
       y="246.83157"
       id="text4170"><tspan
         sodipodi:role="line"
         id="tspan4168"
         x="351.30157"
         y="246.83157"
         style="font-size:11.6417px;fill:#5632e2;fill-opacity:1;stroke:#5632e2;stroke-width:0.898843;stroke-opacity:1">Full ROM</tspan></text>
    <ellipse
       style="fill:none;fill-opacity:1;stroke:#5632e2;stroke-width:0.339721;stroke-miterlimit:4;stroke-dasharray:none;stroke-opacity:1"
       id="path4284"
       cx="376.8848"
       cy="242.80339"
       rx="33.434235"
       ry="8.3953114" />
    <text
       xml:space="preserve"
       style="font-style:normal;font-weight:normal;font-size:11.6417px;line-height:1.25;font-family:sans-serif;fill:#00a932;fill-opacity:1;stroke:#00a932;stroke-width:0.898843;stroke-opacity:1"
       x="361.69305"
       y="182.63083"
       id="text4170-7"><tspan
         sodipodi:role="line"
         id="tspan4168-9"
         x="361.69305"
         y="182.63083"
         style="font-size:11.6417px;fill:#00a932;fill-opacity:1;stroke:#00a932;stroke-width:0.898843;stroke-opacity:1">Half ROM</tspan></text>
    <ellipse
       style="fill:none;fill-opacity:1;stroke:#00a932;stroke-width:0.352083;stroke-miterlimit:4;stroke-dasharray:none;stroke-opacity:1"
       id="path4284-2"
       cx="389.78677"
       cy="178.60266"
       rx="35.938519"
       ry="8.3891296" />
    <path
       style="fill:none;stroke:#00a932;stroke-width:2;stroke-linecap:butt;stroke-linejoin:miter;stroke-miterlimit:4;stroke-dasharray:none;stroke-opacity:1"
       d="m 407.84728,185.88807 11.87154,17.81513"
       id="path4347" />
    <rect
       style="fill:#fb0000;fill-opacity:1;stroke:none;stroke-width:0.214524"
       id="rect881-6-0"
       width="25.028255"
       height="49.315632"
       x="172.09506"
       y="401.37061" />
    <rect
       style="fill:#fb0000;fill-opacity:1;stroke:none;stroke-width:0.185978"
       id="rect881-6-0-2"
       width="25.028255"
       height="37.064308"
       x="171.3356"
       y="327.33279" />
    <path
       style="fill:none;stroke:#ff0000;stroke-width:2.03833;stroke-linecap:butt;stroke-linejoin:miter;stroke-miterlimit:2.7;stroke-dasharray:none;stroke-opacity:1;marker-start:url(#Arrow1Mstart-3)"
       d="m 206.62239,439.60852 63.9567,38.77224"
       id="path945-5"
       sodipodi:nodetypes="cc" />
    <path
       style="fill:none;stroke:#ff0000;stroke-width:2.03833;stroke-linecap:butt;stroke-linejoin:miter;stroke-miterlimit:2.7;stroke-dasharray:none;stroke-opacity:1;marker-start:url(#Arrow1Mstart-3-9)"
       d="m 202.89334,369.12661 67.68575,109.25415"
       id="path945-5-2"
       sodipodi:nodetypes="cc" />
    <ellipse
       style="fill:none;fill-opacity:1;stroke:#ffa100;stroke-width:3;stroke-miterlimit:2.7;stroke-dasharray:none;stroke-opacity:1"
       id="path6090"
       cx="115.285"
       cy="296.63751"
       rx="65.39595"
       ry="19.040041" />
    <text
       xml:space="preserve"
       style="font-style:normal;font-weight:normal;font-size:11.6417px;line-height:1.25;font-family:sans-serif;fill:#ffa100;fill-opacity:1;stroke:#ffa100;stroke-width:0.264583;stroke-opacity:1"
       x="173.73962"
       y="242.16936"
       id="text6176"><tspan
         sodipodi:role="line"
         id="tspan6174"
         x="173.73962"
         y="242.16936"
         style="font-size:11.6417px;fill:#ffa100;fill-opacity:1;stroke:#ffa100;stroke-width:0.264583;stroke-opacity:1">Non rigid links</tspan></text>
    <path
       style="fill:none;stroke:#ffa100;stroke-width:2.3;stroke-linecap:butt;stroke-linejoin:miter;stroke-miterlimit:4;stroke-dasharray:none;stroke-opacity:1;marker-start:url(#marker6706)"
       d="m 94.547609,208.04981 76.545651,28.47587"
       id="path6180"
       sodipodi:nodetypes="cc" />
    <path
       style="fill:none;stroke:#ffa100;stroke-width:2.3;stroke-linecap:butt;stroke-linejoin:miter;stroke-miterlimit:4;stroke-dasharray:none;stroke-opacity:1;marker-start:url(#marker6818)"
       d="M 91.355402,274.39504 171.09326,236.52568"
       id="path6182"
       sodipodi:nodetypes="cc" />
    <ellipse
       style="fill:none;fill-opacity:1;stroke:#ffa100;stroke-width:3;stroke-miterlimit:2.7;stroke-dasharray:none;stroke-opacity:1"
       id="path6090-6"
       cx="245.64508"
       cy="-62.121117"
       rx="65.39595"
       ry="19.040041"
       transform="rotate(90)" />
    <path
       style="fill:none;fill-opacity:1;stroke:#5632e2;stroke-width:2;stroke-linecap:butt;stroke-linejoin:miter;stroke-miterlimit:4;stroke-dasharray:none;stroke-opacity:1;marker-start:url(#StopL-1);marker-end:url(#marker7863-9)"
       d="m 338.03776,227.13884 v -8.70636"
       id="path1431-1-1"
       inkscape:transform-center-x="0.2477349"
       inkscape:transform-center-y="-3.2272012" />
    <path
       style="fill:none;fill-opacity:1;stroke:#00a932;stroke-width:2;stroke-linecap:butt;stroke-linejoin:miter;stroke-miterlimit:4;stroke-dasharray:none;stroke-opacity:1;marker-start:url(#StopL-9);marker-end:url(#marker7863-7)"
       d="m 419.00799,212.21335 v -8.70636"
       id="path1431-1-4"
       inkscape:transform-center-x="-6.0870048"
       inkscape:transform-center-y="-3.9802671" />
  </g>
</svg>
