G04 EAGLE Gerber RS-274X export*
G75*
%MOMM*%
%FSLAX34Y34*%
%LPD*%
%INTop Copper*%
%IPPOS*%
%AMOC8*
5,1,8,0,0,1.08239X$1,22.5*%
G01*
%ADD10R,1.500000X0.600000*%
%ADD11R,0.508000X1.016000*%
%ADD12R,1.500000X7.500000*%
%ADD13R,1.000000X6.500000*%
%ADD14R,1.016000X1.905000*%
%ADD15R,1.900000X1.020000*%
%ADD16R,2.540000X1.270000*%
%ADD17R,1.905000X1.270000*%
%ADD18C,0.406400*%


D10*
X122860Y269240D03*
X122860Y256540D03*
X122860Y243840D03*
X122860Y231140D03*
X122860Y218440D03*
X122860Y205740D03*
X122860Y193040D03*
X176860Y193040D03*
X176860Y205740D03*
X176860Y218440D03*
X176860Y231140D03*
X176860Y243840D03*
X176860Y256540D03*
X176860Y269240D03*
D11*
X229870Y242140D03*
X239370Y220140D03*
X220370Y220140D03*
D12*
X103430Y336010D03*
X173430Y336010D03*
D13*
X128430Y331010D03*
X148430Y331010D03*
D14*
X242570Y260350D03*
X209550Y260350D03*
D15*
X119940Y41910D03*
X62940Y41910D03*
X119940Y67310D03*
X62940Y67310D03*
X119940Y92710D03*
X62940Y92710D03*
D16*
X66040Y139700D03*
X66040Y165100D03*
X66040Y190500D03*
X66040Y215900D03*
X66040Y241300D03*
X66040Y266700D03*
X172720Y68580D03*
X172720Y93980D03*
X219700Y93980D03*
X219700Y68580D03*
X219700Y43180D03*
D17*
X144780Y67310D03*
X144780Y34290D03*
X99060Y236220D03*
X99060Y269240D03*
D14*
X57150Y109220D03*
X24130Y109220D03*
D16*
X121920Y170180D03*
X121920Y144780D03*
X176520Y170180D03*
X176520Y144780D03*
D18*
X176860Y231140D02*
X166700Y231140D01*
X153742Y244098D01*
X153742Y281016D01*
X162286Y289560D02*
X173990Y289560D01*
X162286Y289560D02*
X153742Y281016D01*
X173990Y289560D02*
X213360Y289560D01*
X189220Y144780D02*
X196850Y137150D01*
X196850Y81280D01*
X238760Y81280D01*
X242570Y85090D02*
X242570Y143510D01*
X229870Y273050D02*
X213360Y289560D01*
X229870Y273050D02*
X229870Y259080D01*
X229870Y242140D01*
X229870Y156210D01*
X242570Y143510D01*
X242570Y85090D02*
X238760Y81280D01*
X229870Y259080D02*
X231140Y260350D01*
X242570Y260350D01*
X196850Y81280D02*
X96520Y81280D01*
X62940Y92710D02*
X57150Y98500D01*
X57150Y109220D01*
X57150Y130810D01*
X66040Y139700D01*
X62940Y92710D02*
X85090Y92710D01*
X96520Y81280D01*
X173990Y289560D02*
X173990Y335450D01*
X173430Y336010D01*
X128430Y331010D02*
X128430Y293336D01*
X162560Y205740D02*
X176860Y205740D01*
X136710Y231590D02*
X136710Y285056D01*
X128430Y293336D01*
X136710Y231590D02*
X162560Y205740D01*
X145128Y237142D02*
X145128Y289560D01*
X163830Y218440D02*
X176860Y218440D01*
X163830Y218440D02*
X145128Y237142D01*
X148430Y292862D02*
X148430Y331010D01*
X148430Y292862D02*
X145128Y289560D01*
X134794Y205692D02*
X122908Y205692D01*
X122860Y205740D01*
X134794Y205692D02*
X143822Y196664D01*
X143822Y159062D01*
X132080Y147320D01*
X124460Y147320D02*
X121920Y144780D01*
X124460Y147320D02*
X132080Y147320D01*
X121920Y170180D02*
X121920Y192100D01*
X122860Y193040D01*
X176520Y170180D02*
X176860Y170520D01*
X176860Y193040D01*
X48260Y285750D02*
X24130Y261620D01*
X103430Y291390D02*
X103430Y336010D01*
X97790Y285750D02*
X48260Y285750D01*
X97790Y285750D02*
X103430Y291390D01*
X24130Y261620D02*
X24130Y109220D01*
X24130Y36830D02*
X40640Y20320D01*
X219700Y43180D02*
X219700Y45143D01*
X162926Y20320D02*
X40640Y20320D01*
X162926Y20320D02*
X166370Y23764D01*
X166370Y40640D01*
X170873Y45143D01*
X219700Y45143D01*
X231140Y43180D02*
X252730Y64770D01*
X231140Y43180D02*
X219700Y43180D01*
X252730Y64770D02*
X252730Y148590D01*
X239370Y161950D01*
X24130Y109220D02*
X24130Y36830D01*
X239370Y161950D02*
X239370Y220140D01*
X195704Y259286D02*
X185750Y269240D01*
X176860Y269240D01*
X195704Y259286D02*
X195704Y161414D01*
X191516Y157226D01*
X147320Y144780D02*
X147320Y125730D01*
X159766Y157226D02*
X191516Y157226D01*
X159766Y157226D02*
X147320Y144780D01*
X85090Y215900D02*
X66040Y215900D01*
X95250Y134620D02*
X104140Y125730D01*
X147320Y125730D01*
X95250Y205740D02*
X85090Y215900D01*
X95250Y205740D02*
X95250Y134620D01*
X172720Y113030D02*
X172720Y93980D01*
X160020Y125730D02*
X147320Y125730D01*
X160020Y125730D02*
X172720Y113030D01*
X122860Y269240D02*
X99060Y269240D01*
X205740Y68580D02*
X219700Y68580D01*
X205740Y68580D02*
X190500Y53340D01*
X63500Y53340D01*
X62940Y52780D01*
X62940Y41910D01*
X62940Y52780D02*
X62380Y53340D01*
X49530Y53340D02*
X45720Y57150D01*
X45720Y184150D01*
X52070Y190500D02*
X66040Y190500D01*
X62380Y53340D02*
X49530Y53340D01*
X45720Y184150D02*
X52070Y190500D01*
X209550Y260350D02*
X220370Y249530D01*
X220370Y220140D01*
X219700Y219470D02*
X219700Y93980D01*
X176860Y243840D02*
X168910Y243840D01*
X162248Y250502D01*
X176860Y243840D02*
X181940Y243840D01*
X191008Y280162D02*
X167640Y280162D01*
X191008Y280162D02*
X209550Y261620D01*
X167640Y280162D02*
X162248Y274770D01*
X162248Y250502D01*
X93980Y241300D02*
X66040Y241300D01*
X93980Y241300D02*
X99060Y236220D01*
X119940Y41910D02*
X137160Y41910D01*
X144780Y34290D01*
X66040Y241300D02*
X49530Y241300D01*
X35560Y227330D01*
X46990Y29210D02*
X110490Y29210D01*
X35560Y40640D02*
X35560Y227330D01*
X35560Y40640D02*
X46990Y29210D01*
X119940Y38660D02*
X119940Y41910D01*
X119940Y38660D02*
X110490Y29210D01*
X144780Y67310D02*
X171450Y67310D01*
X172720Y68580D01*
M02*
